<?xml version="1.0" encoding="utf-8" standalone="no"?>
<!DOCTYPE svg PUBLIC "-//W3C//DTD SVG 1.1//EN"
  "http://www.w3.org/Graphics/SVG/1.1/DTD/svg11.dtd">
<svg xmlns:xlink="http://www.w3.org/1999/xlink" width="845.824369pt" height="500.399821pt" viewBox="0 0 845.824369 500.399821" xmlns="http://www.w3.org/2000/svg" version="1.1">
 <metadata>
  <rdf:RDF xmlns:dc="http://purl.org/dc/elements/1.1/" xmlns:cc="http://creativecommons.org/ns#" xmlns:rdf="http://www.w3.org/1999/02/22-rdf-syntax-ns#">
   <cc:Work>
    <dc:type rdf:resource="http://purl.org/dc/dcmitype/StillImage"/>
    <dc:date>2024-01-11T23:16:13.872587</dc:date>
    <dc:format>image/svg+xml</dc:format>
    <dc:creator>
     <cc:Agent>
      <dc:title>Matplotlib v3.7.2, https://matplotlib.org/</dc:title>
     </cc:Agent>
    </dc:creator>
   </cc:Work>
  </rdf:RDF>
 </metadata>
 <defs>
  <style type="text/css">*{stroke-linejoin: round; stroke-linecap: butt}</style>
 </defs>
 <g id="figure_1">
  <g id="patch_1">
   <path d="M 0 500.399821 
L 845.824369 500.399821 
L 845.824369 0 
L 0 0 
z
" style="fill: #ffffff"/>
  </g>
  <g id="axes_1">
   <g id="patch_2">
    <path d="M 57.424369 450.72 
L 838.624369 450.72 
L 838.624369 7.2 
L 57.424369 7.2 
z
" style="fill: #ffffff"/>
   </g>
   <g id="matplotlib.axis_1">
    <g id="xtick_1">
     <g id="line2d_1">
      <path d="M 72.118903 450.72 
L 72.118903 7.2 
" clip-path="url(#p1130b29eca)" style="fill: none; stroke: #b0b0b0; stroke-width: 0.7; stroke-linecap: square"/>
     </g>
     <g id="line2d_2">
      <defs>
       <path id="m202c588c47" d="M 0 0 
L 0 3.5 
" style="stroke: #000000; stroke-width: 0.8"/>
      </defs>
      <g>
       <use xlink:href="#m202c588c47" x="72.118903" y="450.72" style="stroke: #000000; stroke-width: 0.8"/>
      </g>
     </g>
     <g id="text_1">
      <!-- $\mathdefault{0}$ -->
      <g transform="translate(68.006722 469.971968) scale(0.18 -0.18)">
       <defs>
        <path id="LMRoman17-Regular-30" d="M 2688 2025 
C 2688 2416 2682 3080 2413 3591 
C 2176 4039 1798 4198 1466 4198 
C 1158 4198 768 4058 525 3597 
C 269 3118 243 2524 243 2025 
C 243 1661 250 1106 448 619 
C 723 -39 1216 -128 1466 -128 
C 1760 -128 2208 -7 2470 600 
C 2662 1042 2688 1559 2688 2025 
z
M 2278 2096 
C 2278 1680 2278 1169 2202 792 
C 2067 95 1690 -26 1466 -26 
C 1056 -26 813 325 723 812 
C 653 1188 653 1738 653 2096 
C 653 2588 653 2997 736 3387 
C 858 3929 1216 4096 1466 4096 
C 1728 4096 2067 3923 2189 3400 
C 2272 3036 2278 2607 2278 2096 
z
" transform="scale(0.015625)"/>
       </defs>
       <use xlink:href="#LMRoman17-Regular-30" transform="scale(0.996264)"/>
      </g>
     </g>
    </g>
    <g id="xtick_2">
     <g id="line2d_3">
      <path d="M 234.289194 450.72 
L 234.289194 7.2 
" clip-path="url(#p1130b29eca)" style="fill: none; stroke: #b0b0b0; stroke-width: 0.7; stroke-linecap: square"/>
     </g>
     <g id="line2d_4">
      <g>
       <use xlink:href="#m202c588c47" x="234.289194" y="450.72" style="stroke: #000000; stroke-width: 0.8"/>
      </g>
     </g>
     <g id="text_2">
      <!-- $\mathdefault{2}$ -->
      <g transform="translate(230.177013 469.971968) scale(0.18 -0.18)">
       <defs>
        <path id="LMRoman17-Regular-32" d="M 2669 989 
L 2554 989 
C 2490 536 2438 459 2413 420 
C 2381 369 1920 369 1830 369 
L 602 369 
L 1824 1597 
C 2214 1967 2669 2402 2669 3035 
C 2669 3790 2067 4224 1395 4224 
C 691 4224 262 3604 262 3030 
C 262 2780 448 2748 525 2748 
C 589 2748 781 2787 781 3010 
C 781 3207 614 3264 525 3264 
C 486 3264 448 3258 422 3245 
C 544 3790 915 4058 1306 4058 
C 1862 4058 2227 3617 2227 3035 
C 2227 2479 1901 2000 1536 1584 
L 262 146 
L 262 0 
L 2515 0 
L 2669 989 
z
" transform="scale(0.015625)"/>
       </defs>
       <use xlink:href="#LMRoman17-Regular-32" transform="scale(0.996264)"/>
      </g>
     </g>
    </g>
    <g id="xtick_3">
     <g id="line2d_5">
      <path d="M 396.459486 450.72 
L 396.459486 7.2 
" clip-path="url(#p1130b29eca)" style="fill: none; stroke: #b0b0b0; stroke-width: 0.7; stroke-linecap: square"/>
     </g>
     <g id="line2d_6">
      <g>
       <use xlink:href="#m202c588c47" x="396.459486" y="450.72" style="stroke: #000000; stroke-width: 0.8"/>
      </g>
     </g>
     <g id="text_3">
      <!-- $\mathdefault{4}$ -->
      <g transform="translate(392.347305 469.971968) scale(0.18 -0.18)">
       <defs>
        <path id="LMRoman17-Regular-34" d="M 2803 1114 
L 2803 1280 
L 2150 1280 
L 2150 4154 
C 2150 4288 2144 4288 2029 4288 
L 128 1280 
L 128 1114 
L 1779 1114 
L 1779 487 
C 1779 255 1766 192 1318 192 
L 1197 192 
L 1197 32 
C 1402 32 1747 32 1965 32 
C 2182 32 2528 32 2733 32 
L 2733 192 
L 2611 192 
C 2163 192 2150 255 2150 487 
L 2150 1114 
L 2803 1114 
z
M 1798 1280 
L 256 1280 
L 1798 3734 
L 1798 1280 
z
" transform="scale(0.015625)"/>
       </defs>
       <use xlink:href="#LMRoman17-Regular-34" transform="scale(0.996264)"/>
      </g>
     </g>
    </g>
    <g id="xtick_4">
     <g id="line2d_7">
      <path d="M 558.629778 450.72 
L 558.629778 7.2 
" clip-path="url(#p1130b29eca)" style="fill: none; stroke: #b0b0b0; stroke-width: 0.7; stroke-linecap: square"/>
     </g>
     <g id="line2d_8">
      <g>
       <use xlink:href="#m202c588c47" x="558.629778" y="450.72" style="stroke: #000000; stroke-width: 0.8"/>
      </g>
     </g>
     <g id="text_4">
      <!-- $\mathdefault{6}$ -->
      <g transform="translate(554.517597 469.971968) scale(0.18 -0.18)">
       <defs>
        <path id="LMRoman17-Regular-36" d="M 2688 1283 
C 2688 2081 2170 2662 1517 2662 
C 1126 2662 838 2407 678 1960 
L 678 2176 
C 678 3690 1395 4032 1811 4032 
C 1946 4032 2272 4009 2400 3776 
C 2298 3776 2106 3776 2106 3553 
C 2106 3381 2246 3323 2336 3323 
C 2394 3323 2566 3348 2566 3560 
C 2566 3954 2246 4179 1805 4179 
C 1043 4179 243 3390 243 1984 
C 243 253 966 -128 1478 -128 
C 2099 -128 2688 427 2688 1283 
z
M 2253 1289 
C 2253 944 2253 690 2118 434 
C 1978 171 1773 25 1478 25 
C 691 25 691 1200 691 1436 
C 691 1896 909 2560 1504 2560 
C 1613 2560 1926 2560 2138 2120 
C 2253 1870 2253 1609 2253 1289 
z
" transform="scale(0.015625)"/>
       </defs>
       <use xlink:href="#LMRoman17-Regular-36" transform="scale(0.996264)"/>
      </g>
     </g>
    </g>
    <g id="xtick_5">
     <g id="line2d_9">
      <path d="M 720.80007 450.72 
L 720.80007 7.2 
" clip-path="url(#p1130b29eca)" style="fill: none; stroke: #b0b0b0; stroke-width: 0.7; stroke-linecap: square"/>
     </g>
     <g id="line2d_10">
      <g>
       <use xlink:href="#m202c588c47" x="720.80007" y="450.72" style="stroke: #000000; stroke-width: 0.8"/>
      </g>
     </g>
     <g id="text_5">
      <!-- $\mathdefault{8}$ -->
      <g transform="translate(716.687889 469.971968) scale(0.18 -0.18)">
       <defs>
        <path id="LMRoman17-Regular-38" d="M 2720 1011 
C 2720 1590 2330 1858 2074 2029 
C 1984 2092 1933 2124 1741 2264 
C 2144 2468 2554 2773 2554 3263 
C 2554 3842 1990 4179 1472 4179 
C 890 4179 378 3759 378 3180 
C 378 3021 416 2747 666 2505 
C 730 2442 998 2251 1171 2130 
C 883 1983 211 1634 211 934 
C 211 279 838 -128 1459 -128 
C 2144 -128 2720 362 2720 1011 
z
M 2336 3262 
C 2336 2669 1670 2331 1638 2331 
C 1638 2331 1626 2331 1574 2370 
L 902 2822 
C 851 2854 595 3051 595 3351 
C 595 3739 998 4032 1459 4032 
C 1965 4032 2336 3676 2336 3262 
z
M 2483 851 
C 2483 381 2010 25 1472 25 
C 890 25 448 438 448 940 
C 448 1443 838 1862 1280 2060 
L 2080 1519 
C 2176 1449 2483 1240 2483 851 
z
" transform="scale(0.015625)"/>
       </defs>
       <use xlink:href="#LMRoman17-Regular-38" transform="scale(0.996264)"/>
      </g>
     </g>
    </g>
    <g id="text_6">
     <!-- imbibition height in $m$ -->
     <g transform="translate(366.635865 489.711878) scale(0.18 -0.18)">
      <defs>
       <path id="LMRoman17-Regular-69" d="M 1370 -13 
L 1370 153 
C 992 153 979 191 979 420 
L 979 2778 
L 243 2708 
L 243 2542 
C 602 2542 653 2503 653 2198 
L 653 427 
C 653 184 627 153 218 153 
L 218 -13 
C 371 0 646 0 806 0 
C 960 0 1222 0 1370 -13 
z
M 1056 3835 
C 1056 3988 934 4096 800 4096 
C 646 4096 538 3975 538 3835 
C 538 3682 659 3574 794 3574 
C 947 3574 1056 3695 1056 3835 
z
" transform="scale(0.015625)"/>
       <path id="LMRoman17-Regular-6d" d="M 4762 -13 
L 4762 153 
C 4352 153 4326 178 4326 428 
L 4326 1933 
C 4326 2252 4269 2790 3507 2790 
C 3072 2790 2771 2496 2656 2151 
L 2650 2151 
C 2573 2676 2195 2790 1837 2790 
C 1331 2790 1069 2400 973 2144 
L 966 2144 
L 966 2790 
L 211 2720 
L 211 2554 
C 589 2554 646 2515 646 2208 
L 646 428 
C 646 184 621 153 211 153 
L 211 -13 
C 365 0 646 0 813 0 
C 979 0 1267 0 1421 -13 
L 1421 153 
C 1011 153 986 178 986 428 
L 986 1658 
C 986 2247 1344 2688 1792 2688 
C 2266 2688 2317 2266 2317 1958 
L 2317 428 
C 2317 184 2291 153 1882 153 
L 1882 -13 
C 2035 0 2317 0 2483 0 
C 2650 0 2938 0 3091 -13 
L 3091 153 
C 2682 153 2656 178 2656 428 
L 2656 1658 
C 2656 2247 3014 2688 3462 2688 
C 3936 2688 3987 2266 3987 1958 
L 3987 428 
C 3987 184 3962 153 3552 153 
L 3552 -13 
C 3706 0 3987 0 4154 0 
C 4320 0 4608 0 4762 -13 
z
" transform="scale(0.015625)"/>
       <path id="LMRoman17-Regular-62" d="M 3053 1370 
C 3053 2188 2477 2790 1830 2790 
C 1434 2790 1152 2579 960 2330 
L 960 4396 
L 198 4326 
L 198 4160 
C 576 4160 634 4122 634 3817 
L 634 -13 
L 749 -13 
L 934 441 
C 1120 141 1395 -64 1766 -64 
C 2406 -64 3053 500 3053 1370 
z
M 2643 1376 
C 2643 108 1888 38 1734 38 
C 1536 38 1248 114 1043 486 
C 973 608 973 621 973 735 
L 973 2004 
C 973 2118 973 2138 1062 2272 
C 1312 2657 1670 2688 1792 2688 
C 1984 2688 2643 2585 2643 1376 
z
" transform="scale(0.015625)"/>
       <path id="LMRoman17-Regular-74" d="M 1965 777 
L 1965 1140 
L 1850 1140 
L 1850 783 
C 1850 344 1677 51 1408 51 
C 1222 51 966 178 966 758 
L 966 2560 
L 1862 2560 
L 1862 2725 
L 966 2725 
L 966 3904 
L 851 3904 
C 838 3245 614 2668 70 2668 
L 70 2560 
L 627 2560 
L 627 771 
C 627 650 627 -64 1370 -64 
C 1747 -64 1965 306 1965 777 
z
" transform="scale(0.015625)"/>
       <path id="LMRoman17-Regular-6f" d="M 2758 1356 
C 2758 2176 2163 2816 1466 2816 
C 768 2816 173 2176 173 1356 
C 173 551 768 -64 1466 -64 
C 2163 -64 2758 551 2758 1356 
z
M 2349 1408 
C 2349 1158 2336 775 2163 467 
C 1984 173 1709 51 1466 51 
C 1165 51 909 230 762 480 
C 602 767 582 1126 582 1408 
C 582 1677 595 2010 762 2298 
C 890 2509 1139 2714 1466 2714 
C 1754 2714 1997 2554 2150 2330 
C 2349 2029 2349 1607 2349 1408 
z
" transform="scale(0.015625)"/>
       <path id="LMRoman17-Regular-6e" d="M 3091 -13 
L 3091 153 
C 2682 153 2656 178 2656 428 
L 2656 1933 
C 2656 2259 2592 2790 1837 2790 
C 1331 2790 1069 2400 973 2144 
L 966 2144 
L 966 2790 
L 211 2720 
L 211 2554 
C 589 2554 646 2515 646 2208 
L 646 428 
C 646 184 621 153 211 153 
L 211 -13 
C 365 0 646 0 813 0 
C 979 0 1267 0 1421 -13 
L 1421 153 
C 1011 153 986 178 986 428 
L 986 1658 
C 986 2247 1344 2688 1792 2688 
C 2266 2688 2317 2266 2317 1958 
L 2317 428 
C 2317 184 2291 153 1882 153 
L 1882 -13 
C 2035 0 2317 0 2483 0 
C 2650 0 2938 0 3091 -13 
z
" transform="scale(0.015625)"/>
       <path id="LMRoman17-Regular-68" d="M 3091 -13 
L 3091 153 
C 2682 153 2656 178 2656 428 
L 2656 1933 
C 2656 2259 2592 2790 1837 2790 
C 1312 2790 1056 2368 979 2157 
L 973 2157 
L 973 4396 
L 211 4326 
L 211 4160 
C 589 4160 646 4122 646 3817 
L 646 426 
C 646 184 621 153 211 153 
L 211 -13 
C 365 0 646 0 813 0 
C 979 0 1267 0 1421 -13 
L 1421 153 
C 1011 153 986 178 986 428 
L 986 1658 
C 986 2247 1344 2688 1792 2688 
C 2266 2688 2317 2266 2317 1958 
L 2317 428 
C 2317 184 2291 153 1882 153 
L 1882 -13 
C 2035 0 2317 0 2483 0 
C 2650 0 2938 0 3091 -13 
z
" transform="scale(0.015625)"/>
       <path id="LMRoman17-Regular-65" d="M 2464 1576 
C 2464 2238 2118 2816 1389 2816 
C 710 2816 173 2169 173 1383 
C 173 551 781 -64 1459 -64 
C 2176 -64 2458 606 2458 739 
C 2458 784 2406 784 2406 784 
C 2362 784 2355 771 2330 695 
C 2189 265 1837 51 1504 51 
C 1229 51 954 203 781 480 
C 582 803 582 1176 582 1472 
L 2438 1472 
C 2464 1498 2464 1511 2464 1576 
z
M 2118 1568 
L 589 1568 
C 634 2505 1126 2714 1382 2714 
C 1818 2714 2112 2297 2118 1568 
z
" transform="scale(0.015625)"/>
       <path id="LMRoman17-Regular-67" d="M 2886 2614 
C 2886 2731 2790 2854 2586 2854 
C 2330 2854 2106 2738 1926 2580 
C 1734 2753 1504 2816 1299 2816 
C 794 2816 358 2419 358 1888 
C 358 1522 570 1292 634 1228 
C 442 1004 442 743 442 711 
C 442 545 506 302 723 168 
C 390 85 128 -169 128 -486 
C 128 -943 736 -1280 1466 -1280 
C 2170 -1280 2803 -956 2803 -479 
C 2803 384 1856 384 1363 384 
C 1216 384 954 384 922 391 
C 723 423 589 602 589 825 
C 589 882 589 1024 710 1164 
C 832 1068 1043 960 1299 960 
C 1805 960 2240 1357 2240 1888 
C 2240 2054 2189 2310 1997 2509 
C 2176 2692 2438 2752 2586 2752 
C 2611 2752 2650 2752 2682 2734 
C 2656 2728 2598 2703 2598 2605 
C 2598 2527 2656 2471 2739 2471 
C 2835 2471 2886 2533 2886 2614 
z
M 1862 1889 
C 1862 1760 1862 1068 1299 1068 
C 736 1068 736 1760 736 1889 
C 736 2016 736 2708 1299 2708 
C 1862 2708 1862 2016 1862 1889 
z
M 2547 -486 
C 2547 -835 2106 -1171 1466 -1171 
C 826 -1171 384 -835 384 -486 
C 384 -289 493 -105 634 -4 
C 794 104 858 104 1293 104 
C 1818 104 2547 104 2547 -486 
z
" transform="scale(0.015625)"/>
       <path id="LMMathItalic12-Regular-6d" d="M 5293 913 
C 5293 945 5267 971 5229 971 
C 5171 971 5165 952 5133 843 
C 4986 332 4749 64 4493 64 
C 4429 64 4326 64 4326 269 
C 4326 436 4403 640 4429 710 
C 4544 1018 4832 1773 4832 2145 
C 4832 2528 4608 2816 4122 2816 
C 3693 2816 3347 2574 3091 2197 
C 3072 2542 2861 2816 2381 2816 
C 1811 2816 1510 2415 1395 2255 
C 1376 2618 1114 2816 832 2816 
C 646 2816 499 2727 378 2484 
C 262 2254 173 1865 173 1839 
C 173 1814 198 1782 243 1782 
C 294 1782 301 1788 339 1935 
C 435 2312 557 2689 813 2689 
C 960 2689 1011 2586 1011 2395 
C 1011 2254 947 2005 902 1807 
L 723 1118 
L 595 594 
C 550 428 480 128 480 96 
C 480 6 550 -64 646 -64 
C 723 -64 813 -26 864 70 
C 877 102 934 326 966 453 
L 1107 1028 
L 1318 1871 
C 1331 1910 1491 2229 1728 2433 
C 1894 2586 2112 2689 2362 2689 
C 2618 2689 2707 2497 2707 2242 
C 2707 2203 2707 2076 2630 1775 
C 2547 1443 2547 1424 2470 1118 
L 2285 383 
C 2259 287 2221 121 2221 96 
C 2221 6 2291 -64 2387 -64 
C 2579 -64 2611 83 2669 313 
L 3053 1839 
C 3066 1890 3398 2689 4102 2689 
C 4358 2689 4448 2497 4448 2242 
C 4448 1884 4198 1188 4058 805 
C 4000 651 3968 568 3968 453 
C 3968 166 4166 -64 4474 -64 
C 5069 -64 5293 875 5293 913 
z
" transform="scale(0.015625)"/>
      </defs>
      <use xlink:href="#LMRoman17-Regular-69" transform="scale(0.996264)"/>
      <use xlink:href="#LMRoman17-Regular-6d" transform="translate(24.872016 0) scale(0.996264)"/>
      <use xlink:href="#LMRoman17-Regular-62" transform="translate(99.191721 0) scale(0.996264)"/>
      <use xlink:href="#LMRoman17-Regular-69" transform="translate(150.088809 0) scale(0.996264)"/>
      <use xlink:href="#LMRoman17-Regular-62" transform="translate(174.960825 0) scale(0.996264)"/>
      <use xlink:href="#LMRoman17-Regular-69" transform="translate(225.857913 0) scale(0.996264)"/>
      <use xlink:href="#LMRoman17-Regular-74" transform="translate(250.729929 0) scale(0.996264)"/>
      <use xlink:href="#LMRoman17-Regular-69" transform="translate(286.011457 0) scale(0.996264)"/>
      <use xlink:href="#LMRoman17-Regular-6f" transform="translate(310.883473 0) scale(0.996264)"/>
      <use xlink:href="#LMRoman17-Regular-6e" transform="translate(356.574421 0) scale(0.996264)"/>
      <use xlink:href="#LMRoman17-Regular-68" transform="translate(437.547658 0) scale(0.996264)"/>
      <use xlink:href="#LMRoman17-Regular-65" transform="translate(488.444745 0) scale(0.996264)"/>
      <use xlink:href="#LMRoman17-Regular-69" transform="translate(528.929554 0) scale(0.996264)"/>
      <use xlink:href="#LMRoman17-Regular-67" transform="translate(553.801571 0) scale(0.996264)"/>
      <use xlink:href="#LMRoman17-Regular-68" transform="translate(599.492519 0) scale(0.996264)"/>
      <use xlink:href="#LMRoman17-Regular-74" transform="translate(647.787153 0) scale(0.996264)"/>
      <use xlink:href="#LMRoman17-Regular-69" transform="translate(713.144829 0) scale(0.996264)"/>
      <use xlink:href="#LMRoman17-Regular-6e" transform="translate(738.016845 0) scale(0.996264)"/>
      <use xlink:href="#LMMathItalic12-Regular-6d" transform="translate(818.990082 0) scale(0.996264)"/>
     </g>
    </g>
    <g id="text_7">
     <!-- $\times\mathdefault{10^{−8}}\mathdefault{}$ -->
     <g transform="translate(792.318858 488.878915) scale(0.18 -0.18)">
      <defs>
       <path id="LMMathSymbols10-Regular-2" d="M 4032 192 
C 4032 243 4019 256 3949 326 
L 2675 1606 
L 3949 2886 
C 4019 2956 4032 2969 4032 3020 
C 4032 3091 3974 3148 3904 3148 
C 3853 3148 3827 3123 3770 3065 
L 2490 1785 
L 1203 3065 
C 1133 3136 1120 3148 1069 3148 
C 1005 3148 941 3091 941 3020 
C 941 2969 966 2944 1024 2886 
L 2298 1606 
L 1024 332 
C 960 268 941 230 941 192 
C 941 121 1005 64 1069 64 
C 1120 64 1133 76 1203 147 
L 2483 1427 
L 3763 147 
C 3827 83 3866 64 3904 64 
C 3981 64 4032 121 4032 192 
z
" transform="scale(0.015625)"/>
       <path id="LMRoman17-Regular-31" d="M 2458 0 
L 2458 160 
L 2266 160 
C 1715 160 1702 230 1702 458 
L 1702 4058 
C 1702 4192 1696 4192 1606 4192 
C 1357 3916 979 3827 621 3827 
C 602 3827 570 3827 563 3808 
C 557 3795 557 3782 557 3648 
C 755 3648 1088 3686 1344 3839 
L 1344 461 
C 1344 236 1331 160 781 160 
L 589 160 
L 589 0 
L 1523 0 
L 2458 0 
z
" transform="scale(0.015625)"/>
       <path id="LMMathSymbols10-Regular-0" d="M 4442 1600 
C 4442 1728 4320 1728 4230 1728 
L 742 1728 
C 653 1728 531 1728 531 1600 
C 531 1472 653 1472 742 1472 
L 4230 1472 
C 4320 1472 4442 1472 4442 1600 
z
" transform="scale(0.015625)"/>
      </defs>
      <use xlink:href="#LMMathSymbols10-Regular-2" transform="scale(0.996264)"/>
      <use xlink:href="#LMRoman17-Regular-31" transform="translate(77.487468 0) scale(0.996264)"/>
      <use xlink:href="#LMRoman17-Regular-30" transform="translate(123.178416 0) scale(0.996264)"/>
      <use xlink:href="#LMMathSymbols10-Regular-0" transform="translate(168.869364 36.153639) scale(0.697382)"/>
      <use xlink:href="#LMRoman17-Regular-38" transform="translate(223.110358 36.153639) scale(0.697382)"/>
     </g>
    </g>
   </g>
   <g id="matplotlib.axis_2">
    <g id="ytick_1">
     <g id="line2d_11">
      <path d="M 57.424369 450.72 
L 838.624369 450.72 
" clip-path="url(#p1130b29eca)" style="fill: none; stroke: #b0b0b0; stroke-width: 0.7; stroke-linecap: square"/>
     </g>
     <g id="line2d_12">
      <defs>
       <path id="m88f45c04ba" d="M 0 0 
L -3.5 0 
" style="stroke: #000000; stroke-width: 0.8"/>
      </defs>
      <g>
       <use xlink:href="#m88f45c04ba" x="57.424369" y="450.72" style="stroke: #000000; stroke-width: 0.8"/>
      </g>
     </g>
     <g id="text_8">
      <!-- $\mathdefault{0.0}$ -->
      <g transform="translate(29.098153 456.845984) scale(0.18 -0.18)">
       <defs>
        <path id="LMMathItalic12-Regular-3a" d="M 1178 307 
C 1178 492 1024 619 870 619 
C 685 619 557 466 557 313 
C 557 128 710 0 864 0 
C 1050 0 1178 153 1178 307 
z
" transform="scale(0.015625)"/>
       </defs>
       <use xlink:href="#LMRoman17-Regular-30" transform="scale(0.996264)"/>
       <use xlink:href="#LMMathItalic12-Regular-3a" transform="translate(45.690948 0) scale(0.996264)"/>
       <use xlink:href="#LMRoman17-Regular-30" transform="translate(72.788125 0) scale(0.996264)"/>
      </g>
     </g>
    </g>
    <g id="ytick_2">
     <g id="line2d_13">
      <path d="M 57.424369 399.417552 
L 838.624369 399.417552 
" clip-path="url(#p1130b29eca)" style="fill: none; stroke: #b0b0b0; stroke-width: 0.7; stroke-linecap: square"/>
     </g>
     <g id="line2d_14">
      <g>
       <use xlink:href="#m88f45c04ba" x="57.424369" y="399.417552" style="stroke: #000000; stroke-width: 0.8"/>
      </g>
     </g>
     <g id="text_9">
      <!-- $\mathdefault{0.1}$ -->
      <g transform="translate(29.098153 405.543536) scale(0.18 -0.18)">
       <use xlink:href="#LMRoman17-Regular-30" transform="scale(0.996264)"/>
       <use xlink:href="#LMMathItalic12-Regular-3a" transform="translate(45.690948 0) scale(0.996264)"/>
       <use xlink:href="#LMRoman17-Regular-31" transform="translate(72.788125 0) scale(0.996264)"/>
      </g>
     </g>
    </g>
    <g id="ytick_3">
     <g id="line2d_15">
      <path d="M 57.424369 348.115104 
L 838.624369 348.115104 
" clip-path="url(#p1130b29eca)" style="fill: none; stroke: #b0b0b0; stroke-width: 0.7; stroke-linecap: square"/>
     </g>
     <g id="line2d_16">
      <g>
       <use xlink:href="#m88f45c04ba" x="57.424369" y="348.115104" style="stroke: #000000; stroke-width: 0.8"/>
      </g>
     </g>
     <g id="text_10">
      <!-- $\mathdefault{0.2}$ -->
      <g transform="translate(29.098153 354.241087) scale(0.18 -0.18)">
       <use xlink:href="#LMRoman17-Regular-30" transform="scale(0.996264)"/>
       <use xlink:href="#LMMathItalic12-Regular-3a" transform="translate(45.690948 0) scale(0.996264)"/>
       <use xlink:href="#LMRoman17-Regular-32" transform="translate(72.788125 0) scale(0.996264)"/>
      </g>
     </g>
    </g>
    <g id="ytick_4">
     <g id="line2d_17">
      <path d="M 57.424369 296.812655 
L 838.624369 296.812655 
" clip-path="url(#p1130b29eca)" style="fill: none; stroke: #b0b0b0; stroke-width: 0.7; stroke-linecap: square"/>
     </g>
     <g id="line2d_18">
      <g>
       <use xlink:href="#m88f45c04ba" x="57.424369" y="296.812655" style="stroke: #000000; stroke-width: 0.8"/>
      </g>
     </g>
     <g id="text_11">
      <!-- $\mathdefault{0.3}$ -->
      <g transform="translate(29.098153 302.938639) scale(0.18 -0.18)">
       <defs>
        <path id="LMRoman17-Regular-33" d="M 2720 1085 
C 2720 1707 2208 2157 1600 2227 
C 2086 2328 2554 2756 2554 3329 
C 2554 3820 2048 4179 1472 4179 
C 890 4179 378 3829 378 3329 
C 378 3110 544 3072 627 3072 
C 762 3072 877 3155 877 3321 
C 877 3486 762 3569 627 3569 
C 602 3569 570 3569 544 3557 
C 730 3959 1235 4032 1459 4032 
C 1683 4032 2106 3925 2106 3320 
C 2106 3143 2080 2828 1862 2550 
C 1670 2304 1453 2304 1242 2284 
C 1210 2284 1062 2269 1037 2269 
C 992 2263 966 2257 966 2208 
C 966 2163 973 2157 1101 2157 
L 1414 2157 
C 1984 2157 2234 1662 2234 1090 
C 2234 320 1824 25 1453 25 
C 1114 25 563 194 390 693 
C 422 680 454 680 486 680 
C 640 680 755 782 755 948 
C 755 1133 614 1216 486 1216 
C 378 1216 211 1165 211 926 
C 211 335 787 -128 1466 -128 
C 2176 -128 2720 430 2720 1085 
z
" transform="scale(0.015625)"/>
       </defs>
       <use xlink:href="#LMRoman17-Regular-30" transform="scale(0.996264)"/>
       <use xlink:href="#LMMathItalic12-Regular-3a" transform="translate(45.690948 0) scale(0.996264)"/>
       <use xlink:href="#LMRoman17-Regular-33" transform="translate(72.788125 0) scale(0.996264)"/>
      </g>
     </g>
    </g>
    <g id="ytick_5">
     <g id="line2d_19">
      <path d="M 57.424369 245.510207 
L 838.624369 245.510207 
" clip-path="url(#p1130b29eca)" style="fill: none; stroke: #b0b0b0; stroke-width: 0.7; stroke-linecap: square"/>
     </g>
     <g id="line2d_20">
      <g>
       <use xlink:href="#m88f45c04ba" x="57.424369" y="245.510207" style="stroke: #000000; stroke-width: 0.8"/>
      </g>
     </g>
     <g id="text_12">
      <!-- $\mathdefault{0.4}$ -->
      <g transform="translate(29.098153 251.636191) scale(0.18 -0.18)">
       <use xlink:href="#LMRoman17-Regular-30" transform="scale(0.996264)"/>
       <use xlink:href="#LMMathItalic12-Regular-3a" transform="translate(45.690948 0) scale(0.996264)"/>
       <use xlink:href="#LMRoman17-Regular-34" transform="translate(72.788125 0) scale(0.996264)"/>
      </g>
     </g>
    </g>
    <g id="ytick_6">
     <g id="line2d_21">
      <path d="M 57.424369 194.207759 
L 838.624369 194.207759 
" clip-path="url(#p1130b29eca)" style="fill: none; stroke: #b0b0b0; stroke-width: 0.7; stroke-linecap: square"/>
     </g>
     <g id="line2d_22">
      <g>
       <use xlink:href="#m88f45c04ba" x="57.424369" y="194.207759" style="stroke: #000000; stroke-width: 0.8"/>
      </g>
     </g>
     <g id="text_13">
      <!-- $\mathdefault{0.5}$ -->
      <g transform="translate(29.098153 200.333743) scale(0.18 -0.18)">
       <defs>
        <path id="LMRoman17-Regular-35" d="M 2669 1264 
C 2669 2030 2170 2624 1549 2624 
C 1222 2624 947 2503 730 2274 
L 730 3692 
C 794 3666 1056 3584 1325 3584 
C 1920 3584 2246 3911 2432 4100 
C 2432 4157 2432 4192 2394 4192 
C 2394 4192 2374 4192 2323 4163 
C 2099 4058 1837 3973 1517 3973 
C 1325 3973 1037 3999 723 4139 
C 653 4171 634 4171 634 4171 
C 602 4171 595 4164 595 4037 
L 595 2203 
C 595 2089 595 2057 659 2057 
C 691 2057 704 2070 736 2114 
C 941 2401 1222 2522 1542 2522 
C 1766 2522 2246 2382 2246 1289 
C 2246 1085 2246 715 2054 421 
C 1894 159 1645 25 1370 25 
C 947 25 518 320 403 814 
C 429 807 480 795 506 795 
C 589 795 749 840 749 1038 
C 749 1210 627 1280 506 1280 
C 358 1280 262 1190 262 1011 
C 262 454 704 -128 1382 -128 
C 2042 -128 2669 440 2669 1264 
z
" transform="scale(0.015625)"/>
       </defs>
       <use xlink:href="#LMRoman17-Regular-30" transform="scale(0.996264)"/>
       <use xlink:href="#LMMathItalic12-Regular-3a" transform="translate(45.690948 0) scale(0.996264)"/>
       <use xlink:href="#LMRoman17-Regular-35" transform="translate(72.788125 0) scale(0.996264)"/>
      </g>
     </g>
    </g>
    <g id="ytick_7">
     <g id="line2d_23">
      <path d="M 57.424369 142.905311 
L 838.624369 142.905311 
" clip-path="url(#p1130b29eca)" style="fill: none; stroke: #b0b0b0; stroke-width: 0.7; stroke-linecap: square"/>
     </g>
     <g id="line2d_24">
      <g>
       <use xlink:href="#m88f45c04ba" x="57.424369" y="142.905311" style="stroke: #000000; stroke-width: 0.8"/>
      </g>
     </g>
     <g id="text_14">
      <!-- $\mathdefault{0.6}$ -->
      <g transform="translate(29.098153 149.031295) scale(0.18 -0.18)">
       <use xlink:href="#LMRoman17-Regular-30" transform="scale(0.996264)"/>
       <use xlink:href="#LMMathItalic12-Regular-3a" transform="translate(45.690948 0) scale(0.996264)"/>
       <use xlink:href="#LMRoman17-Regular-36" transform="translate(72.788125 0) scale(0.996264)"/>
      </g>
     </g>
    </g>
    <g id="ytick_8">
     <g id="line2d_25">
      <path d="M 57.424369 91.602863 
L 838.624369 91.602863 
" clip-path="url(#p1130b29eca)" style="fill: none; stroke: #b0b0b0; stroke-width: 0.7; stroke-linecap: square"/>
     </g>
     <g id="line2d_26">
      <g>
       <use xlink:href="#m88f45c04ba" x="57.424369" y="91.602863" style="stroke: #000000; stroke-width: 0.8"/>
      </g>
     </g>
     <g id="text_15">
      <!-- $\mathdefault{0.7}$ -->
      <g transform="translate(29.098153 97.728846) scale(0.18 -0.18)">
       <defs>
        <path id="LMRoman17-Regular-37" d="M 2886 3941 
L 2886 4081 
L 1382 4081 
C 634 4081 621 4165 595 4288 
L 480 4288 
L 294 3094 
L 410 3094 
C 429 3215 474 3540 550 3661 
C 589 3712 1062 3712 1171 3712 
L 2579 3712 
L 1869 2661 
C 1395 1954 1069 999 1069 165 
C 1069 89 1069 -128 1299 -128 
C 1530 -128 1530 89 1530 171 
L 1530 465 
C 1530 1508 1709 2196 2003 2636 
L 2886 3941 
z
" transform="scale(0.015625)"/>
       </defs>
       <use xlink:href="#LMRoman17-Regular-30" transform="scale(0.996264)"/>
       <use xlink:href="#LMMathItalic12-Regular-3a" transform="translate(45.690948 0) scale(0.996264)"/>
       <use xlink:href="#LMRoman17-Regular-37" transform="translate(72.788125 0) scale(0.996264)"/>
      </g>
     </g>
    </g>
    <g id="ytick_9">
     <g id="line2d_27">
      <path d="M 57.424369 40.300414 
L 838.624369 40.300414 
" clip-path="url(#p1130b29eca)" style="fill: none; stroke: #b0b0b0; stroke-width: 0.7; stroke-linecap: square"/>
     </g>
     <g id="line2d_28">
      <g>
       <use xlink:href="#m88f45c04ba" x="57.424369" y="40.300414" style="stroke: #000000; stroke-width: 0.8"/>
      </g>
     </g>
     <g id="text_16">
      <!-- $\mathdefault{0.8}$ -->
      <g transform="translate(29.098153 46.426398) scale(0.18 -0.18)">
       <use xlink:href="#LMRoman17-Regular-30" transform="scale(0.996264)"/>
       <use xlink:href="#LMMathItalic12-Regular-3a" transform="translate(45.690948 0) scale(0.996264)"/>
       <use xlink:href="#LMRoman17-Regular-38" transform="translate(72.788125 0) scale(0.996264)"/>
      </g>
     </g>
    </g>
    <g id="text_17">
     <!-- Poseuille Forces/Total viscous forces -->
     <g transform="translate(20.632949 359.558664) rotate(-90) scale(0.18 -0.18)">
      <defs>
       <path id="LMRoman17-Regular-50" d="M 3718 3184 
C 3718 3791 3130 4352 2291 4352 
L 333 4352 
L 333 4186 
C 774 4186 845 4186 845 3899 
L 845 446 
C 845 160 774 160 333 160 
L 333 0 
C 518 0 858 0 1056 0 
C 1254 0 1594 0 1779 0 
L 1779 160 
C 1338 160 1267 160 1267 446 
L 1267 2042 
L 2291 2042 
C 3117 2042 3718 2578 3718 3184 
z
M 3232 3184 
C 3232 2604 2950 2176 2170 2176 
L 1254 2176 
L 1254 3938 
C 1254 4155 1267 4186 1523 4186 
L 2170 4186 
C 2995 4186 3232 3714 3232 3184 
z
" transform="scale(0.015625)"/>
       <path id="LMRoman17-Regular-73" d="M 2131 784 
C 2131 1112 1958 1285 1875 1362 
C 1683 1561 1459 1606 1190 1657 
C 838 1735 390 1825 390 2217 
C 390 2383 480 2737 1126 2737 
C 1811 2737 1850 2094 1862 1888 
C 1869 1856 1901 1849 1920 1849 
C 1978 1849 1978 1869 1978 1978 
L 1978 2697 
C 1978 2813 1971 2819 1933 2819 
C 1907 2819 1901 2813 1824 2717 
C 1805 2691 1747 2626 1728 2601 
C 1523 2819 1235 2819 1126 2819 
C 416 2819 160 2447 160 2076 
C 160 1498 813 1365 998 1325 
C 1402 1243 1542 1217 1677 1101 
C 1760 1025 1901 884 1901 654 
C 1901 384 1747 38 1158 38 
C 602 38 403 460 288 1021 
C 269 1110 269 1117 218 1117 
C 166 1117 160 1110 160 983 
L 160 63 
C 160 -51 166 -58 205 -58 
C 237 -58 243 -51 275 0 
L 448 276 
C 576 103 800 -64 1158 -64 
C 1792 -64 2131 283 2131 784 
z
" transform="scale(0.015625)"/>
       <path id="LMRoman17-Regular-75" d="M 3091 -63 
L 3091 128 
C 2714 128 2656 166 2656 473 
L 2656 2763 
L 1882 2693 
L 1882 2528 
C 2259 2528 2317 2489 2317 2186 
L 2317 1032 
C 2317 500 2029 38 1555 38 
C 1030 38 986 348 986 678 
L 986 2763 
L 211 2693 
L 211 2528 
C 467 2528 640 2528 646 2274 
L 646 1058 
C 646 633 646 361 813 183 
C 896 101 1056 -64 1517 -64 
C 2061 -64 2272 377 2323 506 
L 2330 506 
L 2330 -63 
L 3091 -63 
z
" transform="scale(0.015625)"/>
       <path id="LMRoman17-Regular-6c" d="M 1414 -13 
L 1414 153 
C 1005 153 979 178 979 426 
L 979 4396 
L 218 4326 
L 218 4160 
C 595 4160 653 4122 653 3817 
L 653 426 
C 653 184 627 153 218 153 
L 218 -13 
C 371 0 653 0 813 0 
C 979 0 1261 0 1414 -13 
z
" transform="scale(0.015625)"/>
       <path id="LMRoman17-Regular-46" d="M 3635 2916 
L 3482 4325 
L 326 4325 
L 326 4160 
C 768 4160 838 4160 838 3874 
L 838 446 
C 838 160 768 160 326 160 
L 326 0 
C 512 0 870 0 1069 0 
C 1331 0 1638 0 1901 0 
L 1901 160 
L 1760 160 
C 1274 160 1261 223 1261 452 
L 1261 2075 
L 1837 2075 
C 2432 2075 2490 1865 2490 1332 
L 2605 1332 
L 2605 2987 
L 2490 2987 
C 2490 2450 2432 2240 1837 2240 
L 1261 2240 
L 1261 3911 
C 1261 4128 1274 4160 1530 4160 
L 2355 4160 
C 3322 4160 3430 3765 3520 2916 
L 3635 2916 
z
" transform="scale(0.015625)"/>
       <path id="LMRoman17-Regular-72" d="M 2131 2458 
C 2131 2663 1926 2790 1709 2790 
C 1222 2790 1011 2317 947 2093 
L 941 2093 
L 941 2790 
L 198 2720 
L 198 2554 
C 576 2554 634 2515 634 2208 
L 634 428 
C 634 184 608 153 198 153 
L 198 -13 
C 352 0 646 0 813 0 
C 998 0 1325 0 1498 -13 
L 1498 153 
C 1037 153 960 153 960 440 
L 960 1497 
C 960 2112 1222 2688 1702 2688 
C 1747 2688 1792 2682 1837 2662 
C 1837 2662 1696 2617 1696 2452 
C 1696 2298 1818 2234 1914 2234 
C 1990 2234 2131 2279 2131 2458 
z
" transform="scale(0.015625)"/>
       <path id="LMRoman17-Regular-63" d="M 2458 748 
C 2458 774 2451 793 2406 793 
C 2362 793 2355 787 2330 703 
C 2163 180 1798 51 1523 51 
C 1114 51 621 427 621 1369 
C 621 2338 1094 2688 1472 2688 
C 1722 2688 2093 2573 2234 2240 
C 2112 2240 1933 2240 1933 2017 
C 1933 1838 2080 1787 2163 1787 
C 2208 1787 2394 1807 2394 2024 
C 2394 2467 1958 2803 1466 2803 
C 787 2803 211 2178 211 1363 
C 211 516 813 -64 1466 -64 
C 2259 -64 2458 677 2458 748 
z
" transform="scale(0.015625)"/>
       <path id="LMRoman17-Regular-2f" d="M 2637 4653 
C 2637 4729 2579 4768 2528 4768 
C 2451 4768 2426 4717 2400 4640 
L 326 -1377 
C 294 -1460 294 -1486 294 -1486 
C 294 -1562 352 -1600 403 -1600 
C 480 -1600 506 -1549 531 -1473 
L 2605 4545 
C 2637 4627 2637 4653 2637 4653 
z
" transform="scale(0.015625)"/>
       <path id="LMRoman17-Regular-54" d="M 4090 2918 
L 3981 4326 
L 288 4326 
L 179 2918 
L 294 2918 
C 378 3976 467 4160 1453 4160 
C 1568 4160 1754 4160 1805 4154 
C 1926 4135 1926 4058 1926 3912 
L 1926 459 
C 1926 230 1907 160 1376 160 
L 1197 160 
L 1197 0 
L 2138 0 
L 3078 0 
L 3078 160 
L 2899 160 
C 2368 160 2349 230 2349 459 
L 2349 3912 
C 2349 4052 2349 4129 2464 4154 
C 2515 4160 2701 4160 2816 4160 
C 3795 4160 3891 3976 3974 2918 
L 4090 2918 
z
" transform="scale(0.015625)"/>
       <path id="LMRoman17-Regular-61" d="M 2874 567 
L 2874 920 
L 2758 920 
L 2758 562 
C 2758 178 2586 128 2502 128 
C 2240 128 2240 458 2240 738 
L 2240 1653 
C 2240 2072 2240 2294 1971 2543 
C 1734 2752 1459 2816 1242 2816 
C 736 2816 371 2407 371 1971 
C 371 1728 563 1728 602 1728 
C 685 1728 832 1778 832 1954 
C 832 2112 710 2181 602 2181 
C 576 2181 544 2174 525 2168 
C 659 2592 1005 2714 1229 2714 
C 1549 2714 1901 2429 1901 1885 
L 1901 1600 
C 1523 1600 1069 1549 710 1357 
C 307 1133 192 813 192 570 
C 192 77 768 -64 1107 -64 
C 1459 -64 1786 139 1926 511 
C 1939 233 2118 -18 2400 -18 
C 2534 -18 2874 70 2874 567 
z
M 1901 870 
C 1901 317 1504 38 1152 38 
C 832 38 582 275 582 570 
C 582 761 666 1100 1037 1305 
C 1344 1478 1696 1504 1901 1504 
L 1901 870 
z
" transform="scale(0.015625)"/>
       <path id="LMRoman17-Regular-76" d="M 3034 2560 
L 3034 2719 
L 2630 2719 
C 2496 2719 2285 2719 2157 2725 
L 2157 2560 
C 2317 2547 2406 2471 2406 2305 
C 2406 2248 2406 2235 2368 2146 
L 1664 375 
L 902 2286 
C 864 2369 864 2381 864 2407 
C 864 2560 1075 2560 1171 2560 
L 1171 2725 
C 1018 2719 736 2719 576 2719 
C 403 2719 205 2719 64 2725 
L 64 2560 
C 307 2560 442 2560 518 2362 
L 1446 44 
C 1485 -51 1491 -64 1549 -64 
C 1606 -64 1613 -51 1651 44 
L 2502 2163 
C 2560 2304 2662 2560 3034 2560 
z
" transform="scale(0.015625)"/>
       <path id="LMRoman17-Regular-66" d="M 2003 4067 
C 2003 4308 1773 4454 1517 4454 
C 1152 4454 653 4156 653 3481 
L 653 2725 
L 141 2725 
L 141 2560 
L 653 2560 
L 653 427 
C 653 184 627 153 218 153 
L 218 -13 
C 371 0 666 0 832 0 
C 1018 0 1344 0 1517 -13 
L 1517 153 
C 1056 153 979 153 979 439 
L 979 2560 
L 1709 2560 
L 1709 2725 
L 966 2725 
L 966 3494 
C 966 4022 1235 4352 1510 4352 
C 1594 4352 1690 4327 1754 4282 
C 1702 4269 1568 4225 1568 4067 
C 1568 3901 1696 3850 1786 3850 
C 1875 3850 2003 3901 2003 4067 
z
" transform="scale(0.015625)"/>
      </defs>
      <use xlink:href="#LMRoman17-Regular-50" transform="scale(0.996264)"/>
      <use xlink:href="#LMRoman17-Regular-6f" transform="translate(59.981095 0) scale(0.996264)"/>
      <use xlink:href="#LMRoman17-Regular-73" transform="translate(105.672043 0) scale(0.996264)"/>
      <use xlink:href="#LMRoman17-Regular-65" transform="translate(141.475281 0) scale(0.996264)"/>
      <use xlink:href="#LMRoman17-Regular-75" transform="translate(181.96009 0) scale(0.996264)"/>
      <use xlink:href="#LMRoman17-Regular-69" transform="translate(232.857178 0) scale(0.996264)"/>
      <use xlink:href="#LMRoman17-Regular-6c" transform="translate(257.729194 0) scale(0.996264)"/>
      <use xlink:href="#LMRoman17-Regular-6c" transform="translate(282.60121 0) scale(0.996264)"/>
      <use xlink:href="#LMRoman17-Regular-65" transform="translate(307.473227 0) scale(0.996264)"/>
      <use xlink:href="#LMRoman17-Regular-46" transform="translate(378.034185 0) scale(0.996264)"/>
      <use xlink:href="#LMRoman17-Regular-6f" transform="translate(430.210578 0) scale(0.996264)"/>
      <use xlink:href="#LMRoman17-Regular-72" transform="translate(475.901527 0) scale(0.996264)"/>
      <use xlink:href="#LMRoman17-Regular-63" transform="translate(511.183054 0) scale(0.996264)"/>
      <use xlink:href="#LMRoman17-Regular-65" transform="translate(551.667864 0) scale(0.996264)"/>
      <use xlink:href="#LMRoman17-Regular-73" transform="translate(592.152673 0) scale(0.996264)"/>
      <use xlink:href="#LMRoman17-Regular-2f" transform="translate(627.955911 0) scale(0.996264)"/>
      <use xlink:href="#LMRoman17-Regular-54" transform="translate(673.646859 0) scale(0.996264)"/>
      <use xlink:href="#LMRoman17-Regular-6f" transform="translate(732.349575 0) scale(0.996264)"/>
      <use xlink:href="#LMRoman17-Regular-74" transform="translate(778.040524 0) scale(0.996264)"/>
      <use xlink:href="#LMRoman17-Regular-61" transform="translate(813.322052 0) scale(0.996264)"/>
      <use xlink:href="#LMRoman17-Regular-6c" transform="translate(859.013 0) scale(0.996264)"/>
      <use xlink:href="#LMRoman17-Regular-76" transform="translate(913.961165 0) scale(0.996264)"/>
      <use xlink:href="#LMRoman17-Regular-69" transform="translate(962.252378 0) scale(0.996264)"/>
      <use xlink:href="#LMRoman17-Regular-73" transform="translate(987.124394 0) scale(0.996264)"/>
      <use xlink:href="#LMRoman17-Regular-63" transform="translate(1022.927632 0) scale(0.996264)"/>
      <use xlink:href="#LMRoman17-Regular-6f" transform="translate(1063.412441 0) scale(0.996264)"/>
      <use xlink:href="#LMRoman17-Regular-75" transform="translate(1109.10339 0) scale(0.996264)"/>
      <use xlink:href="#LMRoman17-Regular-73" transform="translate(1160.000477 0) scale(0.996264)"/>
      <use xlink:href="#LMRoman17-Regular-66" transform="translate(1225.879864 0) scale(0.996264)"/>
      <use xlink:href="#LMRoman17-Regular-6f" transform="translate(1253.352039 0) scale(0.996264)"/>
      <use xlink:href="#LMRoman17-Regular-72" transform="translate(1299.042987 0) scale(0.996264)"/>
      <use xlink:href="#LMRoman17-Regular-63" transform="translate(1334.324515 0) scale(0.996264)"/>
      <use xlink:href="#LMRoman17-Regular-65" transform="translate(1374.809324 0) scale(0.996264)"/>
      <use xlink:href="#LMRoman17-Regular-73" transform="translate(1415.294133 0) scale(0.996264)"/>
     </g>
    </g>
   </g>
   <g id="line2d_29">
    <defs>
     <path id="mdc1af7a756" d="M 0 1.5 
C 0.397805 1.5 0.77937 1.341951 1.06066 1.06066 
C 1.341951 0.77937 1.5 0.397805 1.5 0 
C 1.5 -0.397805 1.341951 -0.77937 1.06066 -1.06066 
C 0.77937 -1.341951 0.397805 -1.5 0 -1.5 
C -0.397805 -1.5 -0.77937 -1.341951 -1.06066 -1.06066 
C -1.341951 -0.77937 -1.5 -0.397805 -1.5 0 
C -1.5 0.397805 -1.341951 0.77937 -1.06066 1.06066 
C -0.77937 1.341951 -0.397805 1.5 0 1.5 
z
" style="stroke: #e41a1c"/>
    </defs>
    <g clip-path="url(#p1130b29eca)">
     <use xlink:href="#mdc1af7a756" x="92.933459" y="378.568837" style="fill: #e41a1c; stroke: #e41a1c"/>
     <use xlink:href="#mdc1af7a756" x="112.937165" y="330.263844" style="fill: #e41a1c; stroke: #e41a1c"/>
     <use xlink:href="#mdc1af7a756" x="131.238082" y="296.969314" style="fill: #e41a1c; stroke: #e41a1c"/>
     <use xlink:href="#mdc1af7a756" x="148.225421" y="269.861157" style="fill: #e41a1c; stroke: #e41a1c"/>
     <use xlink:href="#mdc1af7a756" x="164.134326" y="248.393207" style="fill: #e41a1c; stroke: #e41a1c"/>
     <use xlink:href="#mdc1af7a756" x="179.135078" y="233.016852" style="fill: #e41a1c; stroke: #e41a1c"/>
     <use xlink:href="#mdc1af7a756" x="193.381738" y="215.565061" style="fill: #e41a1c; stroke: #e41a1c"/>
     <use xlink:href="#mdc1af7a756" x="206.955392" y="204.909532" style="fill: #e41a1c; stroke: #e41a1c"/>
     <use xlink:href="#mdc1af7a756" x="219.953341" y="194.306108" style="fill: #e41a1c; stroke: #e41a1c"/>
     <use xlink:href="#mdc1af7a756" x="232.440453" y="182.811726" style="fill: #e41a1c; stroke: #e41a1c"/>
     <use xlink:href="#mdc1af7a756" x="244.457272" y="175.292015" style="fill: #e41a1c; stroke: #e41a1c"/>
     <use xlink:href="#mdc1af7a756" x="256.068665" y="170.045715" style="fill: #e41a1c; stroke: #e41a1c"/>
     <use xlink:href="#mdc1af7a756" x="267.307066" y="159.865805" style="fill: #e41a1c; stroke: #e41a1c"/>
     <use xlink:href="#mdc1af7a756" x="278.204909" y="155.898783" style="fill: #e41a1c; stroke: #e41a1c"/>
     <use xlink:href="#mdc1af7a756" x="288.778412" y="150.851245" style="fill: #e41a1c; stroke: #e41a1c"/>
     <use xlink:href="#mdc1af7a756" x="299.076226" y="144.452231" style="fill: #e41a1c; stroke: #e41a1c"/>
     <use xlink:href="#mdc1af7a756" x="309.106459" y="136.42458" style="fill: #e41a1c; stroke: #e41a1c"/>
     <use xlink:href="#mdc1af7a756" x="318.885327" y="131.880111" style="fill: #e41a1c; stroke: #e41a1c"/>
     <use xlink:href="#mdc1af7a756" x="328.437157" y="128.243028" style="fill: #e41a1c; stroke: #e41a1c"/>
     <use xlink:href="#mdc1af7a756" x="337.761949" y="125.520097" style="fill: #e41a1c; stroke: #e41a1c"/>
     <use xlink:href="#mdc1af7a756" x="346.900245" y="123.564582" style="fill: #e41a1c; stroke: #e41a1c"/>
     <use xlink:href="#mdc1af7a756" x="355.843937" y="119.263655" style="fill: #e41a1c; stroke: #e41a1c"/>
     <use xlink:href="#mdc1af7a756" x="364.617349" y="112.162256" style="fill: #e41a1c; stroke: #e41a1c"/>
     <use xlink:href="#mdc1af7a756" x="373.204266" y="112.120179" style="fill: #e41a1c; stroke: #e41a1c"/>
     <use xlink:href="#mdc1af7a756" x="381.653339" y="109.494211" style="fill: #e41a1c; stroke: #e41a1c"/>
     <use xlink:href="#mdc1af7a756" x="389.948349" y="103.55161" style="fill: #e41a1c; stroke: #e41a1c"/>
     <use xlink:href="#mdc1af7a756" x="398.089298" y="105.526158" style="fill: #e41a1c; stroke: #e41a1c"/>
     <use xlink:href="#mdc1af7a756" x="406.10051" y="100.403485" style="fill: #e41a1c; stroke: #e41a1c"/>
     <use xlink:href="#mdc1af7a756" x="413.981986" y="99.788802" style="fill: #e41a1c; stroke: #e41a1c"/>
     <use xlink:href="#mdc1af7a756" x="421.733726" y="95.512533" style="fill: #e41a1c; stroke: #e41a1c"/>
     <use xlink:href="#mdc1af7a756" x="429.371947" y="91.553921" style="fill: #e41a1c; stroke: #e41a1c"/>
     <use xlink:href="#mdc1af7a756" x="436.88854" y="91.972269" style="fill: #e41a1c; stroke: #e41a1c"/>
     <use xlink:href="#mdc1af7a756" x="444.299722" y="88.553596" style="fill: #e41a1c; stroke: #e41a1c"/>
     <use xlink:href="#mdc1af7a756" x="451.605494" y="85.312368" style="fill: #e41a1c; stroke: #e41a1c"/>
     <use xlink:href="#mdc1af7a756" x="458.813964" y="86.823627" style="fill: #e41a1c; stroke: #e41a1c"/>
     <use xlink:href="#mdc1af7a756" x="465.917022" y="88.604759" style="fill: #e41a1c; stroke: #e41a1c"/>
     <use xlink:href="#mdc1af7a756" x="472.930887" y="86.386964" style="fill: #e41a1c; stroke: #e41a1c"/>
     <use xlink:href="#mdc1af7a756" x="479.855559" y="84.331615" style="fill: #e41a1c; stroke: #e41a1c"/>
     <use xlink:href="#mdc1af7a756" x="486.699145" y="78.039863" style="fill: #e41a1c; stroke: #e41a1c"/>
     <use xlink:href="#mdc1af7a756" x="493.453538" y="76.338955" style="fill: #e41a1c; stroke: #e41a1c"/>
     <use xlink:href="#mdc1af7a756" x="500.134954" y="70.288016" style="fill: #e41a1c; stroke: #e41a1c"/>
     <use xlink:href="#mdc1af7a756" x="506.735285" y="69.033393" style="fill: #e41a1c; stroke: #e41a1c"/>
     <use xlink:href="#mdc1af7a756" x="513.254531" y="67.957203" style="fill: #e41a1c; stroke: #e41a1c"/>
     <use xlink:href="#mdc1af7a756" x="519.7008" y="67.055544" style="fill: #e41a1c; stroke: #e41a1c"/>
     <use xlink:href="#mdc1af7a756" x="526.082201" y="66.3278" style="fill: #e41a1c; stroke: #e41a1c"/>
     <use xlink:href="#mdc1af7a756" x="532.390625" y="65.868571" style="fill: #e41a1c; stroke: #e41a1c"/>
     <use xlink:href="#mdc1af7a756" x="538.634181" y="65.624287" style="fill: #e41a1c; stroke: #e41a1c"/>
     <use xlink:href="#mdc1af7a756" x="544.812869" y="65.550928" style="fill: #e41a1c; stroke: #e41a1c"/>
     <use xlink:href="#mdc1af7a756" x="550.926689" y="65.656246" style="fill: #e41a1c; stroke: #e41a1c"/>
     <use xlink:href="#mdc1af7a756" x="556.98375" y="65.911974" style="fill: #e41a1c; stroke: #e41a1c"/>
     <use xlink:href="#mdc1af7a756" x="562.985672" y="65.231015" style="fill: #e41a1c; stroke: #e41a1c"/>
     <use xlink:href="#mdc1af7a756" x="568.930024" y="61.980354" style="fill: #e41a1c; stroke: #e41a1c"/>
     <use xlink:href="#mdc1af7a756" x="574.815184" y="56.039012" style="fill: #e41a1c; stroke: #e41a1c"/>
     <use xlink:href="#mdc1af7a756" x="580.63953" y="58.579098" style="fill: #e41a1c; stroke: #e41a1c"/>
     <use xlink:href="#mdc1af7a756" x="586.416847" y="60.742885" style="fill: #e41a1c; stroke: #e41a1c"/>
     <use xlink:href="#mdc1af7a756" x="592.148756" y="59.632234" style="fill: #e41a1c; stroke: #e41a1c"/>
     <use xlink:href="#mdc1af7a756" x="597.829581" y="53.982298" style="fill: #e41a1c; stroke: #e41a1c"/>
     <use xlink:href="#mdc1af7a756" x="603.451214" y="54.223424" style="fill: #e41a1c; stroke: #e41a1c"/>
     <use xlink:href="#mdc1af7a756" x="609.031494" y="57.00102" style="fill: #e41a1c; stroke: #e41a1c"/>
     <use xlink:href="#mdc1af7a756" x="614.571231" y="56.283173" style="fill: #e41a1c; stroke: #e41a1c"/>
     <use xlink:href="#mdc1af7a756" x="620.060696" y="49.062864" style="fill: #e41a1c; stroke: #e41a1c"/>
     <use xlink:href="#mdc1af7a756" x="625.499887" y="54.10586" style="fill: #e41a1c; stroke: #e41a1c"/>
     <use xlink:href="#mdc1af7a756" x="630.908266" y="53.713664" style="fill: #e41a1c; stroke: #e41a1c"/>
     <use xlink:href="#mdc1af7a756" x="636.269616" y="45.979468" style="fill: #e41a1c; stroke: #e41a1c"/>
     <use xlink:href="#mdc1af7a756" x="641.582315" y="52.072037" style="fill: #e41a1c; stroke: #e41a1c"/>
     <use xlink:href="#mdc1af7a756" x="646.869067" y="50.687786" style="fill: #e41a1c; stroke: #e41a1c"/>
     <use xlink:href="#mdc1af7a756" x="652.103113" y="46.905051" style="fill: #e41a1c; stroke: #e41a1c"/>
     <use xlink:href="#mdc1af7a756" x="657.305536" y="50.230781" style="fill: #e41a1c; stroke: #e41a1c"/>
     <use xlink:href="#mdc1af7a756" x="662.477146" y="40.651096" style="fill: #e41a1c; stroke: #e41a1c"/>
     <use xlink:href="#mdc1af7a756" x="667.59443" y="47.47692" style="fill: #e41a1c; stroke: #e41a1c"/>
     <use xlink:href="#mdc1af7a756" x="672.693875" y="46.421383" style="fill: #e41a1c; stroke: #e41a1c"/>
     <use xlink:href="#mdc1af7a756" x="677.741425" y="44.938085" style="fill: #e41a1c; stroke: #e41a1c"/>
     <use xlink:href="#mdc1af7a756" x="682.768704" y="46.747482" style="fill: #e41a1c; stroke: #e41a1c"/>
     <use xlink:href="#mdc1af7a756" x="687.752197" y="41.976021" style="fill: #e41a1c; stroke: #e41a1c"/>
     <use xlink:href="#mdc1af7a756" x="692.709743" y="45.354283" style="fill: #e41a1c; stroke: #e41a1c"/>
     <use xlink:href="#mdc1af7a756" x="697.6308" y="39.254902" style="fill: #e41a1c; stroke: #e41a1c"/>
     <use xlink:href="#mdc1af7a756" x="702.521046" y="44.219292" style="fill: #e41a1c; stroke: #e41a1c"/>
     <use xlink:href="#mdc1af7a756" x="707.380478" y="37.458221" style="fill: #e41a1c; stroke: #e41a1c"/>
     <use xlink:href="#mdc1af7a756" x="712.209099" y="42.62023" style="fill: #e41a1c; stroke: #e41a1c"/>
     <use xlink:href="#mdc1af7a756" x="717.006096" y="36.611168" style="fill: #e41a1c; stroke: #e41a1c"/>
     <use xlink:href="#mdc1af7a756" x="721.777146" y="41.940281" style="fill: #e41a1c; stroke: #e41a1c"/>
     <use xlink:href="#mdc1af7a756" x="726.512519" y="37.439672" style="fill: #e41a1c; stroke: #e41a1c"/>
     <use xlink:href="#mdc1af7a756" x="731.230863" y="40.052762" style="fill: #e41a1c; stroke: #e41a1c"/>
     <use xlink:href="#mdc1af7a756" x="735.907044" y="37.830785" style="fill: #e41a1c; stroke: #e41a1c"/>
     <use xlink:href="#mdc1af7a756" x="740.572683" y="34.706867" style="fill: #e41a1c; stroke: #e41a1c"/>
     <use xlink:href="#mdc1af7a756" x="745.192915" y="37.725964" style="fill: #e41a1c; stroke: #e41a1c"/>
     <use xlink:href="#mdc1af7a756" x="749.801794" y="30.258325" style="fill: #e41a1c; stroke: #e41a1c"/>
     <use xlink:href="#mdc1af7a756" x="754.374996" y="37.811375" style="fill: #e41a1c; stroke: #e41a1c"/>
     <use xlink:href="#mdc1af7a756" x="758.923062" y="33.463809" style="fill: #e41a1c; stroke: #e41a1c"/>
     <use xlink:href="#mdc1af7a756" x="763.456533" y="35.79292" style="fill: #e41a1c; stroke: #e41a1c"/>
     <use xlink:href="#mdc1af7a756" x="767.949461" y="35.403399" style="fill: #e41a1c; stroke: #e41a1c"/>
     <use xlink:href="#mdc1af7a756" x="772.431848" y="27.95938" style="fill: #e41a1c; stroke: #e41a1c"/>
     <use xlink:href="#mdc1af7a756" x="776.883422" y="35.961885" style="fill: #e41a1c; stroke: #e41a1c"/>
     <use xlink:href="#mdc1af7a756" x="781.307428" y="32.54742" style="fill: #e41a1c; stroke: #e41a1c"/>
     <use xlink:href="#mdc1af7a756" x="785.724946" y="25.045628" style="fill: #e41a1c; stroke: #e41a1c"/>
     <use xlink:href="#mdc1af7a756" x="790.100301" y="33.417916" style="fill: #e41a1c; stroke: #e41a1c"/>
     <use xlink:href="#mdc1af7a756" x="794.457006" y="30.817377" style="fill: #e41a1c; stroke: #e41a1c"/>
     <use xlink:href="#mdc1af7a756" x="798.807224" y="24.88423" style="fill: #e41a1c; stroke: #e41a1c"/>
     <use xlink:href="#mdc1af7a756" x="803.115278" y="32.769915" style="fill: #e41a1c; stroke: #e41a1c"/>
    </g>
   </g>
   <g id="patch_3">
    <path d="M 57.424369 450.72 
L 57.424369 7.2 
" style="fill: none; stroke: #000000; stroke-width: 0.8; stroke-linejoin: miter; stroke-linecap: square"/>
   </g>
   <g id="patch_4">
    <path d="M 838.624369 450.72 
L 838.624369 7.2 
" style="fill: none; stroke: #000000; stroke-width: 0.8; stroke-linejoin: miter; stroke-linecap: square"/>
   </g>
   <g id="patch_5">
    <path d="M 57.424369 450.72 
L 838.624369 450.72 
" style="fill: none; stroke: #000000; stroke-width: 0.8; stroke-linejoin: miter; stroke-linecap: square"/>
   </g>
   <g id="patch_6">
    <path d="M 57.424369 7.2 
L 838.624369 7.2 
" style="fill: none; stroke: #000000; stroke-width: 0.8; stroke-linejoin: miter; stroke-linecap: square"/>
   </g>
   <g id="legend_1">
    <g id="patch_7">
     <path d="M 70.024369 47.083326 
L 259.429842 47.083326 
Q 263.029842 47.083326 263.029842 43.483326 
L 263.029842 19.8 
Q 263.029842 16.2 259.429842 16.2 
L 70.024369 16.2 
Q 66.424369 16.2 66.424369 19.8 
L 66.424369 43.483326 
Q 66.424369 47.083326 70.024369 47.083326 
z
" style="fill: #ffffff; opacity: 0.8; stroke: #cccccc; stroke-linejoin: miter"/>
    </g>
    <g id="line2d_30">
     <g>
      <use xlink:href="#mdc1af7a756" x="91.624369" y="29.7" style="fill: #e41a1c; stroke: #e41a1c"/>
     </g>
    </g>
    <g id="text_18">
     <!-- \textbf{\texttt{phaseFieldFoam}} -->
     <g transform="translate(124.024369 36) scale(0.18 -0.18)">
      <defs>
       <path id="LMMonoLt10-Bold-70" d="M 3136 1414 
C 3136 2222 2554 2854 1869 2854 
C 1594 2854 1331 2763 1120 2602 
C 1114 2746 1056 2816 826 2816 
L 371 2816 
C 250 2816 64 2816 64 2575 
C 64 2336 256 2336 365 2336 
L 595 2336 
L 595 -928 
L 371 -928 
C 250 -928 64 -928 64 -1172 
C 64 -1408 256 -1408 365 -1408 
L 1357 -1408 
C 1466 -1408 1658 -1408 1658 -1172 
C 1658 -928 1472 -928 1350 -928 
L 1126 -928 
L 1126 228 
C 1370 13 1613 -32 1798 -32 
C 2502 -32 3136 588 3136 1414 
z
M 2611 1414 
C 2611 847 2202 455 1786 455 
C 1331 455 1133 976 1133 1260 
L 1133 1717 
C 1133 2065 1472 2368 1837 2368 
C 2272 2368 2611 1930 2611 1414 
z
" transform="scale(0.015625)"/>
       <path id="LMMonoLt10-Bold-68" d="M 3283 237 
C 3283 480 3104 480 2982 480 
L 2758 480 
L 2758 1894 
C 2758 2569 2419 2854 1894 2854 
C 1542 2854 1280 2705 1126 2582 
L 1126 3653 
C 1126 3889 1082 3968 826 3968 
L 371 3968 
C 250 3968 70 3968 70 3724 
C 70 3488 262 3488 365 3488 
L 595 3488 
L 595 480 
L 371 480 
C 250 480 70 480 70 237 
C 70 0 262 0 365 0 
L 1357 0 
C 1466 0 1658 0 1658 237 
C 1658 480 1472 480 1350 480 
L 1126 480 
L 1126 1551 
C 1126 2141 1562 2368 1856 2368 
C 2157 2368 2227 2206 2227 1862 
L 2227 480 
L 2035 480 
C 1914 480 1728 480 1728 237 
C 1728 0 1926 0 2035 0 
L 2989 0 
C 3091 0 3283 0 3283 237 
z
" transform="scale(0.015625)"/>
       <path id="LMMonoLt10-Bold-61" d="M 3334 243 
C 3334 474 3149 474 3034 474 
C 2848 474 2758 498 2707 521 
L 2707 1853 
C 2707 2321 2362 2880 1427 2880 
C 1139 2880 474 2880 474 2386 
C 474 2165 627 2048 800 2048 
C 909 2048 1120 2112 1126 2387 
C 1126 2387 1331 2406 1434 2406 
C 1856 2406 2157 2243 2176 1856 
C 1069 1856 307 1508 307 883 
C 307 415 717 -32 1389 -32 
C 1613 -32 1990 11 2285 187 
C 2445 0 2733 0 2970 0 
C 3181 0 3334 13 3334 243 
z
M 2170 899 
C 2170 777 2170 655 1958 557 
C 1741 455 1472 455 1421 455 
C 1069 455 832 648 832 882 
C 832 1175 1338 1376 2170 1376 
L 2170 899 
z
" transform="scale(0.015625)"/>
       <path id="LMMonoLt10-Bold-73" d="M 2957 847 
C 2957 1533 2118 1682 1907 1714 
L 1261 1831 
C 1094 1870 922 1940 922 2089 
C 922 2238 1120 2393 1664 2393 
C 2131 2393 2221 2238 2240 2088 
C 2246 1959 2266 1829 2502 1829 
C 2765 1829 2771 1985 2771 2134 
L 2771 2575 
C 2771 2698 2758 2880 2534 2880 
C 2394 2880 2342 2822 2317 2770 
C 2048 2880 1792 2880 1677 2880 
C 582 2880 442 2324 442 2090 
C 442 1483 1114 1353 1715 1263 
C 1997 1218 2477 1140 2477 849 
C 2477 629 2253 455 1728 455 
C 1453 455 1126 519 979 980 
C 941 1123 909 1200 710 1200 
C 448 1200 442 1045 442 889 
L 442 279 
C 442 156 448 -32 678 -32 
C 742 -32 851 -32 934 182 
C 1235 -32 1549 -32 1722 -32 
C 2752 -32 2957 530 2957 847 
z
" transform="scale(0.015625)"/>
       <path id="LMMonoLt10-Bold-65" d="M 2989 748 
C 2989 969 2765 969 2720 969 
C 2579 969 2522 943 2464 802 
C 2336 506 2022 455 1862 455 
C 1434 455 1005 734 890 1216 
L 2688 1216 
C 2848 1216 2989 1216 2989 1500 
C 2989 2242 2566 2880 1728 2880 
C 960 2880 333 2227 333 1424 
C 333 628 986 -32 1818 -32 
C 2688 -32 2989 579 2989 748 
z
M 2438 1696 
L 896 1696 
C 998 2099 1331 2393 1728 2393 
C 2022 2393 2368 2252 2438 1696 
z
" transform="scale(0.015625)"/>
       <path id="LMMonoLt10-Bold-46" d="M 3149 3182 
L 3149 3650 
C 3149 3889 3104 3968 2848 3968 
L 474 3968 
C 352 3968 166 3968 166 3724 
C 166 3488 358 3488 474 3488 
L 627 3488 
L 627 480 
L 474 480 
C 352 480 166 480 166 237 
C 166 0 358 0 474 0 
L 1434 0 
C 1549 0 1734 0 1734 237 
C 1734 480 1555 480 1434 480 
L 1158 480 
L 1158 1728 
L 1907 1728 
C 1907 1449 1933 1347 2176 1347 
C 2432 1347 2438 1516 2438 1658 
L 2438 2248 
C 2438 2391 2432 2560 2176 2560 
C 1933 2560 1907 2467 1907 2215 
L 1158 2215 
L 1158 3488 
L 2618 3488 
L 2618 3190 
C 2618 3041 2624 2865 2880 2865 
C 3142 2865 3149 3030 3149 3182 
z
" transform="scale(0.015625)"/>
       <path id="LMMonoLt10-Bold-69" d="M 2931 237 
C 2931 480 2739 480 2624 480 
L 2022 480 
L 2022 2505 
C 2022 2738 1978 2816 1722 2816 
L 838 2816 
C 723 2816 531 2816 531 2583 
C 531 2336 723 2336 838 2336 
L 1491 2336 
L 1491 480 
L 787 480 
C 666 480 480 480 480 237 
C 480 0 672 0 787 0 
L 2624 0 
C 2739 0 2931 0 2931 237 
z
M 2048 3570 
C 2048 3771 1888 3933 1683 3933 
C 1478 3933 1318 3771 1318 3570 
C 1318 3363 1478 3200 1683 3200 
C 1888 3200 2048 3363 2048 3570 
z
" transform="scale(0.015625)"/>
       <path id="LMMonoLt10-Bold-6c" d="M 3008 237 
C 3008 480 2829 480 2707 480 
L 1946 480 
L 1946 3655 
C 1946 3890 1901 3968 1645 3968 
L 659 3968 
C 538 3968 352 3968 352 3724 
C 352 3488 544 3488 653 3488 
L 1414 3488 
L 1414 480 
L 659 480 
C 538 480 352 480 352 237 
C 352 0 544 0 653 0 
L 2707 0 
C 2822 0 3008 0 3008 237 
z
" transform="scale(0.015625)"/>
       <path id="LMMonoLt10-Bold-64" d="M 3290 243 
C 3290 480 3098 480 2989 480 
L 2758 480 
L 2758 3655 
C 2758 3890 2714 3968 2458 3968 
L 2003 3968 
C 1882 3968 1696 3968 1696 3724 
C 1696 3488 1888 3488 1997 3488 
L 2227 3488 
L 2227 2653 
C 2029 2802 1792 2880 1549 2880 
C 845 2880 218 2261 218 1420 
C 218 607 806 -32 1491 -32 
C 1805 -32 2048 97 2227 257 
C 2240 72 2278 0 2528 0 
L 2982 0 
C 3104 0 3290 0 3290 243 
z
M 2221 1291 
C 2221 957 1958 455 1510 455 
C 1088 455 742 886 742 1420 
C 742 2002 1152 2394 1568 2394 
C 1939 2394 2221 2067 2221 1741 
L 2221 1291 
z
" transform="scale(0.015625)"/>
       <path id="LMMonoLt10-Bold-6f" d="M 3008 1418 
C 3008 2240 2400 2880 1677 2880 
C 954 2880 346 2240 346 1418 
C 346 590 966 -32 1677 -32 
C 2387 -32 3008 595 3008 1418 
z
M 2477 1462 
C 2477 906 2112 455 1677 455 
C 1242 455 877 906 877 1462 
C 877 2005 1261 2393 1677 2393 
C 2099 2393 2477 2005 2477 1462 
z
" transform="scale(0.015625)"/>
       <path id="LMMonoLt10-Bold-6d" d="M 3341 237 
C 3341 454 3219 486 2989 486 
L 2989 1961 
C 2989 2097 2976 2854 2381 2854 
C 2202 2854 1958 2783 1773 2569 
C 1664 2757 1491 2854 1293 2854 
C 1107 2854 934 2789 787 2673 
C 742 2816 621 2816 506 2816 
L 307 2816 
C 192 2816 0 2816 0 2586 
C 0 2369 122 2336 352 2336 
L 352 486 
C 122 486 0 454 0 237 
C 0 0 198 0 307 0 
L 851 0 
C 966 0 1139 0 1139 237 
C 1139 454 1037 486 806 486 
L 806 1567 
C 806 2083 1024 2368 1267 2368 
C 1389 2368 1446 2264 1446 1902 
L 1446 486 
C 1312 486 1190 453 1190 240 
C 1190 0 1370 0 1478 0 
L 1946 0 
C 2061 0 2234 0 2234 237 
C 2234 454 2125 486 1894 486 
L 1894 1567 
C 1894 2083 2118 2368 2355 2368 
C 2483 2368 2534 2264 2534 1902 
L 2534 486 
C 2406 486 2285 453 2285 240 
C 2285 0 2464 0 2566 0 
L 3034 0 
C 3149 0 3341 0 3341 237 
z
" transform="scale(0.015625)"/>
      </defs>
      <use xlink:href="#LMMonoLt10-Bold-70" transform="scale(0.996264)"/>
      <use xlink:href="#LMMonoLt10-Bold-68" transform="translate(52.303815 0) scale(0.996264)"/>
      <use xlink:href="#LMMonoLt10-Bold-61" transform="translate(104.60763 0) scale(0.996264)"/>
      <use xlink:href="#LMMonoLt10-Bold-73" transform="translate(156.911445 0) scale(0.996264)"/>
      <use xlink:href="#LMMonoLt10-Bold-65" transform="translate(209.21526 0) scale(0.996264)"/>
      <use xlink:href="#LMMonoLt10-Bold-46" transform="translate(261.519075 0) scale(0.996264)"/>
      <use xlink:href="#LMMonoLt10-Bold-69" transform="translate(313.82289 0) scale(0.996264)"/>
      <use xlink:href="#LMMonoLt10-Bold-65" transform="translate(366.126704 0) scale(0.996264)"/>
      <use xlink:href="#LMMonoLt10-Bold-6c" transform="translate(418.430519 0) scale(0.996264)"/>
      <use xlink:href="#LMMonoLt10-Bold-64" transform="translate(470.734334 0) scale(0.996264)"/>
      <use xlink:href="#LMMonoLt10-Bold-46" transform="translate(523.038149 0) scale(0.996264)"/>
      <use xlink:href="#LMMonoLt10-Bold-6f" transform="translate(575.341964 0) scale(0.996264)"/>
      <use xlink:href="#LMMonoLt10-Bold-61" transform="translate(627.645779 0) scale(0.996264)"/>
      <use xlink:href="#LMMonoLt10-Bold-6d" transform="translate(679.949594 0) scale(0.996264)"/>
     </g>
    </g>
   </g>
  </g>
 </g>
 <defs>
  <clipPath id="p1130b29eca">
   <rect x="57.424369" y="7.2" width="781.2" height="443.52"/>
  </clipPath>
 </defs>
</svg>
