<?xml version="1.0" encoding="utf-8" standalone="no"?>
<!DOCTYPE svg PUBLIC "-//W3C//DTD SVG 1.1//EN"
  "http://www.w3.org/Graphics/SVG/1.1/DTD/svg11.dtd">
<svg xmlns:xlink="http://www.w3.org/1999/xlink" width="843.666126pt" height="515.818825pt" viewBox="0 0 843.666126 515.818825" xmlns="http://www.w3.org/2000/svg" version="1.1">
 <metadata>
  <rdf:RDF xmlns:dc="http://purl.org/dc/elements/1.1/" xmlns:cc="http://creativecommons.org/ns#" xmlns:rdf="http://www.w3.org/1999/02/22-rdf-syntax-ns#">
   <cc:Work>
    <dc:type rdf:resource="http://purl.org/dc/dcmitype/StillImage"/>
    <dc:date>2024-01-16T13:07:42.276114</dc:date>
    <dc:format>image/svg+xml</dc:format>
    <dc:creator>
     <cc:Agent>
      <dc:title>Matplotlib v3.7.2, https://matplotlib.org/</dc:title>
     </cc:Agent>
    </dc:creator>
   </cc:Work>
  </rdf:RDF>
 </metadata>
 <defs>
  <style type="text/css">*{stroke-linejoin: round; stroke-linecap: butt}</style>
 </defs>
 <g id="figure_1">
  <g id="patch_1">
   <path d="M 0 515.818825 
L 843.666126 515.818825 
L 843.666126 0 
L 0 0 
z
" style="fill: #ffffff"/>
  </g>
  <g id="axes_1">
   <g id="patch_2">
    <path d="M 55.266126 466.139005 
L 836.466126 466.139005 
L 836.466126 22.619005 
L 55.266126 22.619005 
z
" style="fill: #ffffff"/>
   </g>
   <g id="matplotlib.axis_1">
    <g id="xtick_1">
     <g id="line2d_1">
      <path d="M 274.695671 466.139005 
L 274.695671 22.619005 
" clip-path="url(#p34b555451b)" style="fill: none; stroke: #b0b0b0; stroke-width: 0.7; stroke-linecap: square"/>
     </g>
     <g id="line2d_2">
      <defs>
       <path id="m828746ce4b" d="M 0 0 
L 0 3.5 
" style="stroke: #000000; stroke-width: 0.8"/>
      </defs>
      <g>
       <use xlink:href="#m828746ce4b" x="274.695671" y="466.139005" style="stroke: #000000; stroke-width: 0.8"/>
      </g>
     </g>
     <g id="text_1">
      <!-- $\mathdefault{10^{-9}}$ -->
      <g transform="translate(258.516786 485.390973) scale(0.18 -0.18)">
       <defs>
        <path id="LMRoman17-Regular-31" d="M 2458 0 
L 2458 160 
L 2266 160 
C 1715 160 1702 230 1702 458 
L 1702 4058 
C 1702 4192 1696 4192 1606 4192 
C 1357 3916 979 3827 621 3827 
C 602 3827 570 3827 563 3808 
C 557 3795 557 3782 557 3648 
C 755 3648 1088 3686 1344 3839 
L 1344 461 
C 1344 236 1331 160 781 160 
L 589 160 
L 589 0 
L 1523 0 
L 2458 0 
z
" transform="scale(0.015625)"/>
        <path id="LMRoman17-Regular-30" d="M 2688 2025 
C 2688 2416 2682 3080 2413 3591 
C 2176 4039 1798 4198 1466 4198 
C 1158 4198 768 4058 525 3597 
C 269 3118 243 2524 243 2025 
C 243 1661 250 1106 448 619 
C 723 -39 1216 -128 1466 -128 
C 1760 -128 2208 -7 2470 600 
C 2662 1042 2688 1559 2688 2025 
z
M 2278 2096 
C 2278 1680 2278 1169 2202 792 
C 2067 95 1690 -26 1466 -26 
C 1056 -26 813 325 723 812 
C 653 1188 653 1738 653 2096 
C 653 2588 653 2997 736 3387 
C 858 3929 1216 4096 1466 4096 
C 1728 4096 2067 3923 2189 3400 
C 2272 3036 2278 2607 2278 2096 
z
" transform="scale(0.015625)"/>
        <path id="LMMathSymbols10-Regular-0" d="M 4442 1600 
C 4442 1728 4320 1728 4230 1728 
L 742 1728 
C 653 1728 531 1728 531 1600 
C 531 1472 653 1472 742 1472 
L 4230 1472 
C 4320 1472 4442 1472 4442 1600 
z
" transform="scale(0.015625)"/>
        <path id="LMRoman17-Regular-39" d="M 2688 2073 
C 2688 3817 1971 4179 1485 4179 
C 851 4179 243 3628 243 2778 
C 243 1991 762 1408 1414 1408 
C 1952 1408 2189 1903 2253 2112 
L 2253 1864 
C 2253 464 1670 31 1190 31 
C 1043 31 685 31 538 294 
C 704 268 826 357 826 518 
C 826 692 685 749 595 749 
C 538 749 365 723 365 506 
C 365 71 742 -128 1203 -128 
C 1939 -128 2688 674 2688 2073 
z
M 2240 2632 
C 2240 2182 2035 1510 1427 1510 
C 1254 1510 1011 1542 813 1922 
C 678 2169 678 2461 678 2771 
C 678 3146 678 3405 858 3684 
C 947 3817 1114 4032 1485 4032 
C 2240 4032 2240 2885 2240 2632 
z
" transform="scale(0.015625)"/>
       </defs>
       <use xlink:href="#LMRoman17-Regular-31" transform="scale(0.996264)"/>
       <use xlink:href="#LMRoman17-Regular-30" transform="translate(45.690948 0) scale(0.996264)"/>
       <use xlink:href="#LMMathSymbols10-Regular-0" transform="translate(91.381897 36.153639) scale(0.697382)"/>
       <use xlink:href="#LMRoman17-Regular-39" transform="translate(145.62289 36.153639) scale(0.697382)"/>
      </g>
     </g>
    </g>
    <g id="xtick_2">
     <g id="line2d_3">
      <path d="M 537.826353 466.139005 
L 537.826353 22.619005 
" clip-path="url(#p34b555451b)" style="fill: none; stroke: #b0b0b0; stroke-width: 0.7; stroke-linecap: square"/>
     </g>
     <g id="line2d_4">
      <g>
       <use xlink:href="#m828746ce4b" x="537.826353" y="466.139005" style="stroke: #000000; stroke-width: 0.8"/>
      </g>
     </g>
     <g id="text_2">
      <!-- $\mathdefault{10^{-8}}$ -->
      <g transform="translate(521.647468 485.390973) scale(0.18 -0.18)">
       <defs>
        <path id="LMRoman17-Regular-38" d="M 2720 1011 
C 2720 1590 2330 1858 2074 2029 
C 1984 2092 1933 2124 1741 2264 
C 2144 2468 2554 2773 2554 3263 
C 2554 3842 1990 4179 1472 4179 
C 890 4179 378 3759 378 3180 
C 378 3021 416 2747 666 2505 
C 730 2442 998 2251 1171 2130 
C 883 1983 211 1634 211 934 
C 211 279 838 -128 1459 -128 
C 2144 -128 2720 362 2720 1011 
z
M 2336 3262 
C 2336 2669 1670 2331 1638 2331 
C 1638 2331 1626 2331 1574 2370 
L 902 2822 
C 851 2854 595 3051 595 3351 
C 595 3739 998 4032 1459 4032 
C 1965 4032 2336 3676 2336 3262 
z
M 2483 851 
C 2483 381 2010 25 1472 25 
C 890 25 448 438 448 940 
C 448 1443 838 1862 1280 2060 
L 2080 1519 
C 2176 1449 2483 1240 2483 851 
z
" transform="scale(0.015625)"/>
       </defs>
       <use xlink:href="#LMRoman17-Regular-31" transform="scale(0.996264)"/>
       <use xlink:href="#LMRoman17-Regular-30" transform="translate(45.690948 0) scale(0.996264)"/>
       <use xlink:href="#LMMathSymbols10-Regular-0" transform="translate(91.381897 36.153639) scale(0.697382)"/>
       <use xlink:href="#LMRoman17-Regular-38" transform="translate(145.62289 36.153639) scale(0.697382)"/>
      </g>
     </g>
    </g>
    <g id="xtick_3">
     <g id="line2d_5">
      <path d="M 800.957035 466.139005 
L 800.957035 22.619005 
" clip-path="url(#p34b555451b)" style="fill: none; stroke: #b0b0b0; stroke-width: 0.7; stroke-linecap: square"/>
     </g>
     <g id="line2d_6">
      <g>
       <use xlink:href="#m828746ce4b" x="800.957035" y="466.139005" style="stroke: #000000; stroke-width: 0.8"/>
      </g>
     </g>
     <g id="text_3">
      <!-- $\mathdefault{10^{-7}}$ -->
      <g transform="translate(784.77815 485.390973) scale(0.18 -0.18)">
       <defs>
        <path id="LMRoman17-Regular-37" d="M 2886 3941 
L 2886 4081 
L 1382 4081 
C 634 4081 621 4165 595 4288 
L 480 4288 
L 294 3094 
L 410 3094 
C 429 3215 474 3540 550 3661 
C 589 3712 1062 3712 1171 3712 
L 2579 3712 
L 1869 2661 
C 1395 1954 1069 999 1069 165 
C 1069 89 1069 -128 1299 -128 
C 1530 -128 1530 89 1530 171 
L 1530 465 
C 1530 1508 1709 2196 2003 2636 
L 2886 3941 
z
" transform="scale(0.015625)"/>
       </defs>
       <use xlink:href="#LMRoman17-Regular-31" transform="scale(0.996264)"/>
       <use xlink:href="#LMRoman17-Regular-30" transform="translate(45.690948 0) scale(0.996264)"/>
       <use xlink:href="#LMMathSymbols10-Regular-0" transform="translate(91.381897 36.153639) scale(0.697382)"/>
       <use xlink:href="#LMRoman17-Regular-37" transform="translate(145.62289 36.153639) scale(0.697382)"/>
      </g>
     </g>
    </g>
    <g id="xtick_4">
     <g id="line2d_7">
      <path d="M 90.775217 466.139005 
L 90.775217 22.619005 
" clip-path="url(#p34b555451b)" style="fill: none; stroke-dasharray: 1.85,0.8; stroke-dashoffset: 0; stroke: #b0b0b0; stroke-width: 0.5"/>
     </g>
     <g id="line2d_8">
      <defs>
       <path id="mb3826b8941" d="M 0 0 
L 0 2 
" style="stroke: #000000; stroke-width: 0.6"/>
      </defs>
      <g>
       <use xlink:href="#mb3826b8941" x="90.775217" y="466.139005" style="stroke: #000000; stroke-width: 0.6"/>
      </g>
     </g>
    </g>
    <g id="xtick_5">
     <g id="line2d_9">
      <path d="M 137.11023 466.139005 
L 137.11023 22.619005 
" clip-path="url(#p34b555451b)" style="fill: none; stroke-dasharray: 1.85,0.8; stroke-dashoffset: 0; stroke: #b0b0b0; stroke-width: 0.5"/>
     </g>
     <g id="line2d_10">
      <g>
       <use xlink:href="#mb3826b8941" x="137.11023" y="466.139005" style="stroke: #000000; stroke-width: 0.6"/>
      </g>
     </g>
    </g>
    <g id="xtick_6">
     <g id="line2d_11">
      <path d="M 169.985445 466.139005 
L 169.985445 22.619005 
" clip-path="url(#p34b555451b)" style="fill: none; stroke-dasharray: 1.85,0.8; stroke-dashoffset: 0; stroke: #b0b0b0; stroke-width: 0.5"/>
     </g>
     <g id="line2d_12">
      <g>
       <use xlink:href="#mb3826b8941" x="169.985445" y="466.139005" style="stroke: #000000; stroke-width: 0.6"/>
      </g>
     </g>
    </g>
    <g id="xtick_7">
     <g id="line2d_13">
      <path d="M 195.485443 466.139005 
L 195.485443 22.619005 
" clip-path="url(#p34b555451b)" style="fill: none; stroke-dasharray: 1.85,0.8; stroke-dashoffset: 0; stroke: #b0b0b0; stroke-width: 0.5"/>
     </g>
     <g id="line2d_14">
      <g>
       <use xlink:href="#mb3826b8941" x="195.485443" y="466.139005" style="stroke: #000000; stroke-width: 0.6"/>
      </g>
     </g>
    </g>
    <g id="xtick_8">
     <g id="line2d_15">
      <path d="M 216.320458 466.139005 
L 216.320458 22.619005 
" clip-path="url(#p34b555451b)" style="fill: none; stroke-dasharray: 1.85,0.8; stroke-dashoffset: 0; stroke: #b0b0b0; stroke-width: 0.5"/>
     </g>
     <g id="line2d_16">
      <g>
       <use xlink:href="#mb3826b8941" x="216.320458" y="466.139005" style="stroke: #000000; stroke-width: 0.6"/>
      </g>
     </g>
    </g>
    <g id="xtick_9">
     <g id="line2d_17">
      <path d="M 233.936212 466.139005 
L 233.936212 22.619005 
" clip-path="url(#p34b555451b)" style="fill: none; stroke-dasharray: 1.85,0.8; stroke-dashoffset: 0; stroke: #b0b0b0; stroke-width: 0.5"/>
     </g>
     <g id="line2d_18">
      <g>
       <use xlink:href="#mb3826b8941" x="233.936212" y="466.139005" style="stroke: #000000; stroke-width: 0.6"/>
      </g>
     </g>
    </g>
    <g id="xtick_10">
     <g id="line2d_19">
      <path d="M 249.195673 466.139005 
L 249.195673 22.619005 
" clip-path="url(#p34b555451b)" style="fill: none; stroke-dasharray: 1.85,0.8; stroke-dashoffset: 0; stroke: #b0b0b0; stroke-width: 0.5"/>
     </g>
     <g id="line2d_20">
      <g>
       <use xlink:href="#mb3826b8941" x="249.195673" y="466.139005" style="stroke: #000000; stroke-width: 0.6"/>
      </g>
     </g>
    </g>
    <g id="xtick_11">
     <g id="line2d_21">
      <path d="M 262.655471 466.139005 
L 262.655471 22.619005 
" clip-path="url(#p34b555451b)" style="fill: none; stroke-dasharray: 1.85,0.8; stroke-dashoffset: 0; stroke: #b0b0b0; stroke-width: 0.5"/>
     </g>
     <g id="line2d_22">
      <g>
       <use xlink:href="#mb3826b8941" x="262.655471" y="466.139005" style="stroke: #000000; stroke-width: 0.6"/>
      </g>
     </g>
    </g>
    <g id="xtick_12">
     <g id="line2d_23">
      <path d="M 353.905899 466.139005 
L 353.905899 22.619005 
" clip-path="url(#p34b555451b)" style="fill: none; stroke-dasharray: 1.85,0.8; stroke-dashoffset: 0; stroke: #b0b0b0; stroke-width: 0.5"/>
     </g>
     <g id="line2d_24">
      <g>
       <use xlink:href="#mb3826b8941" x="353.905899" y="466.139005" style="stroke: #000000; stroke-width: 0.6"/>
      </g>
     </g>
    </g>
    <g id="xtick_13">
     <g id="line2d_25">
      <path d="M 400.240912 466.139005 
L 400.240912 22.619005 
" clip-path="url(#p34b555451b)" style="fill: none; stroke-dasharray: 1.85,0.8; stroke-dashoffset: 0; stroke: #b0b0b0; stroke-width: 0.5"/>
     </g>
     <g id="line2d_26">
      <g>
       <use xlink:href="#mb3826b8941" x="400.240912" y="466.139005" style="stroke: #000000; stroke-width: 0.6"/>
      </g>
     </g>
    </g>
    <g id="xtick_14">
     <g id="line2d_27">
      <path d="M 433.116127 466.139005 
L 433.116127 22.619005 
" clip-path="url(#p34b555451b)" style="fill: none; stroke-dasharray: 1.85,0.8; stroke-dashoffset: 0; stroke: #b0b0b0; stroke-width: 0.5"/>
     </g>
     <g id="line2d_28">
      <g>
       <use xlink:href="#mb3826b8941" x="433.116127" y="466.139005" style="stroke: #000000; stroke-width: 0.6"/>
      </g>
     </g>
    </g>
    <g id="xtick_15">
     <g id="line2d_29">
      <path d="M 458.616125 466.139005 
L 458.616125 22.619005 
" clip-path="url(#p34b555451b)" style="fill: none; stroke-dasharray: 1.85,0.8; stroke-dashoffset: 0; stroke: #b0b0b0; stroke-width: 0.5"/>
     </g>
     <g id="line2d_30">
      <g>
       <use xlink:href="#mb3826b8941" x="458.616125" y="466.139005" style="stroke: #000000; stroke-width: 0.6"/>
      </g>
     </g>
    </g>
    <g id="xtick_16">
     <g id="line2d_31">
      <path d="M 479.45114 466.139005 
L 479.45114 22.619005 
" clip-path="url(#p34b555451b)" style="fill: none; stroke-dasharray: 1.85,0.8; stroke-dashoffset: 0; stroke: #b0b0b0; stroke-width: 0.5"/>
     </g>
     <g id="line2d_32">
      <g>
       <use xlink:href="#mb3826b8941" x="479.45114" y="466.139005" style="stroke: #000000; stroke-width: 0.6"/>
      </g>
     </g>
    </g>
    <g id="xtick_17">
     <g id="line2d_33">
      <path d="M 497.066895 466.139005 
L 497.066895 22.619005 
" clip-path="url(#p34b555451b)" style="fill: none; stroke-dasharray: 1.85,0.8; stroke-dashoffset: 0; stroke: #b0b0b0; stroke-width: 0.5"/>
     </g>
     <g id="line2d_34">
      <g>
       <use xlink:href="#mb3826b8941" x="497.066895" y="466.139005" style="stroke: #000000; stroke-width: 0.6"/>
      </g>
     </g>
    </g>
    <g id="xtick_18">
     <g id="line2d_35">
      <path d="M 512.326355 466.139005 
L 512.326355 22.619005 
" clip-path="url(#p34b555451b)" style="fill: none; stroke-dasharray: 1.85,0.8; stroke-dashoffset: 0; stroke: #b0b0b0; stroke-width: 0.5"/>
     </g>
     <g id="line2d_36">
      <g>
       <use xlink:href="#mb3826b8941" x="512.326355" y="466.139005" style="stroke: #000000; stroke-width: 0.6"/>
      </g>
     </g>
    </g>
    <g id="xtick_19">
     <g id="line2d_37">
      <path d="M 525.786153 466.139005 
L 525.786153 22.619005 
" clip-path="url(#p34b555451b)" style="fill: none; stroke-dasharray: 1.85,0.8; stroke-dashoffset: 0; stroke: #b0b0b0; stroke-width: 0.5"/>
     </g>
     <g id="line2d_38">
      <g>
       <use xlink:href="#mb3826b8941" x="525.786153" y="466.139005" style="stroke: #000000; stroke-width: 0.6"/>
      </g>
     </g>
    </g>
    <g id="xtick_20">
     <g id="line2d_39">
      <path d="M 617.036581 466.139005 
L 617.036581 22.619005 
" clip-path="url(#p34b555451b)" style="fill: none; stroke-dasharray: 1.85,0.8; stroke-dashoffset: 0; stroke: #b0b0b0; stroke-width: 0.5"/>
     </g>
     <g id="line2d_40">
      <g>
       <use xlink:href="#mb3826b8941" x="617.036581" y="466.139005" style="stroke: #000000; stroke-width: 0.6"/>
      </g>
     </g>
    </g>
    <g id="xtick_21">
     <g id="line2d_41">
      <path d="M 663.371594 466.139005 
L 663.371594 22.619005 
" clip-path="url(#p34b555451b)" style="fill: none; stroke-dasharray: 1.85,0.8; stroke-dashoffset: 0; stroke: #b0b0b0; stroke-width: 0.5"/>
     </g>
     <g id="line2d_42">
      <g>
       <use xlink:href="#mb3826b8941" x="663.371594" y="466.139005" style="stroke: #000000; stroke-width: 0.6"/>
      </g>
     </g>
    </g>
    <g id="xtick_22">
     <g id="line2d_43">
      <path d="M 696.246809 466.139005 
L 696.246809 22.619005 
" clip-path="url(#p34b555451b)" style="fill: none; stroke-dasharray: 1.85,0.8; stroke-dashoffset: 0; stroke: #b0b0b0; stroke-width: 0.5"/>
     </g>
     <g id="line2d_44">
      <g>
       <use xlink:href="#mb3826b8941" x="696.246809" y="466.139005" style="stroke: #000000; stroke-width: 0.6"/>
      </g>
     </g>
    </g>
    <g id="xtick_23">
     <g id="line2d_45">
      <path d="M 721.746807 466.139005 
L 721.746807 22.619005 
" clip-path="url(#p34b555451b)" style="fill: none; stroke-dasharray: 1.85,0.8; stroke-dashoffset: 0; stroke: #b0b0b0; stroke-width: 0.5"/>
     </g>
     <g id="line2d_46">
      <g>
       <use xlink:href="#mb3826b8941" x="721.746807" y="466.139005" style="stroke: #000000; stroke-width: 0.6"/>
      </g>
     </g>
    </g>
    <g id="xtick_24">
     <g id="line2d_47">
      <path d="M 742.581822 466.139005 
L 742.581822 22.619005 
" clip-path="url(#p34b555451b)" style="fill: none; stroke-dasharray: 1.85,0.8; stroke-dashoffset: 0; stroke: #b0b0b0; stroke-width: 0.5"/>
     </g>
     <g id="line2d_48">
      <g>
       <use xlink:href="#mb3826b8941" x="742.581822" y="466.139005" style="stroke: #000000; stroke-width: 0.6"/>
      </g>
     </g>
    </g>
    <g id="xtick_25">
     <g id="line2d_49">
      <path d="M 760.197577 466.139005 
L 760.197577 22.619005 
" clip-path="url(#p34b555451b)" style="fill: none; stroke-dasharray: 1.85,0.8; stroke-dashoffset: 0; stroke: #b0b0b0; stroke-width: 0.5"/>
     </g>
     <g id="line2d_50">
      <g>
       <use xlink:href="#mb3826b8941" x="760.197577" y="466.139005" style="stroke: #000000; stroke-width: 0.6"/>
      </g>
     </g>
    </g>
    <g id="xtick_26">
     <g id="line2d_51">
      <path d="M 775.457037 466.139005 
L 775.457037 22.619005 
" clip-path="url(#p34b555451b)" style="fill: none; stroke-dasharray: 1.85,0.8; stroke-dashoffset: 0; stroke: #b0b0b0; stroke-width: 0.5"/>
     </g>
     <g id="line2d_52">
      <g>
       <use xlink:href="#mb3826b8941" x="775.457037" y="466.139005" style="stroke: #000000; stroke-width: 0.6"/>
      </g>
     </g>
    </g>
    <g id="xtick_27">
     <g id="line2d_53">
      <path d="M 788.916835 466.139005 
L 788.916835 22.619005 
" clip-path="url(#p34b555451b)" style="fill: none; stroke-dasharray: 1.85,0.8; stroke-dashoffset: 0; stroke: #b0b0b0; stroke-width: 0.5"/>
     </g>
     <g id="line2d_54">
      <g>
       <use xlink:href="#mb3826b8941" x="788.916835" y="466.139005" style="stroke: #000000; stroke-width: 0.6"/>
      </g>
     </g>
    </g>
    <g id="text_4">
     <!-- Time in s -->
     <g transform="translate(411.619938 505.130883) scale(0.18 -0.18)">
      <defs>
       <path id="LMRoman17-Regular-54" d="M 4090 2918 
L 3981 4326 
L 288 4326 
L 179 2918 
L 294 2918 
C 378 3976 467 4160 1453 4160 
C 1568 4160 1754 4160 1805 4154 
C 1926 4135 1926 4058 1926 3912 
L 1926 459 
C 1926 230 1907 160 1376 160 
L 1197 160 
L 1197 0 
L 2138 0 
L 3078 0 
L 3078 160 
L 2899 160 
C 2368 160 2349 230 2349 459 
L 2349 3912 
C 2349 4052 2349 4129 2464 4154 
C 2515 4160 2701 4160 2816 4160 
C 3795 4160 3891 3976 3974 2918 
L 4090 2918 
z
" transform="scale(0.015625)"/>
       <path id="LMRoman17-Regular-69" d="M 1370 -13 
L 1370 153 
C 992 153 979 191 979 420 
L 979 2778 
L 243 2708 
L 243 2542 
C 602 2542 653 2503 653 2198 
L 653 427 
C 653 184 627 153 218 153 
L 218 -13 
C 371 0 646 0 806 0 
C 960 0 1222 0 1370 -13 
z
M 1056 3835 
C 1056 3988 934 4096 800 4096 
C 646 4096 538 3975 538 3835 
C 538 3682 659 3574 794 3574 
C 947 3574 1056 3695 1056 3835 
z
" transform="scale(0.015625)"/>
       <path id="LMRoman17-Regular-6d" d="M 4762 -13 
L 4762 153 
C 4352 153 4326 178 4326 428 
L 4326 1933 
C 4326 2252 4269 2790 3507 2790 
C 3072 2790 2771 2496 2656 2151 
L 2650 2151 
C 2573 2676 2195 2790 1837 2790 
C 1331 2790 1069 2400 973 2144 
L 966 2144 
L 966 2790 
L 211 2720 
L 211 2554 
C 589 2554 646 2515 646 2208 
L 646 428 
C 646 184 621 153 211 153 
L 211 -13 
C 365 0 646 0 813 0 
C 979 0 1267 0 1421 -13 
L 1421 153 
C 1011 153 986 178 986 428 
L 986 1658 
C 986 2247 1344 2688 1792 2688 
C 2266 2688 2317 2266 2317 1958 
L 2317 428 
C 2317 184 2291 153 1882 153 
L 1882 -13 
C 2035 0 2317 0 2483 0 
C 2650 0 2938 0 3091 -13 
L 3091 153 
C 2682 153 2656 178 2656 428 
L 2656 1658 
C 2656 2247 3014 2688 3462 2688 
C 3936 2688 3987 2266 3987 1958 
L 3987 428 
C 3987 184 3962 153 3552 153 
L 3552 -13 
C 3706 0 3987 0 4154 0 
C 4320 0 4608 0 4762 -13 
z
" transform="scale(0.015625)"/>
       <path id="LMRoman17-Regular-65" d="M 2464 1576 
C 2464 2238 2118 2816 1389 2816 
C 710 2816 173 2169 173 1383 
C 173 551 781 -64 1459 -64 
C 2176 -64 2458 606 2458 739 
C 2458 784 2406 784 2406 784 
C 2362 784 2355 771 2330 695 
C 2189 265 1837 51 1504 51 
C 1229 51 954 203 781 480 
C 582 803 582 1176 582 1472 
L 2438 1472 
C 2464 1498 2464 1511 2464 1576 
z
M 2118 1568 
L 589 1568 
C 634 2505 1126 2714 1382 2714 
C 1818 2714 2112 2297 2118 1568 
z
" transform="scale(0.015625)"/>
       <path id="LMRoman17-Regular-6e" d="M 3091 -13 
L 3091 153 
C 2682 153 2656 178 2656 428 
L 2656 1933 
C 2656 2259 2592 2790 1837 2790 
C 1331 2790 1069 2400 973 2144 
L 966 2144 
L 966 2790 
L 211 2720 
L 211 2554 
C 589 2554 646 2515 646 2208 
L 646 428 
C 646 184 621 153 211 153 
L 211 -13 
C 365 0 646 0 813 0 
C 979 0 1267 0 1421 -13 
L 1421 153 
C 1011 153 986 178 986 428 
L 986 1658 
C 986 2247 1344 2688 1792 2688 
C 2266 2688 2317 2266 2317 1958 
L 2317 428 
C 2317 184 2291 153 1882 153 
L 1882 -13 
C 2035 0 2317 0 2483 0 
C 2650 0 2938 0 3091 -13 
z
" transform="scale(0.015625)"/>
       <path id="LMRoman17-Regular-73" d="M 2131 784 
C 2131 1112 1958 1285 1875 1362 
C 1683 1561 1459 1606 1190 1657 
C 838 1735 390 1825 390 2217 
C 390 2383 480 2737 1126 2737 
C 1811 2737 1850 2094 1862 1888 
C 1869 1856 1901 1849 1920 1849 
C 1978 1849 1978 1869 1978 1978 
L 1978 2697 
C 1978 2813 1971 2819 1933 2819 
C 1907 2819 1901 2813 1824 2717 
C 1805 2691 1747 2626 1728 2601 
C 1523 2819 1235 2819 1126 2819 
C 416 2819 160 2447 160 2076 
C 160 1498 813 1365 998 1325 
C 1402 1243 1542 1217 1677 1101 
C 1760 1025 1901 884 1901 654 
C 1901 384 1747 38 1158 38 
C 602 38 403 460 288 1021 
C 269 1110 269 1117 218 1117 
C 166 1117 160 1110 160 983 
L 160 63 
C 160 -51 166 -58 205 -58 
C 237 -58 243 -51 275 0 
L 448 276 
C 576 103 800 -64 1158 -64 
C 1792 -64 2131 283 2131 784 
z
" transform="scale(0.015625)"/>
      </defs>
      <use xlink:href="#LMRoman17-Regular-54" transform="scale(0.996264)"/>
      <use xlink:href="#LMRoman17-Regular-69" transform="translate(66.509789 0) scale(0.996264)"/>
      <use xlink:href="#LMRoman17-Regular-6d" transform="translate(91.381806 0) scale(0.996264)"/>
      <use xlink:href="#LMRoman17-Regular-65" transform="translate(168.303965 0) scale(0.996264)"/>
      <use xlink:href="#LMRoman17-Regular-69" transform="translate(238.864922 0) scale(0.996264)"/>
      <use xlink:href="#LMRoman17-Regular-6e" transform="translate(263.736939 0) scale(0.996264)"/>
      <use xlink:href="#LMRoman17-Regular-73" transform="translate(344.710175 0) scale(0.996264)"/>
     </g>
    </g>
   </g>
   <g id="matplotlib.axis_2">
    <g id="ytick_1">
     <g id="line2d_55">
      <path d="M 55.266126 447.335323 
L 836.466126 447.335323 
" clip-path="url(#p34b555451b)" style="fill: none; stroke: #b0b0b0; stroke-width: 0.7; stroke-linecap: square"/>
     </g>
     <g id="line2d_56">
      <defs>
       <path id="mb390458ac5" d="M 0 0 
L -3.5 0 
" style="stroke: #000000; stroke-width: 0.8"/>
      </defs>
      <g>
       <use xlink:href="#mb390458ac5" x="55.266126" y="447.335323" style="stroke: #000000; stroke-width: 0.8"/>
      </g>
     </g>
     <g id="text_5">
      <!-- $\mathdefault{0.0}$ -->
      <g transform="translate(26.93991 453.461306) scale(0.18 -0.18)">
       <defs>
        <path id="LMMathItalic12-Regular-3a" d="M 1178 307 
C 1178 492 1024 619 870 619 
C 685 619 557 466 557 313 
C 557 128 710 0 864 0 
C 1050 0 1178 153 1178 307 
z
" transform="scale(0.015625)"/>
       </defs>
       <use xlink:href="#LMRoman17-Regular-30" transform="scale(0.996264)"/>
       <use xlink:href="#LMMathItalic12-Regular-3a" transform="translate(45.690948 0) scale(0.996264)"/>
       <use xlink:href="#LMRoman17-Regular-30" transform="translate(72.788125 0) scale(0.996264)"/>
      </g>
     </g>
    </g>
    <g id="ytick_2">
     <g id="line2d_57">
      <path d="M 55.266126 392.93384 
L 836.466126 392.93384 
" clip-path="url(#p34b555451b)" style="fill: none; stroke: #b0b0b0; stroke-width: 0.7; stroke-linecap: square"/>
     </g>
     <g id="line2d_58">
      <g>
       <use xlink:href="#mb390458ac5" x="55.266126" y="392.93384" style="stroke: #000000; stroke-width: 0.8"/>
      </g>
     </g>
     <g id="text_6">
      <!-- $\mathdefault{0.2}$ -->
      <g transform="translate(26.93991 399.059824) scale(0.18 -0.18)">
       <defs>
        <path id="LMRoman17-Regular-32" d="M 2669 989 
L 2554 989 
C 2490 536 2438 459 2413 420 
C 2381 369 1920 369 1830 369 
L 602 369 
L 1824 1597 
C 2214 1967 2669 2402 2669 3035 
C 2669 3790 2067 4224 1395 4224 
C 691 4224 262 3604 262 3030 
C 262 2780 448 2748 525 2748 
C 589 2748 781 2787 781 3010 
C 781 3207 614 3264 525 3264 
C 486 3264 448 3258 422 3245 
C 544 3790 915 4058 1306 4058 
C 1862 4058 2227 3617 2227 3035 
C 2227 2479 1901 2000 1536 1584 
L 262 146 
L 262 0 
L 2515 0 
L 2669 989 
z
" transform="scale(0.015625)"/>
       </defs>
       <use xlink:href="#LMRoman17-Regular-30" transform="scale(0.996264)"/>
       <use xlink:href="#LMMathItalic12-Regular-3a" transform="translate(45.690948 0) scale(0.996264)"/>
       <use xlink:href="#LMRoman17-Regular-32" transform="translate(72.788125 0) scale(0.996264)"/>
      </g>
     </g>
    </g>
    <g id="ytick_3">
     <g id="line2d_59">
      <path d="M 55.266126 338.532358 
L 836.466126 338.532358 
" clip-path="url(#p34b555451b)" style="fill: none; stroke: #b0b0b0; stroke-width: 0.7; stroke-linecap: square"/>
     </g>
     <g id="line2d_60">
      <g>
       <use xlink:href="#mb390458ac5" x="55.266126" y="338.532358" style="stroke: #000000; stroke-width: 0.8"/>
      </g>
     </g>
     <g id="text_7">
      <!-- $\mathdefault{0.4}$ -->
      <g transform="translate(26.93991 344.658342) scale(0.18 -0.18)">
       <defs>
        <path id="LMRoman17-Regular-34" d="M 2803 1114 
L 2803 1280 
L 2150 1280 
L 2150 4154 
C 2150 4288 2144 4288 2029 4288 
L 128 1280 
L 128 1114 
L 1779 1114 
L 1779 487 
C 1779 255 1766 192 1318 192 
L 1197 192 
L 1197 32 
C 1402 32 1747 32 1965 32 
C 2182 32 2528 32 2733 32 
L 2733 192 
L 2611 192 
C 2163 192 2150 255 2150 487 
L 2150 1114 
L 2803 1114 
z
M 1798 1280 
L 256 1280 
L 1798 3734 
L 1798 1280 
z
" transform="scale(0.015625)"/>
       </defs>
       <use xlink:href="#LMRoman17-Regular-30" transform="scale(0.996264)"/>
       <use xlink:href="#LMMathItalic12-Regular-3a" transform="translate(45.690948 0) scale(0.996264)"/>
       <use xlink:href="#LMRoman17-Regular-34" transform="translate(72.788125 0) scale(0.996264)"/>
      </g>
     </g>
    </g>
    <g id="ytick_4">
     <g id="line2d_61">
      <path d="M 55.266126 284.130876 
L 836.466126 284.130876 
" clip-path="url(#p34b555451b)" style="fill: none; stroke: #b0b0b0; stroke-width: 0.7; stroke-linecap: square"/>
     </g>
     <g id="line2d_62">
      <g>
       <use xlink:href="#mb390458ac5" x="55.266126" y="284.130876" style="stroke: #000000; stroke-width: 0.8"/>
      </g>
     </g>
     <g id="text_8">
      <!-- $\mathdefault{0.6}$ -->
      <g transform="translate(26.93991 290.256859) scale(0.18 -0.18)">
       <defs>
        <path id="LMRoman17-Regular-36" d="M 2688 1283 
C 2688 2081 2170 2662 1517 2662 
C 1126 2662 838 2407 678 1960 
L 678 2176 
C 678 3690 1395 4032 1811 4032 
C 1946 4032 2272 4009 2400 3776 
C 2298 3776 2106 3776 2106 3553 
C 2106 3381 2246 3323 2336 3323 
C 2394 3323 2566 3348 2566 3560 
C 2566 3954 2246 4179 1805 4179 
C 1043 4179 243 3390 243 1984 
C 243 253 966 -128 1478 -128 
C 2099 -128 2688 427 2688 1283 
z
M 2253 1289 
C 2253 944 2253 690 2118 434 
C 1978 171 1773 25 1478 25 
C 691 25 691 1200 691 1436 
C 691 1896 909 2560 1504 2560 
C 1613 2560 1926 2560 2138 2120 
C 2253 1870 2253 1609 2253 1289 
z
" transform="scale(0.015625)"/>
       </defs>
       <use xlink:href="#LMRoman17-Regular-30" transform="scale(0.996264)"/>
       <use xlink:href="#LMMathItalic12-Regular-3a" transform="translate(45.690948 0) scale(0.996264)"/>
       <use xlink:href="#LMRoman17-Regular-36" transform="translate(72.788125 0) scale(0.996264)"/>
      </g>
     </g>
    </g>
    <g id="ytick_5">
     <g id="line2d_63">
      <path d="M 55.266126 229.729393 
L 836.466126 229.729393 
" clip-path="url(#p34b555451b)" style="fill: none; stroke: #b0b0b0; stroke-width: 0.7; stroke-linecap: square"/>
     </g>
     <g id="line2d_64">
      <g>
       <use xlink:href="#mb390458ac5" x="55.266126" y="229.729393" style="stroke: #000000; stroke-width: 0.8"/>
      </g>
     </g>
     <g id="text_9">
      <!-- $\mathdefault{0.8}$ -->
      <g transform="translate(26.93991 235.855377) scale(0.18 -0.18)">
       <use xlink:href="#LMRoman17-Regular-30" transform="scale(0.996264)"/>
       <use xlink:href="#LMMathItalic12-Regular-3a" transform="translate(45.690948 0) scale(0.996264)"/>
       <use xlink:href="#LMRoman17-Regular-38" transform="translate(72.788125 0) scale(0.996264)"/>
      </g>
     </g>
    </g>
    <g id="ytick_6">
     <g id="line2d_65">
      <path d="M 55.266126 175.327911 
L 836.466126 175.327911 
" clip-path="url(#p34b555451b)" style="fill: none; stroke: #b0b0b0; stroke-width: 0.7; stroke-linecap: square"/>
     </g>
     <g id="line2d_66">
      <g>
       <use xlink:href="#mb390458ac5" x="55.266126" y="175.327911" style="stroke: #000000; stroke-width: 0.8"/>
      </g>
     </g>
     <g id="text_10">
      <!-- $\mathdefault{1.0}$ -->
      <g transform="translate(26.93991 181.453895) scale(0.18 -0.18)">
       <use xlink:href="#LMRoman17-Regular-31" transform="scale(0.996264)"/>
       <use xlink:href="#LMMathItalic12-Regular-3a" transform="translate(45.690948 0) scale(0.996264)"/>
       <use xlink:href="#LMRoman17-Regular-30" transform="translate(72.788125 0) scale(0.996264)"/>
      </g>
     </g>
    </g>
    <g id="ytick_7">
     <g id="line2d_67">
      <path d="M 55.266126 120.926429 
L 836.466126 120.926429 
" clip-path="url(#p34b555451b)" style="fill: none; stroke: #b0b0b0; stroke-width: 0.7; stroke-linecap: square"/>
     </g>
     <g id="line2d_68">
      <g>
       <use xlink:href="#mb390458ac5" x="55.266126" y="120.926429" style="stroke: #000000; stroke-width: 0.8"/>
      </g>
     </g>
     <g id="text_11">
      <!-- $\mathdefault{1.2}$ -->
      <g transform="translate(26.93991 127.052413) scale(0.18 -0.18)">
       <use xlink:href="#LMRoman17-Regular-31" transform="scale(0.996264)"/>
       <use xlink:href="#LMMathItalic12-Regular-3a" transform="translate(45.690948 0) scale(0.996264)"/>
       <use xlink:href="#LMRoman17-Regular-32" transform="translate(72.788125 0) scale(0.996264)"/>
      </g>
     </g>
    </g>
    <g id="ytick_8">
     <g id="line2d_69">
      <path d="M 55.266126 66.524946 
L 836.466126 66.524946 
" clip-path="url(#p34b555451b)" style="fill: none; stroke: #b0b0b0; stroke-width: 0.7; stroke-linecap: square"/>
     </g>
     <g id="line2d_70">
      <g>
       <use xlink:href="#mb390458ac5" x="55.266126" y="66.524946" style="stroke: #000000; stroke-width: 0.8"/>
      </g>
     </g>
     <g id="text_12">
      <!-- $\mathdefault{1.4}$ -->
      <g transform="translate(26.93991 72.65093) scale(0.18 -0.18)">
       <use xlink:href="#LMRoman17-Regular-31" transform="scale(0.996264)"/>
       <use xlink:href="#LMMathItalic12-Regular-3a" transform="translate(45.690948 0) scale(0.996264)"/>
       <use xlink:href="#LMRoman17-Regular-34" transform="translate(72.788125 0) scale(0.996264)"/>
      </g>
     </g>
    </g>
    <g id="text_13">
     <!-- Forces in $N$ -->
     <g transform="translate(19.451968 286.135223) rotate(-90) scale(0.18 -0.18)">
      <defs>
       <path id="LMRoman17-Regular-46" d="M 3635 2916 
L 3482 4325 
L 326 4325 
L 326 4160 
C 768 4160 838 4160 838 3874 
L 838 446 
C 838 160 768 160 326 160 
L 326 0 
C 512 0 870 0 1069 0 
C 1331 0 1638 0 1901 0 
L 1901 160 
L 1760 160 
C 1274 160 1261 223 1261 452 
L 1261 2075 
L 1837 2075 
C 2432 2075 2490 1865 2490 1332 
L 2605 1332 
L 2605 2987 
L 2490 2987 
C 2490 2450 2432 2240 1837 2240 
L 1261 2240 
L 1261 3911 
C 1261 4128 1274 4160 1530 4160 
L 2355 4160 
C 3322 4160 3430 3765 3520 2916 
L 3635 2916 
z
" transform="scale(0.015625)"/>
       <path id="LMRoman17-Regular-6f" d="M 2758 1356 
C 2758 2176 2163 2816 1466 2816 
C 768 2816 173 2176 173 1356 
C 173 551 768 -64 1466 -64 
C 2163 -64 2758 551 2758 1356 
z
M 2349 1408 
C 2349 1158 2336 775 2163 467 
C 1984 173 1709 51 1466 51 
C 1165 51 909 230 762 480 
C 602 767 582 1126 582 1408 
C 582 1677 595 2010 762 2298 
C 890 2509 1139 2714 1466 2714 
C 1754 2714 1997 2554 2150 2330 
C 2349 2029 2349 1607 2349 1408 
z
" transform="scale(0.015625)"/>
       <path id="LMRoman17-Regular-72" d="M 2131 2458 
C 2131 2663 1926 2790 1709 2790 
C 1222 2790 1011 2317 947 2093 
L 941 2093 
L 941 2790 
L 198 2720 
L 198 2554 
C 576 2554 634 2515 634 2208 
L 634 428 
C 634 184 608 153 198 153 
L 198 -13 
C 352 0 646 0 813 0 
C 998 0 1325 0 1498 -13 
L 1498 153 
C 1037 153 960 153 960 440 
L 960 1497 
C 960 2112 1222 2688 1702 2688 
C 1747 2688 1792 2682 1837 2662 
C 1837 2662 1696 2617 1696 2452 
C 1696 2298 1818 2234 1914 2234 
C 1990 2234 2131 2279 2131 2458 
z
" transform="scale(0.015625)"/>
       <path id="LMRoman17-Regular-63" d="M 2458 748 
C 2458 774 2451 793 2406 793 
C 2362 793 2355 787 2330 703 
C 2163 180 1798 51 1523 51 
C 1114 51 621 427 621 1369 
C 621 2338 1094 2688 1472 2688 
C 1722 2688 2093 2573 2234 2240 
C 2112 2240 1933 2240 1933 2017 
C 1933 1838 2080 1787 2163 1787 
C 2208 1787 2394 1807 2394 2024 
C 2394 2467 1958 2803 1466 2803 
C 787 2803 211 2178 211 1363 
C 211 516 813 -64 1466 -64 
C 2259 -64 2458 677 2458 748 
z
" transform="scale(0.015625)"/>
       <path id="LMMathItalic12-Regular-4e" d="M 5491 4279 
C 5491 4352 5434 4352 5408 4352 
L 4826 4352 
L 4518 4352 
C 4429 4352 4314 4352 4224 4352 
C 4186 4352 4109 4352 4109 4230 
C 4109 4166 4160 4166 4205 4166 
C 4589 4166 4614 4019 4614 3903 
C 4614 3846 4608 3826 4589 3737 
L 3866 850 
L 2496 4249 
C 2451 4352 2445 4352 2304 4352 
L 1523 4352 
C 1395 4352 1338 4352 1338 4230 
C 1338 4166 1382 4166 1504 4166 
C 1536 4166 1914 4166 1914 4115 
C 1914 4115 1901 4051 1894 4032 
L 1043 635 
C 966 320 813 186 390 186 
C 358 186 294 186 294 67 
C 294 0 358 0 378 0 
L 960 0 
L 1267 0 
C 1357 0 1466 0 1555 0 
C 1600 0 1670 0 1670 122 
C 1670 180 1606 186 1581 186 
C 1370 186 1165 224 1165 454 
C 1165 505 1178 562 1190 613 
L 2054 4032 
C 2093 3968 2093 3956 2118 3898 
L 3642 115 
C 3674 38 3686 0 3744 0 
C 3808 0 3814 19 3840 128 
L 4736 3698 
C 4806 3974 4909 4166 5395 4166 
C 5414 4166 5491 4166 5491 4279 
z
" transform="scale(0.015625)"/>
      </defs>
      <use xlink:href="#LMRoman17-Regular-46" transform="scale(0.996264)"/>
      <use xlink:href="#LMRoman17-Regular-6f" transform="translate(52.176394 0) scale(0.996264)"/>
      <use xlink:href="#LMRoman17-Regular-72" transform="translate(97.867342 0) scale(0.996264)"/>
      <use xlink:href="#LMRoman17-Regular-63" transform="translate(133.14887 0) scale(0.996264)"/>
      <use xlink:href="#LMRoman17-Regular-65" transform="translate(173.633679 0) scale(0.996264)"/>
      <use xlink:href="#LMRoman17-Regular-73" transform="translate(214.118488 0) scale(0.996264)"/>
      <use xlink:href="#LMRoman17-Regular-69" transform="translate(279.997875 0) scale(0.996264)"/>
      <use xlink:href="#LMRoman17-Regular-6e" transform="translate(304.869891 0) scale(0.996264)"/>
      <use xlink:href="#LMMathItalic12-Regular-4e" transform="translate(385.843127 0) scale(0.996264)"/>
     </g>
    </g>
    <g id="text_14">
     <!-- $\times\mathdefault{10^{−9}}\mathdefault{}$ -->
     <g transform="translate(55.266126 19.619005) scale(0.18 -0.18)">
      <defs>
       <path id="LMMathSymbols10-Regular-2" d="M 4032 192 
C 4032 243 4019 256 3949 326 
L 2675 1606 
L 3949 2886 
C 4019 2956 4032 2969 4032 3020 
C 4032 3091 3974 3148 3904 3148 
C 3853 3148 3827 3123 3770 3065 
L 2490 1785 
L 1203 3065 
C 1133 3136 1120 3148 1069 3148 
C 1005 3148 941 3091 941 3020 
C 941 2969 966 2944 1024 2886 
L 2298 1606 
L 1024 332 
C 960 268 941 230 941 192 
C 941 121 1005 64 1069 64 
C 1120 64 1133 76 1203 147 
L 2483 1427 
L 3763 147 
C 3827 83 3866 64 3904 64 
C 3981 64 4032 121 4032 192 
z
" transform="scale(0.015625)"/>
      </defs>
      <use xlink:href="#LMMathSymbols10-Regular-2" transform="scale(0.996264)"/>
      <use xlink:href="#LMRoman17-Regular-31" transform="translate(77.487468 0) scale(0.996264)"/>
      <use xlink:href="#LMRoman17-Regular-30" transform="translate(123.178416 0) scale(0.996264)"/>
      <use xlink:href="#LMMathSymbols10-Regular-0" transform="translate(168.869364 36.153639) scale(0.697382)"/>
      <use xlink:href="#LMRoman17-Regular-39" transform="translate(223.110358 36.153639) scale(0.697382)"/>
     </g>
    </g>
   </g>
   <g id="line2d_71">
    <path d="M 90.775217 445.979005 
L 137.111373 440.045251 
L 169.986016 434.205409 
L 195.485214 428.83877 
L 216.320077 424.073103 
L 233.935723 418.911309 
L 249.195387 414.227355 
L 262.65509 410.238497 
L 274.695671 405.578795 
L 353.905899 369.630474 
L 400.240912 341.44205 
L 433.116127 319.910533 
L 458.616353 302.445034 
L 479.45114 285.3647 
L 497.066895 274.532868 
L 512.326355 261.612072 
L 525.78628 250.885066 
L 537.826353 243.460691 
L 617.036581 195.136927 
L 663.371594 167.92992 
L 696.246809 152.967533 
L 721.746807 145.205266 
L 742.581822 133.915889 
L 760.197577 132.82188 
L 775.457037 127.332462 
L 788.916835 118.229432 
L 800.957035 121.446327 
" clip-path="url(#p34b555451b)" style="fill: none; stroke: #e41a1c; stroke-width: 1.5; stroke-linecap: square"/>
    <defs>
     <path id="maf0665d4d9" d="M 0 1.5 
C 0.397805 1.5 0.77937 1.341951 1.06066 1.06066 
C 1.341951 0.77937 1.5 0.397805 1.5 0 
C 1.5 -0.397805 1.341951 -0.77937 1.06066 -1.06066 
C 0.77937 -1.341951 0.397805 -1.5 0 -1.5 
C -0.397805 -1.5 -0.77937 -1.341951 -1.06066 -1.06066 
C -1.341951 -0.77937 -1.5 -0.397805 -1.5 0 
C -1.5 0.397805 -1.341951 0.77937 -1.06066 1.06066 
C -0.77937 1.341951 -0.397805 1.5 0 1.5 
z
" style="stroke: #e41a1c"/>
    </defs>
    <g clip-path="url(#p34b555451b)">
     <use xlink:href="#maf0665d4d9" x="90.775217" y="445.979005" style="fill: #e41a1c; stroke: #e41a1c"/>
     <use xlink:href="#maf0665d4d9" x="137.111373" y="440.045251" style="fill: #e41a1c; stroke: #e41a1c"/>
     <use xlink:href="#maf0665d4d9" x="169.986016" y="434.205409" style="fill: #e41a1c; stroke: #e41a1c"/>
     <use xlink:href="#maf0665d4d9" x="195.485214" y="428.83877" style="fill: #e41a1c; stroke: #e41a1c"/>
     <use xlink:href="#maf0665d4d9" x="216.320077" y="424.073103" style="fill: #e41a1c; stroke: #e41a1c"/>
     <use xlink:href="#maf0665d4d9" x="233.935723" y="418.911309" style="fill: #e41a1c; stroke: #e41a1c"/>
     <use xlink:href="#maf0665d4d9" x="249.195387" y="414.227355" style="fill: #e41a1c; stroke: #e41a1c"/>
     <use xlink:href="#maf0665d4d9" x="262.65509" y="410.238497" style="fill: #e41a1c; stroke: #e41a1c"/>
     <use xlink:href="#maf0665d4d9" x="274.695671" y="405.578795" style="fill: #e41a1c; stroke: #e41a1c"/>
     <use xlink:href="#maf0665d4d9" x="353.905899" y="369.630474" style="fill: #e41a1c; stroke: #e41a1c"/>
     <use xlink:href="#maf0665d4d9" x="400.240912" y="341.44205" style="fill: #e41a1c; stroke: #e41a1c"/>
     <use xlink:href="#maf0665d4d9" x="433.116127" y="319.910533" style="fill: #e41a1c; stroke: #e41a1c"/>
     <use xlink:href="#maf0665d4d9" x="458.616353" y="302.445034" style="fill: #e41a1c; stroke: #e41a1c"/>
     <use xlink:href="#maf0665d4d9" x="479.45114" y="285.3647" style="fill: #e41a1c; stroke: #e41a1c"/>
     <use xlink:href="#maf0665d4d9" x="497.066895" y="274.532868" style="fill: #e41a1c; stroke: #e41a1c"/>
     <use xlink:href="#maf0665d4d9" x="512.326355" y="261.612072" style="fill: #e41a1c; stroke: #e41a1c"/>
     <use xlink:href="#maf0665d4d9" x="525.78628" y="250.885066" style="fill: #e41a1c; stroke: #e41a1c"/>
     <use xlink:href="#maf0665d4d9" x="537.826353" y="243.460691" style="fill: #e41a1c; stroke: #e41a1c"/>
     <use xlink:href="#maf0665d4d9" x="617.036581" y="195.136927" style="fill: #e41a1c; stroke: #e41a1c"/>
     <use xlink:href="#maf0665d4d9" x="663.371594" y="167.92992" style="fill: #e41a1c; stroke: #e41a1c"/>
     <use xlink:href="#maf0665d4d9" x="696.246809" y="152.967533" style="fill: #e41a1c; stroke: #e41a1c"/>
     <use xlink:href="#maf0665d4d9" x="721.746807" y="145.205266" style="fill: #e41a1c; stroke: #e41a1c"/>
     <use xlink:href="#maf0665d4d9" x="742.581822" y="133.915889" style="fill: #e41a1c; stroke: #e41a1c"/>
     <use xlink:href="#maf0665d4d9" x="760.197577" y="132.82188" style="fill: #e41a1c; stroke: #e41a1c"/>
     <use xlink:href="#maf0665d4d9" x="775.457037" y="127.332462" style="fill: #e41a1c; stroke: #e41a1c"/>
     <use xlink:href="#maf0665d4d9" x="788.916835" y="118.229432" style="fill: #e41a1c; stroke: #e41a1c"/>
     <use xlink:href="#maf0665d4d9" x="800.957035" y="121.446327" style="fill: #e41a1c; stroke: #e41a1c"/>
    </g>
   </g>
   <g id="line2d_72">
    <path d="M 90.775217 145.53534 
L 137.111373 144.404426 
L 169.986016 141.184327 
L 195.485214 138.34747 
L 216.320077 135.882599 
L 233.935723 132.164346 
L 249.195387 129.122972 
L 262.65509 126.926461 
L 274.695671 123.305518 
L 353.905899 100.761447 
L 400.240912 86.364214 
L 433.116127 76.68461 
L 458.616353 70.086524 
L 479.45114 65.668531 
L 497.066895 61.273824 
L 512.326355 58.424918 
L 525.78628 56.096314 
L 537.826353 53.905622 
L 617.036581 44.407235 
L 663.371594 42.779005 
L 696.246809 43.115379 
L 721.746807 44.059378 
L 742.581822 45.312293 
L 760.197577 46.199257 
L 775.457037 47.163231 
L 788.916835 48.150688 
" clip-path="url(#p34b555451b)" style="fill: none; stroke: #e41a1c; stroke-width: 1.5; stroke-linecap: square"/>
    <defs>
     <path id="madf6858bc7" d="M -0 3 
L 3 -3 
L -3 -3 
z
" style="stroke: #e41a1c; stroke-linejoin: miter"/>
    </defs>
    <g clip-path="url(#p34b555451b)">
     <use xlink:href="#madf6858bc7" x="90.775217" y="145.53534" style="fill: #e41a1c; stroke: #e41a1c; stroke-linejoin: miter"/>
     <use xlink:href="#madf6858bc7" x="137.111373" y="144.404426" style="fill: #e41a1c; stroke: #e41a1c; stroke-linejoin: miter"/>
     <use xlink:href="#madf6858bc7" x="169.986016" y="141.184327" style="fill: #e41a1c; stroke: #e41a1c; stroke-linejoin: miter"/>
     <use xlink:href="#madf6858bc7" x="195.485214" y="138.34747" style="fill: #e41a1c; stroke: #e41a1c; stroke-linejoin: miter"/>
     <use xlink:href="#madf6858bc7" x="216.320077" y="135.882599" style="fill: #e41a1c; stroke: #e41a1c; stroke-linejoin: miter"/>
     <use xlink:href="#madf6858bc7" x="233.935723" y="132.164346" style="fill: #e41a1c; stroke: #e41a1c; stroke-linejoin: miter"/>
     <use xlink:href="#madf6858bc7" x="249.195387" y="129.122972" style="fill: #e41a1c; stroke: #e41a1c; stroke-linejoin: miter"/>
     <use xlink:href="#madf6858bc7" x="262.65509" y="126.926461" style="fill: #e41a1c; stroke: #e41a1c; stroke-linejoin: miter"/>
     <use xlink:href="#madf6858bc7" x="274.695671" y="123.305518" style="fill: #e41a1c; stroke: #e41a1c; stroke-linejoin: miter"/>
     <use xlink:href="#madf6858bc7" x="353.905899" y="100.761447" style="fill: #e41a1c; stroke: #e41a1c; stroke-linejoin: miter"/>
     <use xlink:href="#madf6858bc7" x="400.240912" y="86.364214" style="fill: #e41a1c; stroke: #e41a1c; stroke-linejoin: miter"/>
     <use xlink:href="#madf6858bc7" x="433.116127" y="76.68461" style="fill: #e41a1c; stroke: #e41a1c; stroke-linejoin: miter"/>
     <use xlink:href="#madf6858bc7" x="458.616353" y="70.086524" style="fill: #e41a1c; stroke: #e41a1c; stroke-linejoin: miter"/>
     <use xlink:href="#madf6858bc7" x="479.45114" y="65.668531" style="fill: #e41a1c; stroke: #e41a1c; stroke-linejoin: miter"/>
     <use xlink:href="#madf6858bc7" x="497.066895" y="61.273824" style="fill: #e41a1c; stroke: #e41a1c; stroke-linejoin: miter"/>
     <use xlink:href="#madf6858bc7" x="512.326355" y="58.424918" style="fill: #e41a1c; stroke: #e41a1c; stroke-linejoin: miter"/>
     <use xlink:href="#madf6858bc7" x="525.78628" y="56.096314" style="fill: #e41a1c; stroke: #e41a1c; stroke-linejoin: miter"/>
     <use xlink:href="#madf6858bc7" x="537.826353" y="53.905622" style="fill: #e41a1c; stroke: #e41a1c; stroke-linejoin: miter"/>
     <use xlink:href="#madf6858bc7" x="617.036581" y="44.407235" style="fill: #e41a1c; stroke: #e41a1c; stroke-linejoin: miter"/>
     <use xlink:href="#madf6858bc7" x="663.371594" y="42.779005" style="fill: #e41a1c; stroke: #e41a1c; stroke-linejoin: miter"/>
     <use xlink:href="#madf6858bc7" x="696.246809" y="43.115379" style="fill: #e41a1c; stroke: #e41a1c; stroke-linejoin: miter"/>
     <use xlink:href="#madf6858bc7" x="721.746807" y="44.059378" style="fill: #e41a1c; stroke: #e41a1c; stroke-linejoin: miter"/>
     <use xlink:href="#madf6858bc7" x="742.581822" y="45.312293" style="fill: #e41a1c; stroke: #e41a1c; stroke-linejoin: miter"/>
     <use xlink:href="#madf6858bc7" x="760.197577" y="46.199257" style="fill: #e41a1c; stroke: #e41a1c; stroke-linejoin: miter"/>
     <use xlink:href="#madf6858bc7" x="775.457037" y="47.163231" style="fill: #e41a1c; stroke: #e41a1c; stroke-linejoin: miter"/>
     <use xlink:href="#madf6858bc7" x="788.916835" y="48.150688" style="fill: #e41a1c; stroke: #e41a1c; stroke-linejoin: miter"/>
    </g>
   </g>
   <g id="line2d_73">
    <path d="M 90.775217 146.891657 
L 137.111373 151.694498 
L 169.986016 154.31424 
L 195.485214 156.844023 
L 216.320077 159.144818 
L 233.935723 160.58836 
L 249.195387 162.23094 
L 262.65509 164.023286 
L 274.695671 165.062045 
L 353.905899 178.466295 
L 400.240912 192.257487 
L 433.116127 204.109399 
L 458.616353 214.976813 
L 479.45114 227.639154 
L 497.066895 234.076278 
L 512.326355 244.148168 
L 525.78628 252.546571 
L 537.826353 257.780253 
L 617.036581 296.605631 
L 663.371594 322.184407 
L 696.246809 337.483168 
L 721.746807 346.189435 
L 742.581822 358.731727 
L 760.197577 360.712699 
L 775.457037 367.166091 
L 788.916835 377.256579 
" clip-path="url(#p34b555451b)" style="fill: none; stroke: #e41a1c; stroke-width: 1.5; stroke-linecap: square"/>
    <defs>
     <path id="m86b2b52b7c" d="M -3 3 
L 3 3 
L 3 -3 
L -3 -3 
z
" style="stroke: #e41a1c; stroke-linejoin: miter"/>
    </defs>
    <g clip-path="url(#p34b555451b)">
     <use xlink:href="#m86b2b52b7c" x="90.775217" y="146.891657" style="fill: #e41a1c; stroke: #e41a1c; stroke-linejoin: miter"/>
     <use xlink:href="#m86b2b52b7c" x="137.111373" y="151.694498" style="fill: #e41a1c; stroke: #e41a1c; stroke-linejoin: miter"/>
     <use xlink:href="#m86b2b52b7c" x="169.986016" y="154.31424" style="fill: #e41a1c; stroke: #e41a1c; stroke-linejoin: miter"/>
     <use xlink:href="#m86b2b52b7c" x="195.485214" y="156.844023" style="fill: #e41a1c; stroke: #e41a1c; stroke-linejoin: miter"/>
     <use xlink:href="#m86b2b52b7c" x="216.320077" y="159.144818" style="fill: #e41a1c; stroke: #e41a1c; stroke-linejoin: miter"/>
     <use xlink:href="#m86b2b52b7c" x="233.935723" y="160.58836" style="fill: #e41a1c; stroke: #e41a1c; stroke-linejoin: miter"/>
     <use xlink:href="#m86b2b52b7c" x="249.195387" y="162.23094" style="fill: #e41a1c; stroke: #e41a1c; stroke-linejoin: miter"/>
     <use xlink:href="#m86b2b52b7c" x="262.65509" y="164.023286" style="fill: #e41a1c; stroke: #e41a1c; stroke-linejoin: miter"/>
     <use xlink:href="#m86b2b52b7c" x="274.695671" y="165.062045" style="fill: #e41a1c; stroke: #e41a1c; stroke-linejoin: miter"/>
     <use xlink:href="#m86b2b52b7c" x="353.905899" y="178.466295" style="fill: #e41a1c; stroke: #e41a1c; stroke-linejoin: miter"/>
     <use xlink:href="#m86b2b52b7c" x="400.240912" y="192.257487" style="fill: #e41a1c; stroke: #e41a1c; stroke-linejoin: miter"/>
     <use xlink:href="#m86b2b52b7c" x="433.116127" y="204.109399" style="fill: #e41a1c; stroke: #e41a1c; stroke-linejoin: miter"/>
     <use xlink:href="#m86b2b52b7c" x="458.616353" y="214.976813" style="fill: #e41a1c; stroke: #e41a1c; stroke-linejoin: miter"/>
     <use xlink:href="#m86b2b52b7c" x="479.45114" y="227.639154" style="fill: #e41a1c; stroke: #e41a1c; stroke-linejoin: miter"/>
     <use xlink:href="#m86b2b52b7c" x="497.066895" y="234.076278" style="fill: #e41a1c; stroke: #e41a1c; stroke-linejoin: miter"/>
     <use xlink:href="#m86b2b52b7c" x="512.326355" y="244.148168" style="fill: #e41a1c; stroke: #e41a1c; stroke-linejoin: miter"/>
     <use xlink:href="#m86b2b52b7c" x="525.78628" y="252.546571" style="fill: #e41a1c; stroke: #e41a1c; stroke-linejoin: miter"/>
     <use xlink:href="#m86b2b52b7c" x="537.826353" y="257.780253" style="fill: #e41a1c; stroke: #e41a1c; stroke-linejoin: miter"/>
     <use xlink:href="#m86b2b52b7c" x="617.036581" y="296.605631" style="fill: #e41a1c; stroke: #e41a1c; stroke-linejoin: miter"/>
     <use xlink:href="#m86b2b52b7c" x="663.371594" y="322.184407" style="fill: #e41a1c; stroke: #e41a1c; stroke-linejoin: miter"/>
     <use xlink:href="#m86b2b52b7c" x="696.246809" y="337.483168" style="fill: #e41a1c; stroke: #e41a1c; stroke-linejoin: miter"/>
     <use xlink:href="#m86b2b52b7c" x="721.746807" y="346.189435" style="fill: #e41a1c; stroke: #e41a1c; stroke-linejoin: miter"/>
     <use xlink:href="#m86b2b52b7c" x="742.581822" y="358.731727" style="fill: #e41a1c; stroke: #e41a1c; stroke-linejoin: miter"/>
     <use xlink:href="#m86b2b52b7c" x="760.197577" y="360.712699" style="fill: #e41a1c; stroke: #e41a1c; stroke-linejoin: miter"/>
     <use xlink:href="#m86b2b52b7c" x="775.457037" y="367.166091" style="fill: #e41a1c; stroke: #e41a1c; stroke-linejoin: miter"/>
     <use xlink:href="#m86b2b52b7c" x="788.916835" y="377.256579" style="fill: #e41a1c; stroke: #e41a1c; stroke-linejoin: miter"/>
    </g>
   </g>
   <g id="patch_3">
    <path d="M 55.266126 466.139005 
L 55.266126 22.619005 
" style="fill: none; stroke: #000000; stroke-width: 0.8; stroke-linejoin: miter; stroke-linecap: square"/>
   </g>
   <g id="patch_4">
    <path d="M 836.466126 466.139005 
L 836.466126 22.619005 
" style="fill: none; stroke: #000000; stroke-width: 0.8; stroke-linejoin: miter; stroke-linecap: square"/>
   </g>
   <g id="patch_5">
    <path d="M 55.266126 466.139005 
L 836.466126 466.139005 
" style="fill: none; stroke: #000000; stroke-width: 0.8; stroke-linejoin: miter; stroke-linecap: square"/>
   </g>
   <g id="patch_6">
    <path d="M 55.266126 22.619005 
L 836.466126 22.619005 
" style="fill: none; stroke: #000000; stroke-width: 0.8; stroke-linejoin: miter; stroke-linecap: square"/>
   </g>
   <g id="legend_1">
    <g id="patch_7">
     <path d="M 444.255754 457.139005 
L 823.866126 457.139005 
Q 827.466126 457.139005 827.466126 453.539005 
L 827.466126 378.889028 
Q 827.466126 375.289028 823.866126 375.289028 
L 444.255754 375.289028 
Q 440.655754 375.289028 440.655754 378.889028 
L 440.655754 453.539005 
Q 440.655754 457.139005 444.255754 457.139005 
z
" style="fill: #ffffff; opacity: 0.8; stroke: #cccccc; stroke-linejoin: miter"/>
    </g>
    <g id="line2d_74">
     <path d="M 447.855754 388.789028 
L 465.855754 388.789028 
L 483.855754 388.789028 
" style="fill: none; stroke: #e41a1c; stroke-width: 1.5; stroke-linecap: square"/>
     <g>
      <use xlink:href="#maf0665d4d9" x="465.855754" y="388.789028" style="fill: #e41a1c; stroke: #e41a1c"/>
     </g>
    </g>
    <g id="text_15">
     <!-- \textbf{\texttt{phaseFieldFoam}} Poseuille Forces -->
     <g transform="translate(498.255754 395.089028) scale(0.18 -0.18)">
      <defs>
       <path id="LMMonoLt10-Bold-70" d="M 3136 1414 
C 3136 2222 2554 2854 1869 2854 
C 1594 2854 1331 2763 1120 2602 
C 1114 2746 1056 2816 826 2816 
L 371 2816 
C 250 2816 64 2816 64 2575 
C 64 2336 256 2336 365 2336 
L 595 2336 
L 595 -928 
L 371 -928 
C 250 -928 64 -928 64 -1172 
C 64 -1408 256 -1408 365 -1408 
L 1357 -1408 
C 1466 -1408 1658 -1408 1658 -1172 
C 1658 -928 1472 -928 1350 -928 
L 1126 -928 
L 1126 228 
C 1370 13 1613 -32 1798 -32 
C 2502 -32 3136 588 3136 1414 
z
M 2611 1414 
C 2611 847 2202 455 1786 455 
C 1331 455 1133 976 1133 1260 
L 1133 1717 
C 1133 2065 1472 2368 1837 2368 
C 2272 2368 2611 1930 2611 1414 
z
" transform="scale(0.015625)"/>
       <path id="LMMonoLt10-Bold-68" d="M 3283 237 
C 3283 480 3104 480 2982 480 
L 2758 480 
L 2758 1894 
C 2758 2569 2419 2854 1894 2854 
C 1542 2854 1280 2705 1126 2582 
L 1126 3653 
C 1126 3889 1082 3968 826 3968 
L 371 3968 
C 250 3968 70 3968 70 3724 
C 70 3488 262 3488 365 3488 
L 595 3488 
L 595 480 
L 371 480 
C 250 480 70 480 70 237 
C 70 0 262 0 365 0 
L 1357 0 
C 1466 0 1658 0 1658 237 
C 1658 480 1472 480 1350 480 
L 1126 480 
L 1126 1551 
C 1126 2141 1562 2368 1856 2368 
C 2157 2368 2227 2206 2227 1862 
L 2227 480 
L 2035 480 
C 1914 480 1728 480 1728 237 
C 1728 0 1926 0 2035 0 
L 2989 0 
C 3091 0 3283 0 3283 237 
z
" transform="scale(0.015625)"/>
       <path id="LMMonoLt10-Bold-61" d="M 3334 243 
C 3334 474 3149 474 3034 474 
C 2848 474 2758 498 2707 521 
L 2707 1853 
C 2707 2321 2362 2880 1427 2880 
C 1139 2880 474 2880 474 2386 
C 474 2165 627 2048 800 2048 
C 909 2048 1120 2112 1126 2387 
C 1126 2387 1331 2406 1434 2406 
C 1856 2406 2157 2243 2176 1856 
C 1069 1856 307 1508 307 883 
C 307 415 717 -32 1389 -32 
C 1613 -32 1990 11 2285 187 
C 2445 0 2733 0 2970 0 
C 3181 0 3334 13 3334 243 
z
M 2170 899 
C 2170 777 2170 655 1958 557 
C 1741 455 1472 455 1421 455 
C 1069 455 832 648 832 882 
C 832 1175 1338 1376 2170 1376 
L 2170 899 
z
" transform="scale(0.015625)"/>
       <path id="LMMonoLt10-Bold-73" d="M 2957 847 
C 2957 1533 2118 1682 1907 1714 
L 1261 1831 
C 1094 1870 922 1940 922 2089 
C 922 2238 1120 2393 1664 2393 
C 2131 2393 2221 2238 2240 2088 
C 2246 1959 2266 1829 2502 1829 
C 2765 1829 2771 1985 2771 2134 
L 2771 2575 
C 2771 2698 2758 2880 2534 2880 
C 2394 2880 2342 2822 2317 2770 
C 2048 2880 1792 2880 1677 2880 
C 582 2880 442 2324 442 2090 
C 442 1483 1114 1353 1715 1263 
C 1997 1218 2477 1140 2477 849 
C 2477 629 2253 455 1728 455 
C 1453 455 1126 519 979 980 
C 941 1123 909 1200 710 1200 
C 448 1200 442 1045 442 889 
L 442 279 
C 442 156 448 -32 678 -32 
C 742 -32 851 -32 934 182 
C 1235 -32 1549 -32 1722 -32 
C 2752 -32 2957 530 2957 847 
z
" transform="scale(0.015625)"/>
       <path id="LMMonoLt10-Bold-65" d="M 2989 748 
C 2989 969 2765 969 2720 969 
C 2579 969 2522 943 2464 802 
C 2336 506 2022 455 1862 455 
C 1434 455 1005 734 890 1216 
L 2688 1216 
C 2848 1216 2989 1216 2989 1500 
C 2989 2242 2566 2880 1728 2880 
C 960 2880 333 2227 333 1424 
C 333 628 986 -32 1818 -32 
C 2688 -32 2989 579 2989 748 
z
M 2438 1696 
L 896 1696 
C 998 2099 1331 2393 1728 2393 
C 2022 2393 2368 2252 2438 1696 
z
" transform="scale(0.015625)"/>
       <path id="LMMonoLt10-Bold-46" d="M 3149 3182 
L 3149 3650 
C 3149 3889 3104 3968 2848 3968 
L 474 3968 
C 352 3968 166 3968 166 3724 
C 166 3488 358 3488 474 3488 
L 627 3488 
L 627 480 
L 474 480 
C 352 480 166 480 166 237 
C 166 0 358 0 474 0 
L 1434 0 
C 1549 0 1734 0 1734 237 
C 1734 480 1555 480 1434 480 
L 1158 480 
L 1158 1728 
L 1907 1728 
C 1907 1449 1933 1347 2176 1347 
C 2432 1347 2438 1516 2438 1658 
L 2438 2248 
C 2438 2391 2432 2560 2176 2560 
C 1933 2560 1907 2467 1907 2215 
L 1158 2215 
L 1158 3488 
L 2618 3488 
L 2618 3190 
C 2618 3041 2624 2865 2880 2865 
C 3142 2865 3149 3030 3149 3182 
z
" transform="scale(0.015625)"/>
       <path id="LMMonoLt10-Bold-69" d="M 2931 237 
C 2931 480 2739 480 2624 480 
L 2022 480 
L 2022 2505 
C 2022 2738 1978 2816 1722 2816 
L 838 2816 
C 723 2816 531 2816 531 2583 
C 531 2336 723 2336 838 2336 
L 1491 2336 
L 1491 480 
L 787 480 
C 666 480 480 480 480 237 
C 480 0 672 0 787 0 
L 2624 0 
C 2739 0 2931 0 2931 237 
z
M 2048 3570 
C 2048 3771 1888 3933 1683 3933 
C 1478 3933 1318 3771 1318 3570 
C 1318 3363 1478 3200 1683 3200 
C 1888 3200 2048 3363 2048 3570 
z
" transform="scale(0.015625)"/>
       <path id="LMMonoLt10-Bold-6c" d="M 3008 237 
C 3008 480 2829 480 2707 480 
L 1946 480 
L 1946 3655 
C 1946 3890 1901 3968 1645 3968 
L 659 3968 
C 538 3968 352 3968 352 3724 
C 352 3488 544 3488 653 3488 
L 1414 3488 
L 1414 480 
L 659 480 
C 538 480 352 480 352 237 
C 352 0 544 0 653 0 
L 2707 0 
C 2822 0 3008 0 3008 237 
z
" transform="scale(0.015625)"/>
       <path id="LMMonoLt10-Bold-64" d="M 3290 243 
C 3290 480 3098 480 2989 480 
L 2758 480 
L 2758 3655 
C 2758 3890 2714 3968 2458 3968 
L 2003 3968 
C 1882 3968 1696 3968 1696 3724 
C 1696 3488 1888 3488 1997 3488 
L 2227 3488 
L 2227 2653 
C 2029 2802 1792 2880 1549 2880 
C 845 2880 218 2261 218 1420 
C 218 607 806 -32 1491 -32 
C 1805 -32 2048 97 2227 257 
C 2240 72 2278 0 2528 0 
L 2982 0 
C 3104 0 3290 0 3290 243 
z
M 2221 1291 
C 2221 957 1958 455 1510 455 
C 1088 455 742 886 742 1420 
C 742 2002 1152 2394 1568 2394 
C 1939 2394 2221 2067 2221 1741 
L 2221 1291 
z
" transform="scale(0.015625)"/>
       <path id="LMMonoLt10-Bold-6f" d="M 3008 1418 
C 3008 2240 2400 2880 1677 2880 
C 954 2880 346 2240 346 1418 
C 346 590 966 -32 1677 -32 
C 2387 -32 3008 595 3008 1418 
z
M 2477 1462 
C 2477 906 2112 455 1677 455 
C 1242 455 877 906 877 1462 
C 877 2005 1261 2393 1677 2393 
C 2099 2393 2477 2005 2477 1462 
z
" transform="scale(0.015625)"/>
       <path id="LMMonoLt10-Bold-6d" d="M 3341 237 
C 3341 454 3219 486 2989 486 
L 2989 1961 
C 2989 2097 2976 2854 2381 2854 
C 2202 2854 1958 2783 1773 2569 
C 1664 2757 1491 2854 1293 2854 
C 1107 2854 934 2789 787 2673 
C 742 2816 621 2816 506 2816 
L 307 2816 
C 192 2816 0 2816 0 2586 
C 0 2369 122 2336 352 2336 
L 352 486 
C 122 486 0 454 0 237 
C 0 0 198 0 307 0 
L 851 0 
C 966 0 1139 0 1139 237 
C 1139 454 1037 486 806 486 
L 806 1567 
C 806 2083 1024 2368 1267 2368 
C 1389 2368 1446 2264 1446 1902 
L 1446 486 
C 1312 486 1190 453 1190 240 
C 1190 0 1370 0 1478 0 
L 1946 0 
C 2061 0 2234 0 2234 237 
C 2234 454 2125 486 1894 486 
L 1894 1567 
C 1894 2083 2118 2368 2355 2368 
C 2483 2368 2534 2264 2534 1902 
L 2534 486 
C 2406 486 2285 453 2285 240 
C 2285 0 2464 0 2566 0 
L 3034 0 
C 3149 0 3341 0 3341 237 
z
" transform="scale(0.015625)"/>
       <path id="LMRoman17-Regular-50" d="M 3718 3184 
C 3718 3791 3130 4352 2291 4352 
L 333 4352 
L 333 4186 
C 774 4186 845 4186 845 3899 
L 845 446 
C 845 160 774 160 333 160 
L 333 0 
C 518 0 858 0 1056 0 
C 1254 0 1594 0 1779 0 
L 1779 160 
C 1338 160 1267 160 1267 446 
L 1267 2042 
L 2291 2042 
C 3117 2042 3718 2578 3718 3184 
z
M 3232 3184 
C 3232 2604 2950 2176 2170 2176 
L 1254 2176 
L 1254 3938 
C 1254 4155 1267 4186 1523 4186 
L 2170 4186 
C 2995 4186 3232 3714 3232 3184 
z
" transform="scale(0.015625)"/>
       <path id="LMRoman17-Regular-75" d="M 3091 -63 
L 3091 128 
C 2714 128 2656 166 2656 473 
L 2656 2763 
L 1882 2693 
L 1882 2528 
C 2259 2528 2317 2489 2317 2186 
L 2317 1032 
C 2317 500 2029 38 1555 38 
C 1030 38 986 348 986 678 
L 986 2763 
L 211 2693 
L 211 2528 
C 467 2528 640 2528 646 2274 
L 646 1058 
C 646 633 646 361 813 183 
C 896 101 1056 -64 1517 -64 
C 2061 -64 2272 377 2323 506 
L 2330 506 
L 2330 -63 
L 3091 -63 
z
" transform="scale(0.015625)"/>
       <path id="LMRoman17-Regular-6c" d="M 1414 -13 
L 1414 153 
C 1005 153 979 178 979 426 
L 979 4396 
L 218 4326 
L 218 4160 
C 595 4160 653 4122 653 3817 
L 653 426 
C 653 184 627 153 218 153 
L 218 -13 
C 371 0 653 0 813 0 
C 979 0 1261 0 1414 -13 
z
" transform="scale(0.015625)"/>
      </defs>
      <use xlink:href="#LMMonoLt10-Bold-70" transform="scale(0.996264)"/>
      <use xlink:href="#LMMonoLt10-Bold-68" transform="translate(52.303815 0) scale(0.996264)"/>
      <use xlink:href="#LMMonoLt10-Bold-61" transform="translate(104.60763 0) scale(0.996264)"/>
      <use xlink:href="#LMMonoLt10-Bold-73" transform="translate(156.911445 0) scale(0.996264)"/>
      <use xlink:href="#LMMonoLt10-Bold-65" transform="translate(209.21526 0) scale(0.996264)"/>
      <use xlink:href="#LMMonoLt10-Bold-46" transform="translate(261.519075 0) scale(0.996264)"/>
      <use xlink:href="#LMMonoLt10-Bold-69" transform="translate(313.82289 0) scale(0.996264)"/>
      <use xlink:href="#LMMonoLt10-Bold-65" transform="translate(366.126704 0) scale(0.996264)"/>
      <use xlink:href="#LMMonoLt10-Bold-6c" transform="translate(418.430519 0) scale(0.996264)"/>
      <use xlink:href="#LMMonoLt10-Bold-64" transform="translate(470.734334 0) scale(0.996264)"/>
      <use xlink:href="#LMMonoLt10-Bold-46" transform="translate(523.038149 0) scale(0.996264)"/>
      <use xlink:href="#LMMonoLt10-Bold-6f" transform="translate(575.341964 0) scale(0.996264)"/>
      <use xlink:href="#LMMonoLt10-Bold-61" transform="translate(627.645779 0) scale(0.996264)"/>
      <use xlink:href="#LMMonoLt10-Bold-6d" transform="translate(679.949594 0) scale(0.996264)"/>
      <use xlink:href="#LMRoman17-Regular-50" transform="translate(762.329558 0) scale(0.996264)"/>
      <use xlink:href="#LMRoman17-Regular-6f" transform="translate(822.310653 0) scale(0.996264)"/>
      <use xlink:href="#LMRoman17-Regular-73" transform="translate(868.001601 0) scale(0.996264)"/>
      <use xlink:href="#LMRoman17-Regular-65" transform="translate(903.804839 0) scale(0.996264)"/>
      <use xlink:href="#LMRoman17-Regular-75" transform="translate(944.289648 0) scale(0.996264)"/>
      <use xlink:href="#LMRoman17-Regular-69" transform="translate(995.186736 0) scale(0.996264)"/>
      <use xlink:href="#LMRoman17-Regular-6c" transform="translate(1020.058752 0) scale(0.996264)"/>
      <use xlink:href="#LMRoman17-Regular-6c" transform="translate(1044.930768 0) scale(0.996264)"/>
      <use xlink:href="#LMRoman17-Regular-65" transform="translate(1069.802784 0) scale(0.996264)"/>
      <use xlink:href="#LMRoman17-Regular-46" transform="translate(1140.363742 0) scale(0.996264)"/>
      <use xlink:href="#LMRoman17-Regular-6f" transform="translate(1192.540136 0) scale(0.996264)"/>
      <use xlink:href="#LMRoman17-Regular-72" transform="translate(1238.231084 0) scale(0.996264)"/>
      <use xlink:href="#LMRoman17-Regular-63" transform="translate(1273.512612 0) scale(0.996264)"/>
      <use xlink:href="#LMRoman17-Regular-65" transform="translate(1313.997421 0) scale(0.996264)"/>
      <use xlink:href="#LMRoman17-Regular-73" transform="translate(1354.48223 0) scale(0.996264)"/>
     </g>
    </g>
    <g id="line2d_75">
     <path d="M 447.855754 414.272353 
L 465.855754 414.272353 
L 483.855754 414.272353 
" style="fill: none; stroke: #e41a1c; stroke-width: 1.5; stroke-linecap: square"/>
     <g>
      <use xlink:href="#madf6858bc7" x="465.855754" y="414.272353" style="fill: #e41a1c; stroke: #e41a1c; stroke-linejoin: miter"/>
     </g>
    </g>
    <g id="text_16">
     <!-- \textbf{\texttt{phaseFieldFoam}} Total viscous forces -->
     <g transform="translate(498.255754 420.572353) scale(0.18 -0.18)">
      <defs>
       <path id="LMRoman17-Regular-74" d="M 1965 777 
L 1965 1140 
L 1850 1140 
L 1850 783 
C 1850 344 1677 51 1408 51 
C 1222 51 966 178 966 758 
L 966 2560 
L 1862 2560 
L 1862 2725 
L 966 2725 
L 966 3904 
L 851 3904 
C 838 3245 614 2668 70 2668 
L 70 2560 
L 627 2560 
L 627 771 
C 627 650 627 -64 1370 -64 
C 1747 -64 1965 306 1965 777 
z
" transform="scale(0.015625)"/>
       <path id="LMRoman17-Regular-61" d="M 2874 567 
L 2874 920 
L 2758 920 
L 2758 562 
C 2758 178 2586 128 2502 128 
C 2240 128 2240 458 2240 738 
L 2240 1653 
C 2240 2072 2240 2294 1971 2543 
C 1734 2752 1459 2816 1242 2816 
C 736 2816 371 2407 371 1971 
C 371 1728 563 1728 602 1728 
C 685 1728 832 1778 832 1954 
C 832 2112 710 2181 602 2181 
C 576 2181 544 2174 525 2168 
C 659 2592 1005 2714 1229 2714 
C 1549 2714 1901 2429 1901 1885 
L 1901 1600 
C 1523 1600 1069 1549 710 1357 
C 307 1133 192 813 192 570 
C 192 77 768 -64 1107 -64 
C 1459 -64 1786 139 1926 511 
C 1939 233 2118 -18 2400 -18 
C 2534 -18 2874 70 2874 567 
z
M 1901 870 
C 1901 317 1504 38 1152 38 
C 832 38 582 275 582 570 
C 582 761 666 1100 1037 1305 
C 1344 1478 1696 1504 1901 1504 
L 1901 870 
z
" transform="scale(0.015625)"/>
       <path id="LMRoman17-Regular-76" d="M 3034 2560 
L 3034 2719 
L 2630 2719 
C 2496 2719 2285 2719 2157 2725 
L 2157 2560 
C 2317 2547 2406 2471 2406 2305 
C 2406 2248 2406 2235 2368 2146 
L 1664 375 
L 902 2286 
C 864 2369 864 2381 864 2407 
C 864 2560 1075 2560 1171 2560 
L 1171 2725 
C 1018 2719 736 2719 576 2719 
C 403 2719 205 2719 64 2725 
L 64 2560 
C 307 2560 442 2560 518 2362 
L 1446 44 
C 1485 -51 1491 -64 1549 -64 
C 1606 -64 1613 -51 1651 44 
L 2502 2163 
C 2560 2304 2662 2560 3034 2560 
z
" transform="scale(0.015625)"/>
       <path id="LMRoman17-Regular-66" d="M 2003 4067 
C 2003 4308 1773 4454 1517 4454 
C 1152 4454 653 4156 653 3481 
L 653 2725 
L 141 2725 
L 141 2560 
L 653 2560 
L 653 427 
C 653 184 627 153 218 153 
L 218 -13 
C 371 0 666 0 832 0 
C 1018 0 1344 0 1517 -13 
L 1517 153 
C 1056 153 979 153 979 439 
L 979 2560 
L 1709 2560 
L 1709 2725 
L 966 2725 
L 966 3494 
C 966 4022 1235 4352 1510 4352 
C 1594 4352 1690 4327 1754 4282 
C 1702 4269 1568 4225 1568 4067 
C 1568 3901 1696 3850 1786 3850 
C 1875 3850 2003 3901 2003 4067 
z
" transform="scale(0.015625)"/>
      </defs>
      <use xlink:href="#LMMonoLt10-Bold-70" transform="scale(0.996264)"/>
      <use xlink:href="#LMMonoLt10-Bold-68" transform="translate(52.303815 0) scale(0.996264)"/>
      <use xlink:href="#LMMonoLt10-Bold-61" transform="translate(104.60763 0) scale(0.996264)"/>
      <use xlink:href="#LMMonoLt10-Bold-73" transform="translate(156.911445 0) scale(0.996264)"/>
      <use xlink:href="#LMMonoLt10-Bold-65" transform="translate(209.21526 0) scale(0.996264)"/>
      <use xlink:href="#LMMonoLt10-Bold-46" transform="translate(261.519075 0) scale(0.996264)"/>
      <use xlink:href="#LMMonoLt10-Bold-69" transform="translate(313.82289 0) scale(0.996264)"/>
      <use xlink:href="#LMMonoLt10-Bold-65" transform="translate(366.126704 0) scale(0.996264)"/>
      <use xlink:href="#LMMonoLt10-Bold-6c" transform="translate(418.430519 0) scale(0.996264)"/>
      <use xlink:href="#LMMonoLt10-Bold-64" transform="translate(470.734334 0) scale(0.996264)"/>
      <use xlink:href="#LMMonoLt10-Bold-46" transform="translate(523.038149 0) scale(0.996264)"/>
      <use xlink:href="#LMMonoLt10-Bold-6f" transform="translate(575.341964 0) scale(0.996264)"/>
      <use xlink:href="#LMMonoLt10-Bold-61" transform="translate(627.645779 0) scale(0.996264)"/>
      <use xlink:href="#LMMonoLt10-Bold-6d" transform="translate(679.949594 0) scale(0.996264)"/>
      <use xlink:href="#LMRoman17-Regular-54" transform="translate(762.329558 0) scale(0.996264)"/>
      <use xlink:href="#LMRoman17-Regular-6f" transform="translate(821.032274 0) scale(0.996264)"/>
      <use xlink:href="#LMRoman17-Regular-74" transform="translate(866.723222 0) scale(0.996264)"/>
      <use xlink:href="#LMRoman17-Regular-61" transform="translate(902.00475 0) scale(0.996264)"/>
      <use xlink:href="#LMRoman17-Regular-6c" transform="translate(947.695699 0) scale(0.996264)"/>
      <use xlink:href="#LMRoman17-Regular-76" transform="translate(1002.643864 0) scale(0.996264)"/>
      <use xlink:href="#LMRoman17-Regular-69" transform="translate(1050.935077 0) scale(0.996264)"/>
      <use xlink:href="#LMRoman17-Regular-73" transform="translate(1075.807093 0) scale(0.996264)"/>
      <use xlink:href="#LMRoman17-Regular-63" transform="translate(1111.610331 0) scale(0.996264)"/>
      <use xlink:href="#LMRoman17-Regular-6f" transform="translate(1152.09514 0) scale(0.996264)"/>
      <use xlink:href="#LMRoman17-Regular-75" transform="translate(1197.786088 0) scale(0.996264)"/>
      <use xlink:href="#LMRoman17-Regular-73" transform="translate(1248.683176 0) scale(0.996264)"/>
      <use xlink:href="#LMRoman17-Regular-66" transform="translate(1314.562563 0) scale(0.996264)"/>
      <use xlink:href="#LMRoman17-Regular-6f" transform="translate(1342.034737 0) scale(0.996264)"/>
      <use xlink:href="#LMRoman17-Regular-72" transform="translate(1387.725686 0) scale(0.996264)"/>
      <use xlink:href="#LMRoman17-Regular-63" transform="translate(1423.007214 0) scale(0.996264)"/>
      <use xlink:href="#LMRoman17-Regular-65" transform="translate(1463.492023 0) scale(0.996264)"/>
      <use xlink:href="#LMRoman17-Regular-73" transform="translate(1503.976832 0) scale(0.996264)"/>
     </g>
    </g>
    <g id="line2d_76">
     <path d="M 447.855754 439.755679 
L 465.855754 439.755679 
L 483.855754 439.755679 
" style="fill: none; stroke: #e41a1c; stroke-width: 1.5; stroke-linecap: square"/>
     <g>
      <use xlink:href="#m86b2b52b7c" x="465.855754" y="439.755679" style="fill: #e41a1c; stroke: #e41a1c; stroke-linejoin: miter"/>
     </g>
    </g>
    <g id="text_17">
     <!-- \textbf{\texttt{phaseFieldFoam}} meniscus resistance forces -->
     <g transform="translate(498.255754 446.055679) scale(0.18 -0.18)">
      <use xlink:href="#LMMonoLt10-Bold-70" transform="scale(0.996264)"/>
      <use xlink:href="#LMMonoLt10-Bold-68" transform="translate(52.303815 0) scale(0.996264)"/>
      <use xlink:href="#LMMonoLt10-Bold-61" transform="translate(104.60763 0) scale(0.996264)"/>
      <use xlink:href="#LMMonoLt10-Bold-73" transform="translate(156.911445 0) scale(0.996264)"/>
      <use xlink:href="#LMMonoLt10-Bold-65" transform="translate(209.21526 0) scale(0.996264)"/>
      <use xlink:href="#LMMonoLt10-Bold-46" transform="translate(261.519075 0) scale(0.996264)"/>
      <use xlink:href="#LMMonoLt10-Bold-69" transform="translate(313.82289 0) scale(0.996264)"/>
      <use xlink:href="#LMMonoLt10-Bold-65" transform="translate(366.126704 0) scale(0.996264)"/>
      <use xlink:href="#LMMonoLt10-Bold-6c" transform="translate(418.430519 0) scale(0.996264)"/>
      <use xlink:href="#LMMonoLt10-Bold-64" transform="translate(470.734334 0) scale(0.996264)"/>
      <use xlink:href="#LMMonoLt10-Bold-46" transform="translate(523.038149 0) scale(0.996264)"/>
      <use xlink:href="#LMMonoLt10-Bold-6f" transform="translate(575.341964 0) scale(0.996264)"/>
      <use xlink:href="#LMMonoLt10-Bold-61" transform="translate(627.645779 0) scale(0.996264)"/>
      <use xlink:href="#LMMonoLt10-Bold-6d" transform="translate(679.949594 0) scale(0.996264)"/>
      <use xlink:href="#LMRoman17-Regular-6d" transform="translate(762.329558 0) scale(0.996264)"/>
      <use xlink:href="#LMRoman17-Regular-65" transform="translate(839.251717 0) scale(0.996264)"/>
      <use xlink:href="#LMRoman17-Regular-6e" transform="translate(879.736526 0) scale(0.996264)"/>
      <use xlink:href="#LMRoman17-Regular-69" transform="translate(930.633613 0) scale(0.996264)"/>
      <use xlink:href="#LMRoman17-Regular-73" transform="translate(955.50563 0) scale(0.996264)"/>
      <use xlink:href="#LMRoman17-Regular-63" transform="translate(991.308867 0) scale(0.996264)"/>
      <use xlink:href="#LMRoman17-Regular-75" transform="translate(1031.793677 0) scale(0.996264)"/>
      <use xlink:href="#LMRoman17-Regular-73" transform="translate(1082.690764 0) scale(0.996264)"/>
      <use xlink:href="#LMRoman17-Regular-72" transform="translate(1148.570151 0) scale(0.996264)"/>
      <use xlink:href="#LMRoman17-Regular-65" transform="translate(1183.851679 0) scale(0.996264)"/>
      <use xlink:href="#LMRoman17-Regular-73" transform="translate(1224.336488 0) scale(0.996264)"/>
      <use xlink:href="#LMRoman17-Regular-69" transform="translate(1260.139726 0) scale(0.996264)"/>
      <use xlink:href="#LMRoman17-Regular-73" transform="translate(1285.011742 0) scale(0.996264)"/>
      <use xlink:href="#LMRoman17-Regular-74" transform="translate(1320.81498 0) scale(0.996264)"/>
      <use xlink:href="#LMRoman17-Regular-61" transform="translate(1356.096508 0) scale(0.996264)"/>
      <use xlink:href="#LMRoman17-Regular-6e" transform="translate(1401.787456 0) scale(0.996264)"/>
      <use xlink:href="#LMRoman17-Regular-63" transform="translate(1452.684544 0) scale(0.996264)"/>
      <use xlink:href="#LMRoman17-Regular-65" transform="translate(1493.169353 0) scale(0.996264)"/>
      <use xlink:href="#LMRoman17-Regular-66" transform="translate(1563.730311 0) scale(0.996264)"/>
      <use xlink:href="#LMRoman17-Regular-6f" transform="translate(1591.202485 0) scale(0.996264)"/>
      <use xlink:href="#LMRoman17-Regular-72" transform="translate(1636.893434 0) scale(0.996264)"/>
      <use xlink:href="#LMRoman17-Regular-63" transform="translate(1672.174962 0) scale(0.996264)"/>
      <use xlink:href="#LMRoman17-Regular-65" transform="translate(1712.659771 0) scale(0.996264)"/>
      <use xlink:href="#LMRoman17-Regular-73" transform="translate(1753.14458 0) scale(0.996264)"/>
     </g>
    </g>
   </g>
  </g>
 </g>
 <defs>
  <clipPath id="p34b555451b">
   <rect x="55.266126" y="22.619005" width="781.2" height="443.52"/>
  </clipPath>
 </defs>
</svg>
