<?xml version="1.0" encoding="utf-8" standalone="no"?>
<!DOCTYPE svg PUBLIC "-//W3C//DTD SVG 1.1//EN"
  "http://www.w3.org/Graphics/SVG/1.1/DTD/svg11.dtd">
<svg xmlns:xlink="http://www.w3.org/1999/xlink" width="845.824369pt" height="500.399821pt" viewBox="0 0 845.824369 500.399821" xmlns="http://www.w3.org/2000/svg" version="1.1">
 <metadata>
  <rdf:RDF xmlns:dc="http://purl.org/dc/elements/1.1/" xmlns:cc="http://creativecommons.org/ns#" xmlns:rdf="http://www.w3.org/1999/02/22-rdf-syntax-ns#">
   <cc:Work>
    <dc:type rdf:resource="http://purl.org/dc/dcmitype/StillImage"/>
    <dc:date>2024-01-09T23:32:28.698779</dc:date>
    <dc:format>image/svg+xml</dc:format>
    <dc:creator>
     <cc:Agent>
      <dc:title>Matplotlib v3.7.2, https://matplotlib.org/</dc:title>
     </cc:Agent>
    </dc:creator>
   </cc:Work>
  </rdf:RDF>
 </metadata>
 <defs>
  <style type="text/css">*{stroke-linejoin: round; stroke-linecap: butt}</style>
 </defs>
 <g id="figure_1">
  <g id="patch_1">
   <path d="M 0 500.399821 
L 845.824369 500.399821 
L 845.824369 0 
L 0 0 
z
" style="fill: #ffffff"/>
  </g>
  <g id="axes_1">
   <g id="patch_2">
    <path d="M 57.424369 450.72 
L 838.624369 450.72 
L 838.624369 7.2 
L 57.424369 7.2 
z
" style="fill: #ffffff"/>
   </g>
   <g id="matplotlib.axis_1">
    <g id="xtick_1">
     <g id="line2d_1">
      <path d="M 88.414639 450.72 
L 88.414639 7.2 
" clip-path="url(#pb9242638cd)" style="fill: none; stroke: #b0b0b0; stroke-width: 0.7; stroke-linecap: square"/>
     </g>
     <g id="line2d_2">
      <defs>
       <path id="m86b3e4729f" d="M 0 0 
L 0 3.5 
" style="stroke: #000000; stroke-width: 0.8"/>
      </defs>
      <g>
       <use xlink:href="#m86b3e4729f" x="88.414639" y="450.72" style="stroke: #000000; stroke-width: 0.8"/>
      </g>
     </g>
     <g id="text_1">
      <!-- $\mathdefault{0}$ -->
      <g transform="translate(84.302458 469.971968) scale(0.18 -0.18)">
       <defs>
        <path id="LMRoman17-Regular-30" d="M 2688 2025 
C 2688 2416 2682 3080 2413 3591 
C 2176 4039 1798 4198 1466 4198 
C 1158 4198 768 4058 525 3597 
C 269 3118 243 2524 243 2025 
C 243 1661 250 1106 448 619 
C 723 -39 1216 -128 1466 -128 
C 1760 -128 2208 -7 2470 600 
C 2662 1042 2688 1559 2688 2025 
z
M 2278 2096 
C 2278 1680 2278 1169 2202 792 
C 2067 95 1690 -26 1466 -26 
C 1056 -26 813 325 723 812 
C 653 1188 653 1738 653 2096 
C 653 2588 653 2997 736 3387 
C 858 3929 1216 4096 1466 4096 
C 1728 4096 2067 3923 2189 3400 
C 2272 3036 2278 2607 2278 2096 
z
" transform="scale(0.015625)"/>
       </defs>
       <use xlink:href="#LMRoman17-Regular-30" transform="scale(0.996264)"/>
      </g>
     </g>
    </g>
    <g id="xtick_2">
     <g id="line2d_3">
      <path d="M 246.96975 450.72 
L 246.96975 7.2 
" clip-path="url(#pb9242638cd)" style="fill: none; stroke: #b0b0b0; stroke-width: 0.7; stroke-linecap: square"/>
     </g>
     <g id="line2d_4">
      <g>
       <use xlink:href="#m86b3e4729f" x="246.96975" y="450.72" style="stroke: #000000; stroke-width: 0.8"/>
      </g>
     </g>
     <g id="text_2">
      <!-- $\mathdefault{2}$ -->
      <g transform="translate(242.857569 469.971968) scale(0.18 -0.18)">
       <defs>
        <path id="LMRoman17-Regular-32" d="M 2669 989 
L 2554 989 
C 2490 536 2438 459 2413 420 
C 2381 369 1920 369 1830 369 
L 602 369 
L 1824 1597 
C 2214 1967 2669 2402 2669 3035 
C 2669 3790 2067 4224 1395 4224 
C 691 4224 262 3604 262 3030 
C 262 2780 448 2748 525 2748 
C 589 2748 781 2787 781 3010 
C 781 3207 614 3264 525 3264 
C 486 3264 448 3258 422 3245 
C 544 3790 915 4058 1306 4058 
C 1862 4058 2227 3617 2227 3035 
C 2227 2479 1901 2000 1536 1584 
L 262 146 
L 262 0 
L 2515 0 
L 2669 989 
z
" transform="scale(0.015625)"/>
       </defs>
       <use xlink:href="#LMRoman17-Regular-32" transform="scale(0.996264)"/>
      </g>
     </g>
    </g>
    <g id="xtick_3">
     <g id="line2d_5">
      <path d="M 405.52486 450.72 
L 405.52486 7.2 
" clip-path="url(#pb9242638cd)" style="fill: none; stroke: #b0b0b0; stroke-width: 0.7; stroke-linecap: square"/>
     </g>
     <g id="line2d_6">
      <g>
       <use xlink:href="#m86b3e4729f" x="405.52486" y="450.72" style="stroke: #000000; stroke-width: 0.8"/>
      </g>
     </g>
     <g id="text_3">
      <!-- $\mathdefault{4}$ -->
      <g transform="translate(401.412679 469.971968) scale(0.18 -0.18)">
       <defs>
        <path id="LMRoman17-Regular-34" d="M 2803 1114 
L 2803 1280 
L 2150 1280 
L 2150 4154 
C 2150 4288 2144 4288 2029 4288 
L 128 1280 
L 128 1114 
L 1779 1114 
L 1779 487 
C 1779 255 1766 192 1318 192 
L 1197 192 
L 1197 32 
C 1402 32 1747 32 1965 32 
C 2182 32 2528 32 2733 32 
L 2733 192 
L 2611 192 
C 2163 192 2150 255 2150 487 
L 2150 1114 
L 2803 1114 
z
M 1798 1280 
L 256 1280 
L 1798 3734 
L 1798 1280 
z
" transform="scale(0.015625)"/>
       </defs>
       <use xlink:href="#LMRoman17-Regular-34" transform="scale(0.996264)"/>
      </g>
     </g>
    </g>
    <g id="xtick_4">
     <g id="line2d_7">
      <path d="M 564.079971 450.72 
L 564.079971 7.2 
" clip-path="url(#pb9242638cd)" style="fill: none; stroke: #b0b0b0; stroke-width: 0.7; stroke-linecap: square"/>
     </g>
     <g id="line2d_8">
      <g>
       <use xlink:href="#m86b3e4729f" x="564.079971" y="450.72" style="stroke: #000000; stroke-width: 0.8"/>
      </g>
     </g>
     <g id="text_4">
      <!-- $\mathdefault{6}$ -->
      <g transform="translate(559.96779 469.971968) scale(0.18 -0.18)">
       <defs>
        <path id="LMRoman17-Regular-36" d="M 2688 1283 
C 2688 2081 2170 2662 1517 2662 
C 1126 2662 838 2407 678 1960 
L 678 2176 
C 678 3690 1395 4032 1811 4032 
C 1946 4032 2272 4009 2400 3776 
C 2298 3776 2106 3776 2106 3553 
C 2106 3381 2246 3323 2336 3323 
C 2394 3323 2566 3348 2566 3560 
C 2566 3954 2246 4179 1805 4179 
C 1043 4179 243 3390 243 1984 
C 243 253 966 -128 1478 -128 
C 2099 -128 2688 427 2688 1283 
z
M 2253 1289 
C 2253 944 2253 690 2118 434 
C 1978 171 1773 25 1478 25 
C 691 25 691 1200 691 1436 
C 691 1896 909 2560 1504 2560 
C 1613 2560 1926 2560 2138 2120 
C 2253 1870 2253 1609 2253 1289 
z
" transform="scale(0.015625)"/>
       </defs>
       <use xlink:href="#LMRoman17-Regular-36" transform="scale(0.996264)"/>
      </g>
     </g>
    </g>
    <g id="xtick_5">
     <g id="line2d_9">
      <path d="M 722.635082 450.72 
L 722.635082 7.2 
" clip-path="url(#pb9242638cd)" style="fill: none; stroke: #b0b0b0; stroke-width: 0.7; stroke-linecap: square"/>
     </g>
     <g id="line2d_10">
      <g>
       <use xlink:href="#m86b3e4729f" x="722.635082" y="450.72" style="stroke: #000000; stroke-width: 0.8"/>
      </g>
     </g>
     <g id="text_5">
      <!-- $\mathdefault{8}$ -->
      <g transform="translate(718.522901 469.971968) scale(0.18 -0.18)">
       <defs>
        <path id="LMRoman17-Regular-38" d="M 2720 1011 
C 2720 1590 2330 1858 2074 2029 
C 1984 2092 1933 2124 1741 2264 
C 2144 2468 2554 2773 2554 3263 
C 2554 3842 1990 4179 1472 4179 
C 890 4179 378 3759 378 3180 
C 378 3021 416 2747 666 2505 
C 730 2442 998 2251 1171 2130 
C 883 1983 211 1634 211 934 
C 211 279 838 -128 1459 -128 
C 2144 -128 2720 362 2720 1011 
z
M 2336 3262 
C 2336 2669 1670 2331 1638 2331 
C 1638 2331 1626 2331 1574 2370 
L 902 2822 
C 851 2854 595 3051 595 3351 
C 595 3739 998 4032 1459 4032 
C 1965 4032 2336 3676 2336 3262 
z
M 2483 851 
C 2483 381 2010 25 1472 25 
C 890 25 448 438 448 940 
C 448 1443 838 1862 1280 2060 
L 2080 1519 
C 2176 1449 2483 1240 2483 851 
z
" transform="scale(0.015625)"/>
       </defs>
       <use xlink:href="#LMRoman17-Regular-38" transform="scale(0.996264)"/>
      </g>
     </g>
    </g>
    <g id="text_6">
     <!-- imbibition height in $m$ -->
     <g transform="translate(366.635865 489.711878) scale(0.18 -0.18)">
      <defs>
       <path id="LMRoman17-Regular-69" d="M 1370 -13 
L 1370 153 
C 992 153 979 191 979 420 
L 979 2778 
L 243 2708 
L 243 2542 
C 602 2542 653 2503 653 2198 
L 653 427 
C 653 184 627 153 218 153 
L 218 -13 
C 371 0 646 0 806 0 
C 960 0 1222 0 1370 -13 
z
M 1056 3835 
C 1056 3988 934 4096 800 4096 
C 646 4096 538 3975 538 3835 
C 538 3682 659 3574 794 3574 
C 947 3574 1056 3695 1056 3835 
z
" transform="scale(0.015625)"/>
       <path id="LMRoman17-Regular-6d" d="M 4762 -13 
L 4762 153 
C 4352 153 4326 178 4326 428 
L 4326 1933 
C 4326 2252 4269 2790 3507 2790 
C 3072 2790 2771 2496 2656 2151 
L 2650 2151 
C 2573 2676 2195 2790 1837 2790 
C 1331 2790 1069 2400 973 2144 
L 966 2144 
L 966 2790 
L 211 2720 
L 211 2554 
C 589 2554 646 2515 646 2208 
L 646 428 
C 646 184 621 153 211 153 
L 211 -13 
C 365 0 646 0 813 0 
C 979 0 1267 0 1421 -13 
L 1421 153 
C 1011 153 986 178 986 428 
L 986 1658 
C 986 2247 1344 2688 1792 2688 
C 2266 2688 2317 2266 2317 1958 
L 2317 428 
C 2317 184 2291 153 1882 153 
L 1882 -13 
C 2035 0 2317 0 2483 0 
C 2650 0 2938 0 3091 -13 
L 3091 153 
C 2682 153 2656 178 2656 428 
L 2656 1658 
C 2656 2247 3014 2688 3462 2688 
C 3936 2688 3987 2266 3987 1958 
L 3987 428 
C 3987 184 3962 153 3552 153 
L 3552 -13 
C 3706 0 3987 0 4154 0 
C 4320 0 4608 0 4762 -13 
z
" transform="scale(0.015625)"/>
       <path id="LMRoman17-Regular-62" d="M 3053 1370 
C 3053 2188 2477 2790 1830 2790 
C 1434 2790 1152 2579 960 2330 
L 960 4396 
L 198 4326 
L 198 4160 
C 576 4160 634 4122 634 3817 
L 634 -13 
L 749 -13 
L 934 441 
C 1120 141 1395 -64 1766 -64 
C 2406 -64 3053 500 3053 1370 
z
M 2643 1376 
C 2643 108 1888 38 1734 38 
C 1536 38 1248 114 1043 486 
C 973 608 973 621 973 735 
L 973 2004 
C 973 2118 973 2138 1062 2272 
C 1312 2657 1670 2688 1792 2688 
C 1984 2688 2643 2585 2643 1376 
z
" transform="scale(0.015625)"/>
       <path id="LMRoman17-Regular-74" d="M 1965 777 
L 1965 1140 
L 1850 1140 
L 1850 783 
C 1850 344 1677 51 1408 51 
C 1222 51 966 178 966 758 
L 966 2560 
L 1862 2560 
L 1862 2725 
L 966 2725 
L 966 3904 
L 851 3904 
C 838 3245 614 2668 70 2668 
L 70 2560 
L 627 2560 
L 627 771 
C 627 650 627 -64 1370 -64 
C 1747 -64 1965 306 1965 777 
z
" transform="scale(0.015625)"/>
       <path id="LMRoman17-Regular-6f" d="M 2758 1356 
C 2758 2176 2163 2816 1466 2816 
C 768 2816 173 2176 173 1356 
C 173 551 768 -64 1466 -64 
C 2163 -64 2758 551 2758 1356 
z
M 2349 1408 
C 2349 1158 2336 775 2163 467 
C 1984 173 1709 51 1466 51 
C 1165 51 909 230 762 480 
C 602 767 582 1126 582 1408 
C 582 1677 595 2010 762 2298 
C 890 2509 1139 2714 1466 2714 
C 1754 2714 1997 2554 2150 2330 
C 2349 2029 2349 1607 2349 1408 
z
" transform="scale(0.015625)"/>
       <path id="LMRoman17-Regular-6e" d="M 3091 -13 
L 3091 153 
C 2682 153 2656 178 2656 428 
L 2656 1933 
C 2656 2259 2592 2790 1837 2790 
C 1331 2790 1069 2400 973 2144 
L 966 2144 
L 966 2790 
L 211 2720 
L 211 2554 
C 589 2554 646 2515 646 2208 
L 646 428 
C 646 184 621 153 211 153 
L 211 -13 
C 365 0 646 0 813 0 
C 979 0 1267 0 1421 -13 
L 1421 153 
C 1011 153 986 178 986 428 
L 986 1658 
C 986 2247 1344 2688 1792 2688 
C 2266 2688 2317 2266 2317 1958 
L 2317 428 
C 2317 184 2291 153 1882 153 
L 1882 -13 
C 2035 0 2317 0 2483 0 
C 2650 0 2938 0 3091 -13 
z
" transform="scale(0.015625)"/>
       <path id="LMRoman17-Regular-68" d="M 3091 -13 
L 3091 153 
C 2682 153 2656 178 2656 428 
L 2656 1933 
C 2656 2259 2592 2790 1837 2790 
C 1312 2790 1056 2368 979 2157 
L 973 2157 
L 973 4396 
L 211 4326 
L 211 4160 
C 589 4160 646 4122 646 3817 
L 646 426 
C 646 184 621 153 211 153 
L 211 -13 
C 365 0 646 0 813 0 
C 979 0 1267 0 1421 -13 
L 1421 153 
C 1011 153 986 178 986 428 
L 986 1658 
C 986 2247 1344 2688 1792 2688 
C 2266 2688 2317 2266 2317 1958 
L 2317 428 
C 2317 184 2291 153 1882 153 
L 1882 -13 
C 2035 0 2317 0 2483 0 
C 2650 0 2938 0 3091 -13 
z
" transform="scale(0.015625)"/>
       <path id="LMRoman17-Regular-65" d="M 2464 1576 
C 2464 2238 2118 2816 1389 2816 
C 710 2816 173 2169 173 1383 
C 173 551 781 -64 1459 -64 
C 2176 -64 2458 606 2458 739 
C 2458 784 2406 784 2406 784 
C 2362 784 2355 771 2330 695 
C 2189 265 1837 51 1504 51 
C 1229 51 954 203 781 480 
C 582 803 582 1176 582 1472 
L 2438 1472 
C 2464 1498 2464 1511 2464 1576 
z
M 2118 1568 
L 589 1568 
C 634 2505 1126 2714 1382 2714 
C 1818 2714 2112 2297 2118 1568 
z
" transform="scale(0.015625)"/>
       <path id="LMRoman17-Regular-67" d="M 2886 2614 
C 2886 2731 2790 2854 2586 2854 
C 2330 2854 2106 2738 1926 2580 
C 1734 2753 1504 2816 1299 2816 
C 794 2816 358 2419 358 1888 
C 358 1522 570 1292 634 1228 
C 442 1004 442 743 442 711 
C 442 545 506 302 723 168 
C 390 85 128 -169 128 -486 
C 128 -943 736 -1280 1466 -1280 
C 2170 -1280 2803 -956 2803 -479 
C 2803 384 1856 384 1363 384 
C 1216 384 954 384 922 391 
C 723 423 589 602 589 825 
C 589 882 589 1024 710 1164 
C 832 1068 1043 960 1299 960 
C 1805 960 2240 1357 2240 1888 
C 2240 2054 2189 2310 1997 2509 
C 2176 2692 2438 2752 2586 2752 
C 2611 2752 2650 2752 2682 2734 
C 2656 2728 2598 2703 2598 2605 
C 2598 2527 2656 2471 2739 2471 
C 2835 2471 2886 2533 2886 2614 
z
M 1862 1889 
C 1862 1760 1862 1068 1299 1068 
C 736 1068 736 1760 736 1889 
C 736 2016 736 2708 1299 2708 
C 1862 2708 1862 2016 1862 1889 
z
M 2547 -486 
C 2547 -835 2106 -1171 1466 -1171 
C 826 -1171 384 -835 384 -486 
C 384 -289 493 -105 634 -4 
C 794 104 858 104 1293 104 
C 1818 104 2547 104 2547 -486 
z
" transform="scale(0.015625)"/>
       <path id="LMMathItalic12-Regular-6d" d="M 5293 913 
C 5293 945 5267 971 5229 971 
C 5171 971 5165 952 5133 843 
C 4986 332 4749 64 4493 64 
C 4429 64 4326 64 4326 269 
C 4326 436 4403 640 4429 710 
C 4544 1018 4832 1773 4832 2145 
C 4832 2528 4608 2816 4122 2816 
C 3693 2816 3347 2574 3091 2197 
C 3072 2542 2861 2816 2381 2816 
C 1811 2816 1510 2415 1395 2255 
C 1376 2618 1114 2816 832 2816 
C 646 2816 499 2727 378 2484 
C 262 2254 173 1865 173 1839 
C 173 1814 198 1782 243 1782 
C 294 1782 301 1788 339 1935 
C 435 2312 557 2689 813 2689 
C 960 2689 1011 2586 1011 2395 
C 1011 2254 947 2005 902 1807 
L 723 1118 
L 595 594 
C 550 428 480 128 480 96 
C 480 6 550 -64 646 -64 
C 723 -64 813 -26 864 70 
C 877 102 934 326 966 453 
L 1107 1028 
L 1318 1871 
C 1331 1910 1491 2229 1728 2433 
C 1894 2586 2112 2689 2362 2689 
C 2618 2689 2707 2497 2707 2242 
C 2707 2203 2707 2076 2630 1775 
C 2547 1443 2547 1424 2470 1118 
L 2285 383 
C 2259 287 2221 121 2221 96 
C 2221 6 2291 -64 2387 -64 
C 2579 -64 2611 83 2669 313 
L 3053 1839 
C 3066 1890 3398 2689 4102 2689 
C 4358 2689 4448 2497 4448 2242 
C 4448 1884 4198 1188 4058 805 
C 4000 651 3968 568 3968 453 
C 3968 166 4166 -64 4474 -64 
C 5069 -64 5293 875 5293 913 
z
" transform="scale(0.015625)"/>
      </defs>
      <use xlink:href="#LMRoman17-Regular-69" transform="scale(0.996264)"/>
      <use xlink:href="#LMRoman17-Regular-6d" transform="translate(24.872016 0) scale(0.996264)"/>
      <use xlink:href="#LMRoman17-Regular-62" transform="translate(99.191721 0) scale(0.996264)"/>
      <use xlink:href="#LMRoman17-Regular-69" transform="translate(150.088809 0) scale(0.996264)"/>
      <use xlink:href="#LMRoman17-Regular-62" transform="translate(174.960825 0) scale(0.996264)"/>
      <use xlink:href="#LMRoman17-Regular-69" transform="translate(225.857913 0) scale(0.996264)"/>
      <use xlink:href="#LMRoman17-Regular-74" transform="translate(250.729929 0) scale(0.996264)"/>
      <use xlink:href="#LMRoman17-Regular-69" transform="translate(286.011457 0) scale(0.996264)"/>
      <use xlink:href="#LMRoman17-Regular-6f" transform="translate(310.883473 0) scale(0.996264)"/>
      <use xlink:href="#LMRoman17-Regular-6e" transform="translate(356.574421 0) scale(0.996264)"/>
      <use xlink:href="#LMRoman17-Regular-68" transform="translate(437.547658 0) scale(0.996264)"/>
      <use xlink:href="#LMRoman17-Regular-65" transform="translate(488.444745 0) scale(0.996264)"/>
      <use xlink:href="#LMRoman17-Regular-69" transform="translate(528.929554 0) scale(0.996264)"/>
      <use xlink:href="#LMRoman17-Regular-67" transform="translate(553.801571 0) scale(0.996264)"/>
      <use xlink:href="#LMRoman17-Regular-68" transform="translate(599.492519 0) scale(0.996264)"/>
      <use xlink:href="#LMRoman17-Regular-74" transform="translate(647.787153 0) scale(0.996264)"/>
      <use xlink:href="#LMRoman17-Regular-69" transform="translate(713.144829 0) scale(0.996264)"/>
      <use xlink:href="#LMRoman17-Regular-6e" transform="translate(738.016845 0) scale(0.996264)"/>
      <use xlink:href="#LMMathItalic12-Regular-6d" transform="translate(818.990082 0) scale(0.996264)"/>
     </g>
    </g>
    <g id="text_7">
     <!-- $\times\mathdefault{10^{−8}}\mathdefault{}$ -->
     <g transform="translate(792.318858 488.878915) scale(0.18 -0.18)">
      <defs>
       <path id="LMMathSymbols10-Regular-2" d="M 4032 192 
C 4032 243 4019 256 3949 326 
L 2675 1606 
L 3949 2886 
C 4019 2956 4032 2969 4032 3020 
C 4032 3091 3974 3148 3904 3148 
C 3853 3148 3827 3123 3770 3065 
L 2490 1785 
L 1203 3065 
C 1133 3136 1120 3148 1069 3148 
C 1005 3148 941 3091 941 3020 
C 941 2969 966 2944 1024 2886 
L 2298 1606 
L 1024 332 
C 960 268 941 230 941 192 
C 941 121 1005 64 1069 64 
C 1120 64 1133 76 1203 147 
L 2483 1427 
L 3763 147 
C 3827 83 3866 64 3904 64 
C 3981 64 4032 121 4032 192 
z
" transform="scale(0.015625)"/>
       <path id="LMRoman17-Regular-31" d="M 2458 0 
L 2458 160 
L 2266 160 
C 1715 160 1702 230 1702 458 
L 1702 4058 
C 1702 4192 1696 4192 1606 4192 
C 1357 3916 979 3827 621 3827 
C 602 3827 570 3827 563 3808 
C 557 3795 557 3782 557 3648 
C 755 3648 1088 3686 1344 3839 
L 1344 461 
C 1344 236 1331 160 781 160 
L 589 160 
L 589 0 
L 1523 0 
L 2458 0 
z
" transform="scale(0.015625)"/>
       <path id="LMMathSymbols10-Regular-0" d="M 4442 1600 
C 4442 1728 4320 1728 4230 1728 
L 742 1728 
C 653 1728 531 1728 531 1600 
C 531 1472 653 1472 742 1472 
L 4230 1472 
C 4320 1472 4442 1472 4442 1600 
z
" transform="scale(0.015625)"/>
      </defs>
      <use xlink:href="#LMMathSymbols10-Regular-2" transform="scale(0.996264)"/>
      <use xlink:href="#LMRoman17-Regular-31" transform="translate(77.487468 0) scale(0.996264)"/>
      <use xlink:href="#LMRoman17-Regular-30" transform="translate(123.178416 0) scale(0.996264)"/>
      <use xlink:href="#LMMathSymbols10-Regular-0" transform="translate(168.869364 36.153639) scale(0.697382)"/>
      <use xlink:href="#LMRoman17-Regular-38" transform="translate(223.110358 36.153639) scale(0.697382)"/>
     </g>
    </g>
   </g>
   <g id="matplotlib.axis_2">
    <g id="ytick_1">
     <g id="line2d_11">
      <path d="M 57.424369 450.72 
L 838.624369 450.72 
" clip-path="url(#pb9242638cd)" style="fill: none; stroke: #b0b0b0; stroke-width: 0.7; stroke-linecap: square"/>
     </g>
     <g id="line2d_12">
      <defs>
       <path id="ma4774779cf" d="M 0 0 
L -3.5 0 
" style="stroke: #000000; stroke-width: 0.8"/>
      </defs>
      <g>
       <use xlink:href="#ma4774779cf" x="57.424369" y="450.72" style="stroke: #000000; stroke-width: 0.8"/>
      </g>
     </g>
     <g id="text_8">
      <!-- $\mathdefault{0.0}$ -->
      <g transform="translate(29.098153 456.845984) scale(0.18 -0.18)">
       <defs>
        <path id="LMMathItalic12-Regular-3a" d="M 1178 307 
C 1178 492 1024 619 870 619 
C 685 619 557 466 557 313 
C 557 128 710 0 864 0 
C 1050 0 1178 153 1178 307 
z
" transform="scale(0.015625)"/>
       </defs>
       <use xlink:href="#LMRoman17-Regular-30" transform="scale(0.996264)"/>
       <use xlink:href="#LMMathItalic12-Regular-3a" transform="translate(45.690948 0) scale(0.996264)"/>
       <use xlink:href="#LMRoman17-Regular-30" transform="translate(72.788125 0) scale(0.996264)"/>
      </g>
     </g>
    </g>
    <g id="ytick_2">
     <g id="line2d_13">
      <path d="M 57.424369 399.726066 
L 838.624369 399.726066 
" clip-path="url(#pb9242638cd)" style="fill: none; stroke: #b0b0b0; stroke-width: 0.7; stroke-linecap: square"/>
     </g>
     <g id="line2d_14">
      <g>
       <use xlink:href="#ma4774779cf" x="57.424369" y="399.726066" style="stroke: #000000; stroke-width: 0.8"/>
      </g>
     </g>
     <g id="text_9">
      <!-- $\mathdefault{0.1}$ -->
      <g transform="translate(29.098153 405.85205) scale(0.18 -0.18)">
       <use xlink:href="#LMRoman17-Regular-30" transform="scale(0.996264)"/>
       <use xlink:href="#LMMathItalic12-Regular-3a" transform="translate(45.690948 0) scale(0.996264)"/>
       <use xlink:href="#LMRoman17-Regular-31" transform="translate(72.788125 0) scale(0.996264)"/>
      </g>
     </g>
    </g>
    <g id="ytick_3">
     <g id="line2d_15">
      <path d="M 57.424369 348.732133 
L 838.624369 348.732133 
" clip-path="url(#pb9242638cd)" style="fill: none; stroke: #b0b0b0; stroke-width: 0.7; stroke-linecap: square"/>
     </g>
     <g id="line2d_16">
      <g>
       <use xlink:href="#ma4774779cf" x="57.424369" y="348.732133" style="stroke: #000000; stroke-width: 0.8"/>
      </g>
     </g>
     <g id="text_10">
      <!-- $\mathdefault{0.2}$ -->
      <g transform="translate(29.098153 354.858117) scale(0.18 -0.18)">
       <use xlink:href="#LMRoman17-Regular-30" transform="scale(0.996264)"/>
       <use xlink:href="#LMMathItalic12-Regular-3a" transform="translate(45.690948 0) scale(0.996264)"/>
       <use xlink:href="#LMRoman17-Regular-32" transform="translate(72.788125 0) scale(0.996264)"/>
      </g>
     </g>
    </g>
    <g id="ytick_4">
     <g id="line2d_17">
      <path d="M 57.424369 297.738199 
L 838.624369 297.738199 
" clip-path="url(#pb9242638cd)" style="fill: none; stroke: #b0b0b0; stroke-width: 0.7; stroke-linecap: square"/>
     </g>
     <g id="line2d_18">
      <g>
       <use xlink:href="#ma4774779cf" x="57.424369" y="297.738199" style="stroke: #000000; stroke-width: 0.8"/>
      </g>
     </g>
     <g id="text_11">
      <!-- $\mathdefault{0.3}$ -->
      <g transform="translate(29.098153 303.864183) scale(0.18 -0.18)">
       <defs>
        <path id="LMRoman17-Regular-33" d="M 2720 1085 
C 2720 1707 2208 2157 1600 2227 
C 2086 2328 2554 2756 2554 3329 
C 2554 3820 2048 4179 1472 4179 
C 890 4179 378 3829 378 3329 
C 378 3110 544 3072 627 3072 
C 762 3072 877 3155 877 3321 
C 877 3486 762 3569 627 3569 
C 602 3569 570 3569 544 3557 
C 730 3959 1235 4032 1459 4032 
C 1683 4032 2106 3925 2106 3320 
C 2106 3143 2080 2828 1862 2550 
C 1670 2304 1453 2304 1242 2284 
C 1210 2284 1062 2269 1037 2269 
C 992 2263 966 2257 966 2208 
C 966 2163 973 2157 1101 2157 
L 1414 2157 
C 1984 2157 2234 1662 2234 1090 
C 2234 320 1824 25 1453 25 
C 1114 25 563 194 390 693 
C 422 680 454 680 486 680 
C 640 680 755 782 755 948 
C 755 1133 614 1216 486 1216 
C 378 1216 211 1165 211 926 
C 211 335 787 -128 1466 -128 
C 2176 -128 2720 430 2720 1085 
z
" transform="scale(0.015625)"/>
       </defs>
       <use xlink:href="#LMRoman17-Regular-30" transform="scale(0.996264)"/>
       <use xlink:href="#LMMathItalic12-Regular-3a" transform="translate(45.690948 0) scale(0.996264)"/>
       <use xlink:href="#LMRoman17-Regular-33" transform="translate(72.788125 0) scale(0.996264)"/>
      </g>
     </g>
    </g>
    <g id="ytick_5">
     <g id="line2d_19">
      <path d="M 57.424369 246.744265 
L 838.624369 246.744265 
" clip-path="url(#pb9242638cd)" style="fill: none; stroke: #b0b0b0; stroke-width: 0.7; stroke-linecap: square"/>
     </g>
     <g id="line2d_20">
      <g>
       <use xlink:href="#ma4774779cf" x="57.424369" y="246.744265" style="stroke: #000000; stroke-width: 0.8"/>
      </g>
     </g>
     <g id="text_12">
      <!-- $\mathdefault{0.4}$ -->
      <g transform="translate(29.098153 252.870249) scale(0.18 -0.18)">
       <use xlink:href="#LMRoman17-Regular-30" transform="scale(0.996264)"/>
       <use xlink:href="#LMMathItalic12-Regular-3a" transform="translate(45.690948 0) scale(0.996264)"/>
       <use xlink:href="#LMRoman17-Regular-34" transform="translate(72.788125 0) scale(0.996264)"/>
      </g>
     </g>
    </g>
    <g id="ytick_6">
     <g id="line2d_21">
      <path d="M 57.424369 195.750332 
L 838.624369 195.750332 
" clip-path="url(#pb9242638cd)" style="fill: none; stroke: #b0b0b0; stroke-width: 0.7; stroke-linecap: square"/>
     </g>
     <g id="line2d_22">
      <g>
       <use xlink:href="#ma4774779cf" x="57.424369" y="195.750332" style="stroke: #000000; stroke-width: 0.8"/>
      </g>
     </g>
     <g id="text_13">
      <!-- $\mathdefault{0.5}$ -->
      <g transform="translate(29.098153 201.876316) scale(0.18 -0.18)">
       <defs>
        <path id="LMRoman17-Regular-35" d="M 2669 1264 
C 2669 2030 2170 2624 1549 2624 
C 1222 2624 947 2503 730 2274 
L 730 3692 
C 794 3666 1056 3584 1325 3584 
C 1920 3584 2246 3911 2432 4100 
C 2432 4157 2432 4192 2394 4192 
C 2394 4192 2374 4192 2323 4163 
C 2099 4058 1837 3973 1517 3973 
C 1325 3973 1037 3999 723 4139 
C 653 4171 634 4171 634 4171 
C 602 4171 595 4164 595 4037 
L 595 2203 
C 595 2089 595 2057 659 2057 
C 691 2057 704 2070 736 2114 
C 941 2401 1222 2522 1542 2522 
C 1766 2522 2246 2382 2246 1289 
C 2246 1085 2246 715 2054 421 
C 1894 159 1645 25 1370 25 
C 947 25 518 320 403 814 
C 429 807 480 795 506 795 
C 589 795 749 840 749 1038 
C 749 1210 627 1280 506 1280 
C 358 1280 262 1190 262 1011 
C 262 454 704 -128 1382 -128 
C 2042 -128 2669 440 2669 1264 
z
" transform="scale(0.015625)"/>
       </defs>
       <use xlink:href="#LMRoman17-Regular-30" transform="scale(0.996264)"/>
       <use xlink:href="#LMMathItalic12-Regular-3a" transform="translate(45.690948 0) scale(0.996264)"/>
       <use xlink:href="#LMRoman17-Regular-35" transform="translate(72.788125 0) scale(0.996264)"/>
      </g>
     </g>
    </g>
    <g id="ytick_7">
     <g id="line2d_23">
      <path d="M 57.424369 144.756398 
L 838.624369 144.756398 
" clip-path="url(#pb9242638cd)" style="fill: none; stroke: #b0b0b0; stroke-width: 0.7; stroke-linecap: square"/>
     </g>
     <g id="line2d_24">
      <g>
       <use xlink:href="#ma4774779cf" x="57.424369" y="144.756398" style="stroke: #000000; stroke-width: 0.8"/>
      </g>
     </g>
     <g id="text_14">
      <!-- $\mathdefault{0.6}$ -->
      <g transform="translate(29.098153 150.882382) scale(0.18 -0.18)">
       <use xlink:href="#LMRoman17-Regular-30" transform="scale(0.996264)"/>
       <use xlink:href="#LMMathItalic12-Regular-3a" transform="translate(45.690948 0) scale(0.996264)"/>
       <use xlink:href="#LMRoman17-Regular-36" transform="translate(72.788125 0) scale(0.996264)"/>
      </g>
     </g>
    </g>
    <g id="ytick_8">
     <g id="line2d_25">
      <path d="M 57.424369 93.762465 
L 838.624369 93.762465 
" clip-path="url(#pb9242638cd)" style="fill: none; stroke: #b0b0b0; stroke-width: 0.7; stroke-linecap: square"/>
     </g>
     <g id="line2d_26">
      <g>
       <use xlink:href="#ma4774779cf" x="57.424369" y="93.762465" style="stroke: #000000; stroke-width: 0.8"/>
      </g>
     </g>
     <g id="text_15">
      <!-- $\mathdefault{0.7}$ -->
      <g transform="translate(29.098153 99.888448) scale(0.18 -0.18)">
       <defs>
        <path id="LMRoman17-Regular-37" d="M 2886 3941 
L 2886 4081 
L 1382 4081 
C 634 4081 621 4165 595 4288 
L 480 4288 
L 294 3094 
L 410 3094 
C 429 3215 474 3540 550 3661 
C 589 3712 1062 3712 1171 3712 
L 2579 3712 
L 1869 2661 
C 1395 1954 1069 999 1069 165 
C 1069 89 1069 -128 1299 -128 
C 1530 -128 1530 89 1530 171 
L 1530 465 
C 1530 1508 1709 2196 2003 2636 
L 2886 3941 
z
" transform="scale(0.015625)"/>
       </defs>
       <use xlink:href="#LMRoman17-Regular-30" transform="scale(0.996264)"/>
       <use xlink:href="#LMMathItalic12-Regular-3a" transform="translate(45.690948 0) scale(0.996264)"/>
       <use xlink:href="#LMRoman17-Regular-37" transform="translate(72.788125 0) scale(0.996264)"/>
      </g>
     </g>
    </g>
    <g id="ytick_9">
     <g id="line2d_27">
      <path d="M 57.424369 42.768531 
L 838.624369 42.768531 
" clip-path="url(#pb9242638cd)" style="fill: none; stroke: #b0b0b0; stroke-width: 0.7; stroke-linecap: square"/>
     </g>
     <g id="line2d_28">
      <g>
       <use xlink:href="#ma4774779cf" x="57.424369" y="42.768531" style="stroke: #000000; stroke-width: 0.8"/>
      </g>
     </g>
     <g id="text_16">
      <!-- $\mathdefault{0.8}$ -->
      <g transform="translate(29.098153 48.894515) scale(0.18 -0.18)">
       <use xlink:href="#LMRoman17-Regular-30" transform="scale(0.996264)"/>
       <use xlink:href="#LMMathItalic12-Regular-3a" transform="translate(45.690948 0) scale(0.996264)"/>
       <use xlink:href="#LMRoman17-Regular-38" transform="translate(72.788125 0) scale(0.996264)"/>
      </g>
     </g>
    </g>
    <g id="text_17">
     <!-- Poseuille Forces/Total viscous forces -->
     <g transform="translate(20.632949 359.558664) rotate(-90) scale(0.18 -0.18)">
      <defs>
       <path id="LMRoman17-Regular-50" d="M 3718 3184 
C 3718 3791 3130 4352 2291 4352 
L 333 4352 
L 333 4186 
C 774 4186 845 4186 845 3899 
L 845 446 
C 845 160 774 160 333 160 
L 333 0 
C 518 0 858 0 1056 0 
C 1254 0 1594 0 1779 0 
L 1779 160 
C 1338 160 1267 160 1267 446 
L 1267 2042 
L 2291 2042 
C 3117 2042 3718 2578 3718 3184 
z
M 3232 3184 
C 3232 2604 2950 2176 2170 2176 
L 1254 2176 
L 1254 3938 
C 1254 4155 1267 4186 1523 4186 
L 2170 4186 
C 2995 4186 3232 3714 3232 3184 
z
" transform="scale(0.015625)"/>
       <path id="LMRoman17-Regular-73" d="M 2131 784 
C 2131 1112 1958 1285 1875 1362 
C 1683 1561 1459 1606 1190 1657 
C 838 1735 390 1825 390 2217 
C 390 2383 480 2737 1126 2737 
C 1811 2737 1850 2094 1862 1888 
C 1869 1856 1901 1849 1920 1849 
C 1978 1849 1978 1869 1978 1978 
L 1978 2697 
C 1978 2813 1971 2819 1933 2819 
C 1907 2819 1901 2813 1824 2717 
C 1805 2691 1747 2626 1728 2601 
C 1523 2819 1235 2819 1126 2819 
C 416 2819 160 2447 160 2076 
C 160 1498 813 1365 998 1325 
C 1402 1243 1542 1217 1677 1101 
C 1760 1025 1901 884 1901 654 
C 1901 384 1747 38 1158 38 
C 602 38 403 460 288 1021 
C 269 1110 269 1117 218 1117 
C 166 1117 160 1110 160 983 
L 160 63 
C 160 -51 166 -58 205 -58 
C 237 -58 243 -51 275 0 
L 448 276 
C 576 103 800 -64 1158 -64 
C 1792 -64 2131 283 2131 784 
z
" transform="scale(0.015625)"/>
       <path id="LMRoman17-Regular-75" d="M 3091 -63 
L 3091 128 
C 2714 128 2656 166 2656 473 
L 2656 2763 
L 1882 2693 
L 1882 2528 
C 2259 2528 2317 2489 2317 2186 
L 2317 1032 
C 2317 500 2029 38 1555 38 
C 1030 38 986 348 986 678 
L 986 2763 
L 211 2693 
L 211 2528 
C 467 2528 640 2528 646 2274 
L 646 1058 
C 646 633 646 361 813 183 
C 896 101 1056 -64 1517 -64 
C 2061 -64 2272 377 2323 506 
L 2330 506 
L 2330 -63 
L 3091 -63 
z
" transform="scale(0.015625)"/>
       <path id="LMRoman17-Regular-6c" d="M 1414 -13 
L 1414 153 
C 1005 153 979 178 979 426 
L 979 4396 
L 218 4326 
L 218 4160 
C 595 4160 653 4122 653 3817 
L 653 426 
C 653 184 627 153 218 153 
L 218 -13 
C 371 0 653 0 813 0 
C 979 0 1261 0 1414 -13 
z
" transform="scale(0.015625)"/>
       <path id="LMRoman17-Regular-46" d="M 3635 2916 
L 3482 4325 
L 326 4325 
L 326 4160 
C 768 4160 838 4160 838 3874 
L 838 446 
C 838 160 768 160 326 160 
L 326 0 
C 512 0 870 0 1069 0 
C 1331 0 1638 0 1901 0 
L 1901 160 
L 1760 160 
C 1274 160 1261 223 1261 452 
L 1261 2075 
L 1837 2075 
C 2432 2075 2490 1865 2490 1332 
L 2605 1332 
L 2605 2987 
L 2490 2987 
C 2490 2450 2432 2240 1837 2240 
L 1261 2240 
L 1261 3911 
C 1261 4128 1274 4160 1530 4160 
L 2355 4160 
C 3322 4160 3430 3765 3520 2916 
L 3635 2916 
z
" transform="scale(0.015625)"/>
       <path id="LMRoman17-Regular-72" d="M 2131 2458 
C 2131 2663 1926 2790 1709 2790 
C 1222 2790 1011 2317 947 2093 
L 941 2093 
L 941 2790 
L 198 2720 
L 198 2554 
C 576 2554 634 2515 634 2208 
L 634 428 
C 634 184 608 153 198 153 
L 198 -13 
C 352 0 646 0 813 0 
C 998 0 1325 0 1498 -13 
L 1498 153 
C 1037 153 960 153 960 440 
L 960 1497 
C 960 2112 1222 2688 1702 2688 
C 1747 2688 1792 2682 1837 2662 
C 1837 2662 1696 2617 1696 2452 
C 1696 2298 1818 2234 1914 2234 
C 1990 2234 2131 2279 2131 2458 
z
" transform="scale(0.015625)"/>
       <path id="LMRoman17-Regular-63" d="M 2458 748 
C 2458 774 2451 793 2406 793 
C 2362 793 2355 787 2330 703 
C 2163 180 1798 51 1523 51 
C 1114 51 621 427 621 1369 
C 621 2338 1094 2688 1472 2688 
C 1722 2688 2093 2573 2234 2240 
C 2112 2240 1933 2240 1933 2017 
C 1933 1838 2080 1787 2163 1787 
C 2208 1787 2394 1807 2394 2024 
C 2394 2467 1958 2803 1466 2803 
C 787 2803 211 2178 211 1363 
C 211 516 813 -64 1466 -64 
C 2259 -64 2458 677 2458 748 
z
" transform="scale(0.015625)"/>
       <path id="LMRoman17-Regular-2f" d="M 2637 4653 
C 2637 4729 2579 4768 2528 4768 
C 2451 4768 2426 4717 2400 4640 
L 326 -1377 
C 294 -1460 294 -1486 294 -1486 
C 294 -1562 352 -1600 403 -1600 
C 480 -1600 506 -1549 531 -1473 
L 2605 4545 
C 2637 4627 2637 4653 2637 4653 
z
" transform="scale(0.015625)"/>
       <path id="LMRoman17-Regular-54" d="M 4090 2918 
L 3981 4326 
L 288 4326 
L 179 2918 
L 294 2918 
C 378 3976 467 4160 1453 4160 
C 1568 4160 1754 4160 1805 4154 
C 1926 4135 1926 4058 1926 3912 
L 1926 459 
C 1926 230 1907 160 1376 160 
L 1197 160 
L 1197 0 
L 2138 0 
L 3078 0 
L 3078 160 
L 2899 160 
C 2368 160 2349 230 2349 459 
L 2349 3912 
C 2349 4052 2349 4129 2464 4154 
C 2515 4160 2701 4160 2816 4160 
C 3795 4160 3891 3976 3974 2918 
L 4090 2918 
z
" transform="scale(0.015625)"/>
       <path id="LMRoman17-Regular-61" d="M 2874 567 
L 2874 920 
L 2758 920 
L 2758 562 
C 2758 178 2586 128 2502 128 
C 2240 128 2240 458 2240 738 
L 2240 1653 
C 2240 2072 2240 2294 1971 2543 
C 1734 2752 1459 2816 1242 2816 
C 736 2816 371 2407 371 1971 
C 371 1728 563 1728 602 1728 
C 685 1728 832 1778 832 1954 
C 832 2112 710 2181 602 2181 
C 576 2181 544 2174 525 2168 
C 659 2592 1005 2714 1229 2714 
C 1549 2714 1901 2429 1901 1885 
L 1901 1600 
C 1523 1600 1069 1549 710 1357 
C 307 1133 192 813 192 570 
C 192 77 768 -64 1107 -64 
C 1459 -64 1786 139 1926 511 
C 1939 233 2118 -18 2400 -18 
C 2534 -18 2874 70 2874 567 
z
M 1901 870 
C 1901 317 1504 38 1152 38 
C 832 38 582 275 582 570 
C 582 761 666 1100 1037 1305 
C 1344 1478 1696 1504 1901 1504 
L 1901 870 
z
" transform="scale(0.015625)"/>
       <path id="LMRoman17-Regular-76" d="M 3034 2560 
L 3034 2719 
L 2630 2719 
C 2496 2719 2285 2719 2157 2725 
L 2157 2560 
C 2317 2547 2406 2471 2406 2305 
C 2406 2248 2406 2235 2368 2146 
L 1664 375 
L 902 2286 
C 864 2369 864 2381 864 2407 
C 864 2560 1075 2560 1171 2560 
L 1171 2725 
C 1018 2719 736 2719 576 2719 
C 403 2719 205 2719 64 2725 
L 64 2560 
C 307 2560 442 2560 518 2362 
L 1446 44 
C 1485 -51 1491 -64 1549 -64 
C 1606 -64 1613 -51 1651 44 
L 2502 2163 
C 2560 2304 2662 2560 3034 2560 
z
" transform="scale(0.015625)"/>
       <path id="LMRoman17-Regular-66" d="M 2003 4067 
C 2003 4308 1773 4454 1517 4454 
C 1152 4454 653 4156 653 3481 
L 653 2725 
L 141 2725 
L 141 2560 
L 653 2560 
L 653 427 
C 653 184 627 153 218 153 
L 218 -13 
C 371 0 666 0 832 0 
C 1018 0 1344 0 1517 -13 
L 1517 153 
C 1056 153 979 153 979 439 
L 979 2560 
L 1709 2560 
L 1709 2725 
L 966 2725 
L 966 3494 
C 966 4022 1235 4352 1510 4352 
C 1594 4352 1690 4327 1754 4282 
C 1702 4269 1568 4225 1568 4067 
C 1568 3901 1696 3850 1786 3850 
C 1875 3850 2003 3901 2003 4067 
z
" transform="scale(0.015625)"/>
      </defs>
      <use xlink:href="#LMRoman17-Regular-50" transform="scale(0.996264)"/>
      <use xlink:href="#LMRoman17-Regular-6f" transform="translate(59.981095 0) scale(0.996264)"/>
      <use xlink:href="#LMRoman17-Regular-73" transform="translate(105.672043 0) scale(0.996264)"/>
      <use xlink:href="#LMRoman17-Regular-65" transform="translate(141.475281 0) scale(0.996264)"/>
      <use xlink:href="#LMRoman17-Regular-75" transform="translate(181.96009 0) scale(0.996264)"/>
      <use xlink:href="#LMRoman17-Regular-69" transform="translate(232.857178 0) scale(0.996264)"/>
      <use xlink:href="#LMRoman17-Regular-6c" transform="translate(257.729194 0) scale(0.996264)"/>
      <use xlink:href="#LMRoman17-Regular-6c" transform="translate(282.60121 0) scale(0.996264)"/>
      <use xlink:href="#LMRoman17-Regular-65" transform="translate(307.473227 0) scale(0.996264)"/>
      <use xlink:href="#LMRoman17-Regular-46" transform="translate(378.034185 0) scale(0.996264)"/>
      <use xlink:href="#LMRoman17-Regular-6f" transform="translate(430.210578 0) scale(0.996264)"/>
      <use xlink:href="#LMRoman17-Regular-72" transform="translate(475.901527 0) scale(0.996264)"/>
      <use xlink:href="#LMRoman17-Regular-63" transform="translate(511.183054 0) scale(0.996264)"/>
      <use xlink:href="#LMRoman17-Regular-65" transform="translate(551.667864 0) scale(0.996264)"/>
      <use xlink:href="#LMRoman17-Regular-73" transform="translate(592.152673 0) scale(0.996264)"/>
      <use xlink:href="#LMRoman17-Regular-2f" transform="translate(627.955911 0) scale(0.996264)"/>
      <use xlink:href="#LMRoman17-Regular-54" transform="translate(673.646859 0) scale(0.996264)"/>
      <use xlink:href="#LMRoman17-Regular-6f" transform="translate(732.349575 0) scale(0.996264)"/>
      <use xlink:href="#LMRoman17-Regular-74" transform="translate(778.040524 0) scale(0.996264)"/>
      <use xlink:href="#LMRoman17-Regular-61" transform="translate(813.322052 0) scale(0.996264)"/>
      <use xlink:href="#LMRoman17-Regular-6c" transform="translate(859.013 0) scale(0.996264)"/>
      <use xlink:href="#LMRoman17-Regular-76" transform="translate(913.961165 0) scale(0.996264)"/>
      <use xlink:href="#LMRoman17-Regular-69" transform="translate(962.252378 0) scale(0.996264)"/>
      <use xlink:href="#LMRoman17-Regular-73" transform="translate(987.124394 0) scale(0.996264)"/>
      <use xlink:href="#LMRoman17-Regular-63" transform="translate(1022.927632 0) scale(0.996264)"/>
      <use xlink:href="#LMRoman17-Regular-6f" transform="translate(1063.412441 0) scale(0.996264)"/>
      <use xlink:href="#LMRoman17-Regular-75" transform="translate(1109.10339 0) scale(0.996264)"/>
      <use xlink:href="#LMRoman17-Regular-73" transform="translate(1160.000477 0) scale(0.996264)"/>
      <use xlink:href="#LMRoman17-Regular-66" transform="translate(1225.879864 0) scale(0.996264)"/>
      <use xlink:href="#LMRoman17-Regular-6f" transform="translate(1253.352039 0) scale(0.996264)"/>
      <use xlink:href="#LMRoman17-Regular-72" transform="translate(1299.042987 0) scale(0.996264)"/>
      <use xlink:href="#LMRoman17-Regular-63" transform="translate(1334.324515 0) scale(0.996264)"/>
      <use xlink:href="#LMRoman17-Regular-65" transform="translate(1374.809324 0) scale(0.996264)"/>
      <use xlink:href="#LMRoman17-Regular-73" transform="translate(1415.294133 0) scale(0.996264)"/>
     </g>
    </g>
   </g>
   <g id="line2d_29">
    <defs>
     <path id="mbc07c779c6" d="M 0 1.5 
C 0.397805 1.5 0.77937 1.341951 1.06066 1.06066 
C 1.341951 0.77937 1.5 0.397805 1.5 0 
C 1.5 -0.397805 1.341951 -0.77937 1.06066 -1.06066 
C 0.77937 -1.341951 0.397805 -1.5 0 -1.5 
C -0.397805 -1.5 -0.77937 -1.341951 -1.06066 -1.06066 
C -1.341951 -0.77937 -1.5 -0.397805 -1.5 0 
C -1.5 0.397805 -1.341951 0.77937 -1.06066 1.06066 
C -0.77937 1.341951 -0.397805 1.5 0 1.5 
z
" style="stroke: #e41a1c"/>
    </defs>
    <g clip-path="url(#pb9242638cd)">
     <use xlink:href="#mbc07c779c6" x="108.765187" y="379.002729" style="fill: #e41a1c; stroke: #e41a1c"/>
     <use xlink:href="#mbc07c779c6" x="128.32296" y="330.988225" style="fill: #e41a1c; stroke: #e41a1c"/>
     <use xlink:href="#mbc07c779c6" x="146.215904" y="297.893916" style="fill: #e41a1c; stroke: #e41a1c"/>
     <use xlink:href="#mbc07c779c6" x="162.824552" y="270.948778" style="fill: #e41a1c; stroke: #e41a1c"/>
     <use xlink:href="#mbc07c779c6" x="178.378809" y="249.609928" style="fill: #e41a1c; stroke: #e41a1c"/>
     <use xlink:href="#mbc07c779c6" x="193.045156" y="234.326041" style="fill: #e41a1c; stroke: #e41a1c"/>
     <use xlink:href="#mbc07c779c6" x="206.974223" y="216.979199" style="fill: #e41a1c; stroke: #e41a1c"/>
     <use xlink:href="#mbc07c779c6" x="220.245286" y="206.387748" style="fill: #e41a1c; stroke: #e41a1c"/>
     <use xlink:href="#mbc07c779c6" x="232.953478" y="195.848089" style="fill: #e41a1c; stroke: #e41a1c"/>
     <use xlink:href="#mbc07c779c6" x="245.162221" y="184.42283" style="fill: #e41a1c; stroke: #e41a1c"/>
     <use xlink:href="#mbc07c779c6" x="256.911155" y="176.94834" style="fill: #e41a1c; stroke: #e41a1c"/>
     <use xlink:href="#mbc07c779c6" x="268.263701" y="171.73359" style="fill: #e41a1c; stroke: #e41a1c"/>
     <use xlink:href="#mbc07c779c6" x="279.25157" y="161.614898" style="fill: #e41a1c; stroke: #e41a1c"/>
     <use xlink:href="#mbc07c779c6" x="289.906474" y="157.671732" style="fill: #e41a1c; stroke: #e41a1c"/>
     <use xlink:href="#mbc07c779c6" x="300.244267" y="152.654549" style="fill: #e41a1c; stroke: #e41a1c"/>
     <use xlink:href="#mbc07c779c6" x="310.312516" y="146.294015" style="fill: #e41a1c; stroke: #e41a1c"/>
     <use xlink:href="#mbc07c779c6" x="320.11915" y="138.31464" style="fill: #e41a1c; stroke: #e41a1c"/>
     <use xlink:href="#mbc07c779c6" x="329.680023" y="133.7975" style="fill: #e41a1c; stroke: #e41a1c"/>
     <use xlink:href="#mbc07c779c6" x="339.018919" y="130.182289" style="fill: #e41a1c; stroke: #e41a1c"/>
     <use xlink:href="#mbc07c779c6" x="348.135838" y="127.475733" style="fill: #e41a1c; stroke: #e41a1c"/>
     <use xlink:href="#mbc07c779c6" x="357.070418" y="125.531977" style="fill: #e41a1c; stroke: #e41a1c"/>
     <use xlink:href="#mbc07c779c6" x="365.814733" y="121.256914" style="fill: #e41a1c; stroke: #e41a1c"/>
     <use xlink:href="#mbc07c779c6" x="374.392564" y="114.198221" style="fill: #e41a1c; stroke: #e41a1c"/>
     <use xlink:href="#mbc07c779c6" x="382.788057" y="114.156397" style="fill: #e41a1c; stroke: #e41a1c"/>
     <use xlink:href="#mbc07c779c6" x="391.048779" y="111.54622" style="fill: #e41a1c; stroke: #e41a1c"/>
     <use xlink:href="#mbc07c779c6" x="399.158873" y="105.639356" style="fill: #e41a1c; stroke: #e41a1c"/>
     <use xlink:href="#mbc07c779c6" x="407.118339" y="107.60203" style="fill: #e41a1c; stroke: #e41a1c"/>
     <use xlink:href="#mbc07c779c6" x="414.950962" y="102.510163" style="fill: #e41a1c; stroke: #e41a1c"/>
     <use xlink:href="#mbc07c779c6" x="422.65674" y="101.899176" style="fill: #e41a1c; stroke: #e41a1c"/>
     <use xlink:href="#mbc07c779c6" x="430.235674" y="97.648624" style="fill: #e41a1c; stroke: #e41a1c"/>
     <use xlink:href="#mbc07c779c6" x="437.70362" y="93.713817" style="fill: #e41a1c; stroke: #e41a1c"/>
     <use xlink:href="#mbc07c779c6" x="445.052649" y="94.12965" style="fill: #e41a1c; stroke: #e41a1c"/>
     <use xlink:href="#mbc07c779c6" x="452.298618" y="90.731535" style="fill: #e41a1c; stroke: #e41a1c"/>
     <use xlink:href="#mbc07c779c6" x="459.441526" y="87.509799" style="fill: #e41a1c; stroke: #e41a1c"/>
     <use xlink:href="#mbc07c779c6" x="466.4893" y="89.011969" style="fill: #e41a1c; stroke: #e41a1c"/>
     <use xlink:href="#mbc07c779c6" x="473.434014" y="90.782391" style="fill: #e41a1c; stroke: #e41a1c"/>
     <use xlink:href="#mbc07c779c6" x="480.291523" y="88.577932" style="fill: #e41a1c; stroke: #e41a1c"/>
     <use xlink:href="#mbc07c779c6" x="487.061826" y="86.534943" style="fill: #e41a1c; stroke: #e41a1c"/>
     <use xlink:href="#mbc07c779c6" x="493.752852" y="80.281028" style="fill: #e41a1c; stroke: #e41a1c"/>
     <use xlink:href="#mbc07c779c6" x="500.356672" y="78.590349" style="fill: #e41a1c; stroke: #e41a1c"/>
     <use xlink:href="#mbc07c779c6" x="506.889143" y="72.575798" style="fill: #e41a1c; stroke: #e41a1c"/>
     <use xlink:href="#mbc07c779c6" x="513.342336" y="71.32872" style="fill: #e41a1c; stroke: #e41a1c"/>
     <use xlink:href="#mbc07c779c6" x="519.716251" y="70.259002" style="fill: #e41a1c; stroke: #e41a1c"/>
     <use xlink:href="#mbc07c779c6" x="526.018817" y="69.362765" style="fill: #e41a1c; stroke: #e41a1c"/>
     <use xlink:href="#mbc07c779c6" x="532.25796" y="68.639397" style="fill: #e41a1c; stroke: #e41a1c"/>
     <use xlink:href="#mbc07c779c6" x="538.425754" y="68.182929" style="fill: #e41a1c; stroke: #e41a1c"/>
     <use xlink:href="#mbc07c779c6" x="544.530126" y="67.940115" style="fill: #e41a1c; stroke: #e41a1c"/>
     <use xlink:href="#mbc07c779c6" x="550.571076" y="67.867197" style="fill: #e41a1c; stroke: #e41a1c"/>
     <use xlink:href="#mbc07c779c6" x="556.548603" y="67.971881" style="fill: #e41a1c; stroke: #e41a1c"/>
     <use xlink:href="#mbc07c779c6" x="562.470637" y="68.226072" style="fill: #e41a1c; stroke: #e41a1c"/>
     <use xlink:href="#mbc07c779c6" x="568.338761" y="67.549208" style="fill: #e41a1c; stroke: #e41a1c"/>
     <use xlink:href="#mbc07c779c6" x="574.150599" y="64.318095" style="fill: #e41a1c; stroke: #e41a1c"/>
     <use xlink:href="#mbc07c779c6" x="579.904564" y="58.412483" style="fill: #e41a1c; stroke: #e41a1c"/>
     <use xlink:href="#mbc07c779c6" x="585.599071" y="60.937293" style="fill: #e41a1c; stroke: #e41a1c"/>
     <use xlink:href="#mbc07c779c6" x="591.247596" y="63.088068" style="fill: #e41a1c; stroke: #e41a1c"/>
     <use xlink:href="#mbc07c779c6" x="596.851727" y="61.984096" style="fill: #e41a1c; stroke: #e41a1c"/>
     <use xlink:href="#mbc07c779c6" x="602.405912" y="56.368137" style="fill: #e41a1c; stroke: #e41a1c"/>
     <use xlink:href="#mbc07c779c6" x="607.902225" y="56.607812" style="fill: #e41a1c; stroke: #e41a1c"/>
     <use xlink:href="#mbc07c779c6" x="613.358107" y="59.368705" style="fill: #e41a1c; stroke: #e41a1c"/>
     <use xlink:href="#mbc07c779c6" x="618.774349" y="58.655175" style="fill: #e41a1c; stroke: #e41a1c"/>
     <use xlink:href="#mbc07c779c6" x="624.14144" y="51.478286" style="fill: #e41a1c; stroke: #e41a1c"/>
     <use xlink:href="#mbc07c779c6" x="629.459378" y="56.490956" style="fill: #e41a1c; stroke: #e41a1c"/>
     <use xlink:href="#mbc07c779c6" x="634.747191" y="56.101118" style="fill: #e41a1c; stroke: #e41a1c"/>
     <use xlink:href="#mbc07c779c6" x="639.989023" y="48.413433" style="fill: #e41a1c; stroke: #e41a1c"/>
     <use xlink:href="#mbc07c779c6" x="645.183289" y="54.469363" style="fill: #e41a1c; stroke: #e41a1c"/>
     <use xlink:href="#mbc07c779c6" x="650.352185" y="53.093437" style="fill: #e41a1c; stroke: #e41a1c"/>
     <use xlink:href="#mbc07c779c6" x="655.469551" y="49.333449" style="fill: #e41a1c; stroke: #e41a1c"/>
     <use xlink:href="#mbc07c779c6" x="660.555999" y="52.63918" style="fill: #e41a1c; stroke: #e41a1c"/>
     <use xlink:href="#mbc07c779c6" x="665.612322" y="43.117104" style="fill: #e41a1c; stroke: #e41a1c"/>
     <use xlink:href="#mbc07c779c6" x="670.615528" y="49.901879" style="fill: #e41a1c; stroke: #e41a1c"/>
     <use xlink:href="#mbc07c779c6" x="675.601294" y="48.85269" style="fill: #e41a1c; stroke: #e41a1c"/>
     <use xlink:href="#mbc07c779c6" x="680.536322" y="47.378312" style="fill: #e41a1c; stroke: #e41a1c"/>
     <use xlink:href="#mbc07c779c6" x="685.45153" y="49.176828" style="fill: #e41a1c; stroke: #e41a1c"/>
     <use xlink:href="#mbc07c779c6" x="690.323929" y="44.434061" style="fill: #e41a1c; stroke: #e41a1c"/>
     <use xlink:href="#mbc07c779c6" x="695.170958" y="47.792007" style="fill: #e41a1c; stroke: #e41a1c"/>
     <use xlink:href="#mbc07c779c6" x="699.982313" y="41.729306" style="fill: #e41a1c; stroke: #e41a1c"/>
     <use xlink:href="#mbc07c779c6" x="704.763542" y="46.663842" style="fill: #e41a1c; stroke: #e41a1c"/>
     <use xlink:href="#mbc07c779c6" x="709.514646" y="39.94343" style="fill: #e41a1c; stroke: #e41a1c"/>
     <use xlink:href="#mbc07c779c6" x="714.235625" y="45.074396" style="fill: #e41a1c; stroke: #e41a1c"/>
     <use xlink:href="#mbc07c779c6" x="718.925685" y="39.10147" style="fill: #e41a1c; stroke: #e41a1c"/>
     <use xlink:href="#mbc07c779c6" x="723.590376" y="44.398535" style="fill: #e41a1c; stroke: #e41a1c"/>
     <use xlink:href="#mbc07c779c6" x="728.220186" y="39.924992" style="fill: #e41a1c; stroke: #e41a1c"/>
     <use xlink:href="#mbc07c779c6" x="732.833347" y="42.522368" style="fill: #e41a1c; stroke: #e41a1c"/>
     <use xlink:href="#mbc07c779c6" x="737.405283" y="40.313753" style="fill: #e41a1c; stroke: #e41a1c"/>
     <use xlink:href="#mbc07c779c6" x="741.966914" y="37.208621" style="fill: #e41a1c; stroke: #e41a1c"/>
     <use xlink:href="#mbc07c779c6" x="746.484149" y="40.209562" style="fill: #e41a1c; stroke: #e41a1c"/>
     <use xlink:href="#mbc07c779c6" x="750.990285" y="32.786832" style="fill: #e41a1c; stroke: #e41a1c"/>
     <use xlink:href="#mbc07c779c6" x="755.461539" y="40.294459" style="fill: #e41a1c; stroke: #e41a1c"/>
     <use xlink:href="#mbc07c779c6" x="759.908217" y="35.973038" style="fill: #e41a1c; stroke: #e41a1c"/>
     <use xlink:href="#mbc07c779c6" x="764.340625" y="38.288143" style="fill: #e41a1c; stroke: #e41a1c"/>
     <use xlink:href="#mbc07c779c6" x="768.733395" y="37.900965" style="fill: #e41a1c; stroke: #e41a1c"/>
     <use xlink:href="#mbc07c779c6" x="773.115858" y="30.501711" style="fill: #e41a1c; stroke: #e41a1c"/>
     <use xlink:href="#mbc07c779c6" x="777.468196" y="38.456092" style="fill: #e41a1c; stroke: #e41a1c"/>
     <use xlink:href="#mbc07c779c6" x="781.793579" y="35.06216" style="fill: #e41a1c; stroke: #e41a1c"/>
     <use xlink:href="#mbc07c779c6" x="786.11262" y="27.605481" style="fill: #e41a1c; stroke: #e41a1c"/>
     <use xlink:href="#mbc07c779c6" x="790.390437" y="35.927422" style="fill: #e41a1c; stroke: #e41a1c"/>
     <use xlink:href="#mbc07c779c6" x="794.65002" y="33.342521" style="fill: #e41a1c; stroke: #e41a1c"/>
     <use xlink:href="#mbc07c779c6" x="798.903261" y="27.445054" style="fill: #e41a1c; stroke: #e41a1c"/>
     <use xlink:href="#mbc07c779c6" x="803.115278" y="35.283317" style="fill: #e41a1c; stroke: #e41a1c"/>
    </g>
   </g>
   <g id="line2d_30">
    <defs>
     <path id="mf1fae4f5f1" d="M 0 1.5 
C 0.397805 1.5 0.77937 1.341951 1.06066 1.06066 
C 1.341951 0.77937 1.5 0.397805 1.5 0 
C 1.5 -0.397805 1.341951 -0.77937 1.06066 -1.06066 
C 0.77937 -1.341951 0.397805 -1.5 0 -1.5 
C -0.397805 -1.5 -0.77937 -1.341951 -1.06066 -1.06066 
C -1.341951 -0.77937 -1.5 -0.397805 -1.5 0 
C -1.5 0.397805 -1.341951 0.77937 -1.06066 1.06066 
C -0.77937 1.341951 -0.397805 1.5 0 1.5 
z
" style="stroke: #ff7f00"/>
    </defs>
    <g clip-path="url(#pb9242638cd)">
     <use xlink:href="#mf1fae4f5f1" x="102.090017" y="398.987034" style="fill: #ff7f00; stroke: #ff7f00"/>
     <use xlink:href="#mf1fae4f5f1" x="115.757468" y="361.666292" style="fill: #ff7f00; stroke: #ff7f00"/>
     <use xlink:href="#mf1fae4f5f1" x="128.544937" y="332.740438" style="fill: #ff7f00; stroke: #ff7f00"/>
     <use xlink:href="#mf1fae4f5f1" x="140.634765" y="309.00956" style="fill: #ff7f00; stroke: #ff7f00"/>
     <use xlink:href="#mf1fae4f5f1" x="152.13001" y="289.165248" style="fill: #ff7f00; stroke: #ff7f00"/>
     <use xlink:href="#mf1fae4f5f1" x="163.125807" y="272.465874" style="fill: #ff7f00; stroke: #ff7f00"/>
     <use xlink:href="#mf1fae4f5f1" x="173.661794" y="258.766226" style="fill: #ff7f00; stroke: #ff7f00"/>
     <use xlink:href="#mf1fae4f5f1" x="183.817249" y="244.690473" style="fill: #ff7f00; stroke: #ff7f00"/>
     <use xlink:href="#mf1fae4f5f1" x="193.623883" y="233.054305" style="fill: #ff7f00; stroke: #ff7f00"/>
     <use xlink:href="#mf1fae4f5f1" x="203.113406" y="221.210963" style="fill: #ff7f00; stroke: #ff7f00"/>
     <use xlink:href="#mf1fae4f5f1" x="212.31753" y="212.889855" style="fill: #ff7f00; stroke: #ff7f00"/>
     <use xlink:href="#mf1fae4f5f1" x="221.260038" y="206.234769" style="fill: #ff7f00; stroke: #ff7f00"/>
     <use xlink:href="#mf1fae4f5f1" x="229.964714" y="199.078961" style="fill: #ff7f00; stroke: #ff7f00"/>
     <use xlink:href="#mf1fae4f5f1" x="238.463268" y="190.469436" style="fill: #ff7f00; stroke: #ff7f00"/>
     <use xlink:href="#mf1fae4f5f1" x="246.747772" y="182.432862" style="fill: #ff7f00; stroke: #ff7f00"/>
     <use xlink:href="#mf1fae4f5f1" x="254.849939" y="178.478646" style="fill: #ff7f00; stroke: #ff7f00"/>
     <use xlink:href="#mf1fae4f5f1" x="262.769766" y="172.242652" style="fill: #ff7f00; stroke: #ff7f00"/>
     <use xlink:href="#mf1fae4f5f1" x="270.531039" y="167.143941" style="fill: #ff7f00; stroke: #ff7f00"/>
     <use xlink:href="#mf1fae4f5f1" x="278.133757" y="162.259188" style="fill: #ff7f00; stroke: #ff7f00"/>
     <use xlink:href="#mf1fae4f5f1" x="285.593775" y="155.406487" style="fill: #ff7f00; stroke: #ff7f00"/>
     <use xlink:href="#mf1fae4f5f1" x="292.903165" y="155.269123" style="fill: #ff7f00; stroke: #ff7f00"/>
     <use xlink:href="#mf1fae4f5f1" x="300.077784" y="152.355863" style="fill: #ff7f00; stroke: #ff7f00"/>
     <use xlink:href="#mf1fae4f5f1" x="307.133486" y="146.791842" style="fill: #ff7f00; stroke: #ff7f00"/>
     <use xlink:href="#mf1fae4f5f1" x="314.070272" y="141.662227" style="fill: #ff7f00; stroke: #ff7f00"/>
     <use xlink:href="#mf1fae4f5f1" x="320.89607" y="136.754213" style="fill: #ff7f00; stroke: #ff7f00"/>
     <use xlink:href="#mf1fae4f5f1" x="327.602951" y="135.887465" style="fill: #ff7f00; stroke: #ff7f00"/>
     <use xlink:href="#mf1fae4f5f1" x="334.198844" y="135.512868" style="fill: #ff7f00; stroke: #ff7f00"/>
     <use xlink:href="#mf1fae4f5f1" x="340.707531" y="131.648695" style="fill: #ff7f00; stroke: #ff7f00"/>
     <use xlink:href="#mf1fae4f5f1" x="347.113158" y="128.105329" style="fill: #ff7f00; stroke: #ff7f00"/>
     <use xlink:href="#mf1fae4f5f1" x="353.423651" y="124.857712" style="fill: #ff7f00; stroke: #ff7f00"/>
     <use xlink:href="#mf1fae4f5f1" x="359.646939" y="126.106462" style="fill: #ff7f00; stroke: #ff7f00"/>
     <use xlink:href="#mf1fae4f5f1" x="365.79095" y="119.183703" style="fill: #ff7f00; stroke: #ff7f00"/>
     <use xlink:href="#mf1fae4f5f1" x="371.847755" y="116.725308" style="fill: #ff7f00; stroke: #ff7f00"/>
     <use xlink:href="#mf1fae4f5f1" x="377.825282" y="114.50174" style="fill: #ff7f00; stroke: #ff7f00"/>
     <use xlink:href="#mf1fae4f5f1" x="383.723533" y="112.476921" style="fill: #ff7f00; stroke: #ff7f00"/>
     <use xlink:href="#mf1fae4f5f1" x="389.542505" y="110.639614" style="fill: #ff7f00; stroke: #ff7f00"/>
     <use xlink:href="#mf1fae4f5f1" x="395.290128" y="109.000059" style="fill: #ff7f00; stroke: #ff7f00"/>
     <use xlink:href="#mf1fae4f5f1" x="400.974329" y="107.892201" style="fill: #ff7f00; stroke: #ff7f00"/>
     <use xlink:href="#mf1fae4f5f1" x="406.58718" y="106.916248" style="fill: #ff7f00; stroke: #ff7f00"/>
     <use xlink:href="#mf1fae4f5f1" x="412.136608" y="101.018848" style="fill: #ff7f00; stroke: #ff7f00"/>
     <use xlink:href="#mf1fae4f5f1" x="417.614688" y="100.122749" style="fill: #ff7f00; stroke: #ff7f00"/>
     <use xlink:href="#mf1fae4f5f1" x="423.037272" y="99.825278" style="fill: #ff7f00; stroke: #ff7f00"/>
     <use xlink:href="#mf1fae4f5f1" x="428.396435" y="99.607828" style="fill: #ff7f00; stroke: #ff7f00"/>
     <use xlink:href="#mf1fae4f5f1" x="433.700103" y="94.053953" style="fill: #ff7f00; stroke: #ff7f00"/>
     <use xlink:href="#mf1fae4f5f1" x="438.948278" y="94.246263" style="fill: #ff7f00; stroke: #ff7f00"/>
     <use xlink:href="#mf1fae4f5f1" x="444.140958" y="94.554718" style="fill: #ff7f00; stroke: #ff7f00"/>
     <use xlink:href="#mf1fae4f5f1" x="449.270215" y="94.807814" style="fill: #ff7f00; stroke: #ff7f00"/>
     <use xlink:href="#mf1fae4f5f1" x="454.359834" y="95.720766" style="fill: #ff7f00; stroke: #ff7f00"/>
     <use xlink:href="#mf1fae4f5f1" x="459.401887" y="85.079422" style="fill: #ff7f00; stroke: #ff7f00"/>
     <use xlink:href="#mf1fae4f5f1" x="464.380517" y="91.82161" style="fill: #ff7f00; stroke: #ff7f00"/>
     <use xlink:href="#mf1fae4f5f1" x="469.327437" y="87.177964" style="fill: #ff7f00; stroke: #ff7f00"/>
     <use xlink:href="#mf1fae4f5f1" x="474.218862" y="82.439843" style="fill: #ff7f00; stroke: #ff7f00"/>
     <use xlink:href="#mf1fae4f5f1" x="479.070648" y="83.983841" style="fill: #ff7f00; stroke: #ff7f00"/>
     <use xlink:href="#mf1fae4f5f1" x="483.874868" y="79.343092" style="fill: #ff7f00; stroke: #ff7f00"/>
     <use xlink:href="#mf1fae4f5f1" x="488.639449" y="81.224599" style="fill: #ff7f00; stroke: #ff7f00"/>
     <use xlink:href="#mf1fae4f5f1" x="493.356464" y="76.743506" style="fill: #ff7f00; stroke: #ff7f00"/>
     <use xlink:href="#mf1fae4f5f1" x="498.041767" y="78.895974" style="fill: #ff7f00; stroke: #ff7f00"/>
     <use xlink:href="#mf1fae4f5f1" x="502.679504" y="74.616623" style="fill: #ff7f00; stroke: #ff7f00"/>
     <use xlink:href="#mf1fae4f5f1" x="507.28553" y="76.976327" style="fill: #ff7f00; stroke: #ff7f00"/>
     <use xlink:href="#mf1fae4f5f1" x="511.84399" y="76.797697" style="fill: #ff7f00; stroke: #ff7f00"/>
     <use xlink:href="#mf1fae4f5f1" x="516.378666" y="72.881089" style="fill: #ff7f00; stroke: #ff7f00"/>
     <use xlink:href="#mf1fae4f5f1" x="520.865776" y="75.745641" style="fill: #ff7f00; stroke: #ff7f00"/>
     <use xlink:href="#mf1fae4f5f1" x="525.321174" y="71.761361" style="fill: #ff7f00; stroke: #ff7f00"/>
     <use xlink:href="#mf1fae4f5f1" x="529.75279" y="74.873474" style="fill: #ff7f00; stroke: #ff7f00"/>
     <use xlink:href="#mf1fae4f5f1" x="534.136838" y="70.975539" style="fill: #ff7f00; stroke: #ff7f00"/>
     <use xlink:href="#mf1fae4f5f1" x="538.505032" y="60.645336" style="fill: #ff7f00; stroke: #ff7f00"/>
     <use xlink:href="#mf1fae4f5f1" x="542.833586" y="64.363071" style="fill: #ff7f00; stroke: #ff7f00"/>
     <use xlink:href="#mf1fae4f5f1" x="547.122502" y="67.714751" style="fill: #ff7f00; stroke: #ff7f00"/>
     <use xlink:href="#mf1fae4f5f1" x="551.395562" y="62.690713" style="fill: #ff7f00; stroke: #ff7f00"/>
     <use xlink:href="#mf1fae4f5f1" x="555.628984" y="64.892437" style="fill: #ff7f00; stroke: #ff7f00"/>
     <use xlink:href="#mf1fae4f5f1" x="559.830694" y="61.410642" style="fill: #ff7f00; stroke: #ff7f00"/>
     <use xlink:href="#mf1fae4f5f1" x="564.016549" y="58.446991" style="fill: #ff7f00; stroke: #ff7f00"/>
     <use xlink:href="#mf1fae4f5f1" x="568.163558" y="63.546918" style="fill: #ff7f00; stroke: #ff7f00"/>
     <use xlink:href="#mf1fae4f5f1" x="572.282027" y="62.966746" style="fill: #ff7f00; stroke: #ff7f00"/>
     <use xlink:href="#mf1fae4f5f1" x="576.382262" y="58.173651" style="fill: #ff7f00; stroke: #ff7f00"/>
     <use xlink:href="#mf1fae4f5f1" x="580.456336" y="63.130664" style="fill: #ff7f00; stroke: #ff7f00"/>
     <use xlink:href="#mf1fae4f5f1" x="584.49632" y="62.870637" style="fill: #ff7f00; stroke: #ff7f00"/>
     <use xlink:href="#mf1fae4f5f1" x="588.514106" y="60.606871" style="fill: #ff7f00; stroke: #ff7f00"/>
     <use xlink:href="#mf1fae4f5f1" x="592.51683" y="55.843174" style="fill: #ff7f00; stroke: #ff7f00"/>
     <use xlink:href="#mf1fae4f5f1" x="596.486257" y="62.647636" style="fill: #ff7f00; stroke: #ff7f00"/>
     <use xlink:href="#mf1fae4f5f1" x="600.427937" y="62.569908" style="fill: #ff7f00; stroke: #ff7f00"/>
     <use xlink:href="#mf1fae4f5f1" x="604.350591" y="60.31198" style="fill: #ff7f00; stroke: #ff7f00"/>
     <use xlink:href="#mf1fae4f5f1" x="608.256596" y="56.349173" style="fill: #ff7f00; stroke: #ff7f00"/>
     <use xlink:href="#mf1fae4f5f1" x="612.137232" y="61.865416" style="fill: #ff7f00; stroke: #ff7f00"/>
     <use xlink:href="#mf1fae4f5f1" x="615.988536" y="62.541465" style="fill: #ff7f00; stroke: #ff7f00"/>
     <use xlink:href="#mf1fae4f5f1" x="619.82002" y="61.01868" style="fill: #ff7f00; stroke: #ff7f00"/>
     <use xlink:href="#mf1fae4f5f1" x="623.634063" y="58.616535" style="fill: #ff7f00; stroke: #ff7f00"/>
     <use xlink:href="#mf1fae4f5f1" x="627.433837" y="53.639906" style="fill: #ff7f00; stroke: #ff7f00"/>
     <use xlink:href="#mf1fae4f5f1" x="631.204277" y="60.922644" style="fill: #ff7f00; stroke: #ff7f00"/>
     <use xlink:href="#mf1fae4f5f1" x="634.951727" y="60.765191" style="fill: #ff7f00; stroke: #ff7f00"/>
     <use xlink:href="#mf1fae4f5f1" x="638.680151" y="59.866036" style="fill: #ff7f00; stroke: #ff7f00"/>
     <use xlink:href="#mf1fae4f5f1" x="642.391133" y="57.379564" style="fill: #ff7f00; stroke: #ff7f00"/>
     <use xlink:href="#mf1fae4f5f1" x="646.087845" y="53.133443" style="fill: #ff7f00; stroke: #ff7f00"/>
     <use xlink:href="#mf1fae4f5f1" x="649.76791" y="50.524279" style="fill: #ff7f00; stroke: #ff7f00"/>
     <use xlink:href="#mf1fae4f5f1" x="653.420227" y="58.184681" style="fill: #ff7f00; stroke: #ff7f00"/>
     <use xlink:href="#mf1fae4f5f1" x="657.053517" y="58.189253" style="fill: #ff7f00; stroke: #ff7f00"/>
     <use xlink:href="#mf1fae4f5f1" x="660.669366" y="57.356983" style="fill: #ff7f00; stroke: #ff7f00"/>
     <use xlink:href="#mf1fae4f5f1" x="664.268567" y="55.844713" style="fill: #ff7f00; stroke: #ff7f00"/>
     <use xlink:href="#mf1fae4f5f1" x="667.852705" y="52.572711" style="fill: #ff7f00; stroke: #ff7f00"/>
    </g>
   </g>
   <g id="line2d_31">
    <defs>
     <path id="mad1680966d" d="M 0 1.5 
C 0.397805 1.5 0.77937 1.341951 1.06066 1.06066 
C 1.341951 0.77937 1.5 0.397805 1.5 0 
C 1.5 -0.397805 1.341951 -0.77937 1.06066 -1.06066 
C 0.77937 -1.341951 0.397805 -1.5 0 -1.5 
C -0.397805 -1.5 -0.77937 -1.341951 -1.06066 -1.06066 
C -1.341951 -0.77937 -1.5 -0.397805 -1.5 0 
C -1.5 0.397805 -1.341951 0.77937 -1.06066 1.06066 
C -0.77937 1.341951 -0.397805 1.5 0 1.5 
z
" style="stroke: #999999"/>
    </defs>
    <g clip-path="url(#pb9242638cd)">
     <use xlink:href="#mad1680966d" x="92.933459" y="432.346139" style="fill: #999999; stroke: #999999"/>
     <use xlink:href="#mad1680966d" x="97.745607" y="415.411471" style="fill: #999999; stroke: #999999"/>
     <use xlink:href="#mad1680966d" x="102.430911" y="400.816426" style="fill: #999999; stroke: #999999"/>
     <use xlink:href="#mad1680966d" x="106.98937" y="387.273805" style="fill: #999999; stroke: #999999"/>
     <use xlink:href="#mad1680966d" x="111.468552" y="374.763201" style="fill: #999999; stroke: #999999"/>
     <use xlink:href="#mad1680966d" x="115.836745" y="364.996077" style="fill: #999999; stroke: #999999"/>
     <use xlink:href="#mad1680966d" x="120.133589" y="352.994453" style="fill: #999999; stroke: #999999"/>
     <use xlink:href="#mad1680966d" x="124.359082" y="343.278908" style="fill: #999999; stroke: #999999"/>
     <use xlink:href="#mad1680966d" x="128.497371" y="336.751438" style="fill: #999999; stroke: #999999"/>
     <use xlink:href="#mad1680966d" x="132.580165" y="326.485274" style="fill: #999999; stroke: #999999"/>
     <use xlink:href="#mad1680966d" x="136.607465" y="316.396024" style="fill: #999999; stroke: #999999"/>
     <use xlink:href="#mad1680966d" x="140.563415" y="309.378203" style="fill: #999999; stroke: #999999"/>
     <use xlink:href="#mad1680966d" x="144.46387" y="303.21505" style="fill: #999999; stroke: #999999"/>
     <use xlink:href="#mad1680966d" x="148.31676" y="294.386249" style="fill: #999999; stroke: #999999"/>
     <use xlink:href="#mad1680966d" x="152.122082" y="289.059092" style="fill: #999999; stroke: #999999"/>
     <use xlink:href="#mad1680966d" x="155.871911" y="284.212355" style="fill: #999999; stroke: #999999"/>
     <use xlink:href="#mad1680966d" x="159.574173" y="279.858492" style="fill: #999999; stroke: #999999"/>
     <use xlink:href="#mad1680966d" x="163.228868" y="276.1526" style="fill: #999999; stroke: #999999"/>
     <use xlink:href="#mad1680966d" x="166.843924" y="268.805582" style="fill: #999999; stroke: #999999"/>
     <use xlink:href="#mad1680966d" x="170.411414" y="265.736546" style="fill: #999999; stroke: #999999"/>
     <use xlink:href="#mad1680966d" x="173.939266" y="258.679938" style="fill: #999999; stroke: #999999"/>
     <use xlink:href="#mad1680966d" x="177.427478" y="251.689354" style="fill: #999999; stroke: #999999"/>
     <use xlink:href="#mad1680966d" x="180.868124" y="249.463491" style="fill: #999999; stroke: #999999"/>
     <use xlink:href="#mad1680966d" x="184.269131" y="242.778422" style="fill: #999999; stroke: #999999"/>
     <use xlink:href="#mad1680966d" x="187.622572" y="241.168995" style="fill: #999999; stroke: #999999"/>
     <use xlink:href="#mad1680966d" x="190.944301" y="239.929245" style="fill: #999999; stroke: #999999"/>
     <use xlink:href="#mad1680966d" x="194.226392" y="233.781176" style="fill: #999999; stroke: #999999"/>
     <use xlink:href="#mad1680966d" x="197.476772" y="227.701632" style="fill: #999999; stroke: #999999"/>
     <use xlink:href="#mad1680966d" x="200.687513" y="227.305892" style="fill: #999999; stroke: #999999"/>
     <use xlink:href="#mad1680966d" x="203.866543" y="221.565227" style="fill: #999999; stroke: #999999"/>
     <use xlink:href="#mad1680966d" x="207.013862" y="215.927336" style="fill: #999999; stroke: #999999"/>
     <use xlink:href="#mad1680966d" x="210.12947" y="216.389207" style="fill: #999999; stroke: #999999"/>
     <use xlink:href="#mad1680966d" x="213.213366" y="211.055893" style="fill: #999999; stroke: #999999"/>
     <use xlink:href="#mad1680966d" x="216.27348" y="205.770053" style="fill: #999999; stroke: #999999"/>
     <use xlink:href="#mad1680966d" x="219.301883" y="206.953801" style="fill: #999999; stroke: #999999"/>
     <use xlink:href="#mad1680966d" x="222.298574" y="201.94631" style="fill: #999999; stroke: #999999"/>
     <use xlink:href="#mad1680966d" x="225.271483" y="203.684174" style="fill: #999999; stroke: #999999"/>
     <use xlink:href="#mad1680966d" x="228.220608" y="198.889883" style="fill: #999999; stroke: #999999"/>
     <use xlink:href="#mad1680966d" x="231.14595" y="194.131871" style="fill: #999999; stroke: #999999"/>
     <use xlink:href="#mad1680966d" x="234.03958" y="196.535363" style="fill: #999999; stroke: #999999"/>
     <use xlink:href="#mad1680966d" x="236.917356" y="192.034849" style="fill: #999999; stroke: #999999"/>
     <use xlink:href="#mad1680966d" x="239.771348" y="187.405689" style="fill: #999999; stroke: #999999"/>
     <use xlink:href="#mad1680966d" x="242.593629" y="190.08616" style="fill: #999999; stroke: #999999"/>
     <use xlink:href="#mad1680966d" x="245.400054" y="185.321222" style="fill: #999999; stroke: #999999"/>
     <use xlink:href="#mad1680966d" x="248.174768" y="180.828817" style="fill: #999999; stroke: #999999"/>
     <use xlink:href="#mad1680966d" x="250.9257" y="176.579526" style="fill: #999999; stroke: #999999"/>
     <use xlink:href="#mad1680966d" x="253.652847" y="180.312763" style="fill: #999999; stroke: #999999"/>
     <use xlink:href="#mad1680966d" x="256.356212" y="175.547194" style="fill: #999999; stroke: #999999"/>
     <use xlink:href="#mad1680966d" x="259.019938" y="178.314459" style="fill: #999999; stroke: #999999"/>
     <use xlink:href="#mad1680966d" x="261.659881" y="172.587547" style="fill: #999999; stroke: #999999"/>
     <use xlink:href="#mad1680966d" x="264.252257" y="174.950141" style="fill: #999999; stroke: #999999"/>
     <use xlink:href="#mad1680966d" x="266.812922" y="169.573451" style="fill: #999999; stroke: #999999"/>
     <use xlink:href="#mad1680966d" x="269.341876" y="164.909745" style="fill: #999999; stroke: #999999"/>
     <use xlink:href="#mad1680966d" x="271.831191" y="168.586223" style="fill: #999999; stroke: #999999"/>
     <use xlink:href="#mad1680966d" x="274.296723" y="163.578381" style="fill: #999999; stroke: #999999"/>
     <use xlink:href="#mad1680966d" x="276.738472" y="168.486824" style="fill: #999999; stroke: #999999"/>
     <use xlink:href="#mad1680966d" x="279.156437" y="154.664542" style="fill: #999999; stroke: #999999"/>
     <use xlink:href="#mad1680966d" x="281.534764" y="159.674261" style="fill: #999999; stroke: #999999"/>
     <use xlink:href="#mad1680966d" x="283.905163" y="154.559867" style="fill: #999999; stroke: #999999"/>
     <use xlink:href="#mad1680966d" x="286.243851" y="159.588148" style="fill: #999999; stroke: #999999"/>
     <use xlink:href="#mad1680966d" x="288.558755" y="155.181645" style="fill: #999999; stroke: #999999"/>
     <use xlink:href="#mad1680966d" x="290.841949" y="151.706733" style="fill: #999999; stroke: #999999"/>
     <use xlink:href="#mad1680966d" x="293.109287" y="158.487704" style="fill: #999999; stroke: #999999"/>
     <use xlink:href="#mad1680966d" x="295.368697" y="144.385839" style="fill: #999999; stroke: #999999"/>
     <use xlink:href="#mad1680966d" x="297.588469" y="151.099267" style="fill: #999999; stroke: #999999"/>
     <use xlink:href="#mad1680966d" x="299.80824" y="146.808366" style="fill: #999999; stroke: #999999"/>
     <use xlink:href="#mad1680966d" x="302.020084" y="142.233584" style="fill: #999999; stroke: #999999"/>
     <use xlink:href="#mad1680966d" x="304.200217" y="148.25824" style="fill: #999999; stroke: #999999"/>
     <use xlink:href="#mad1680966d" x="306.348639" y="142.999003" style="fill: #999999; stroke: #999999"/>
     <use xlink:href="#mad1680966d" x="308.473277" y="150.331748" style="fill: #999999; stroke: #999999"/>
     <use xlink:href="#mad1680966d" x="310.589988" y="146.869529" style="fill: #999999; stroke: #999999"/>
     <use xlink:href="#mad1680966d" x="312.659132" y="145.442458" style="fill: #999999; stroke: #999999"/>
     <use xlink:href="#mad1680966d" x="314.752059" y="144.838604" style="fill: #999999; stroke: #999999"/>
     <use xlink:href="#mad1680966d" x="316.844987" y="131.93327" style="fill: #999999; stroke: #999999"/>
     <use xlink:href="#mad1680966d" x="318.906203" y="141.259604" style="fill: #999999; stroke: #999999"/>
     <use xlink:href="#mad1680966d" x="320.983275" y="138.048183" style="fill: #999999; stroke: #999999"/>
     <use xlink:href="#mad1680966d" x="323.028636" y="135.471823" style="fill: #999999; stroke: #999999"/>
     <use xlink:href="#mad1680966d" x="325.089853" y="132.425999" style="fill: #999999; stroke: #999999"/>
     <use xlink:href="#mad1680966d" x="327.127286" y="129.489847" style="fill: #999999; stroke: #999999"/>
     <use xlink:href="#mad1680966d" x="329.117152" y="125.871668" style="fill: #999999; stroke: #999999"/>
     <use xlink:href="#mad1680966d" x="331.114947" y="147.009683" style="fill: #999999; stroke: #999999"/>
     <use xlink:href="#mad1680966d" x="333.096886" y="117.910129" style="fill: #999999; stroke: #999999"/>
     <use xlink:href="#mad1680966d" x="335.070897" y="128.705044" style="fill: #999999; stroke: #999999"/>
     <use xlink:href="#mad1680966d" x="337.044908" y="126.74556" style="fill: #999999; stroke: #999999"/>
     <use xlink:href="#mad1680966d" x="338.995136" y="137.762799" style="fill: #999999; stroke: #999999"/>
     <use xlink:href="#mad1680966d" x="340.929508" y="135.478739" style="fill: #999999; stroke: #999999"/>
     <use xlink:href="#mad1680966d" x="342.863881" y="133.456327" style="fill: #999999; stroke: #999999"/>
     <use xlink:href="#mad1680966d" x="344.77447" y="131.796102" style="fill: #999999; stroke: #999999"/>
     <use xlink:href="#mad1680966d" x="346.692986" y="129.573491" style="fill: #999999; stroke: #999999"/>
     <use xlink:href="#mad1680966d" x="348.595648" y="113.480383" style="fill: #999999; stroke: #999999"/>
     <use xlink:href="#mad1680966d" x="350.482454" y="123.703412" style="fill: #999999; stroke: #999999"/>
     <use xlink:href="#mad1680966d" x="352.361332" y="120.826573" style="fill: #999999; stroke: #999999"/>
     <use xlink:href="#mad1680966d" x="354.24021" y="118.814167" style="fill: #999999; stroke: #999999"/>
     <use xlink:href="#mad1680966d" x="356.11116" y="131.357729" style="fill: #999999; stroke: #999999"/>
     <use xlink:href="#mad1680966d" x="357.966255" y="129.863419" style="fill: #999999; stroke: #999999"/>
     <use xlink:href="#mad1680966d" x="359.829277" y="113.837214" style="fill: #999999; stroke: #999999"/>
     <use xlink:href="#mad1680966d" x="361.676444" y="125.433137" style="fill: #999999; stroke: #999999"/>
     <use xlink:href="#mad1680966d" x="363.515684" y="123.769437" style="fill: #999999; stroke: #999999"/>
     <use xlink:href="#mad1680966d" x="365.339067" y="120.826479" style="fill: #999999; stroke: #999999"/>
    </g>
   </g>
   <g id="patch_3">
    <path d="M 57.424369 450.72 
L 57.424369 7.2 
" style="fill: none; stroke: #000000; stroke-width: 0.8; stroke-linejoin: miter; stroke-linecap: square"/>
   </g>
   <g id="patch_4">
    <path d="M 838.624369 450.72 
L 838.624369 7.2 
" style="fill: none; stroke: #000000; stroke-width: 0.8; stroke-linejoin: miter; stroke-linecap: square"/>
   </g>
   <g id="patch_5">
    <path d="M 57.424369 450.72 
L 838.624369 450.72 
" style="fill: none; stroke: #000000; stroke-width: 0.8; stroke-linejoin: miter; stroke-linecap: square"/>
   </g>
   <g id="patch_6">
    <path d="M 57.424369 7.2 
L 838.624369 7.2 
" style="fill: none; stroke: #000000; stroke-width: 0.8; stroke-linejoin: miter; stroke-linecap: square"/>
   </g>
   <g id="legend_1">
    <g id="patch_7">
     <path d="M 70.024369 96.863828 
L 199.686867 96.863828 
Q 203.286867 96.863828 203.286867 93.263828 
L 203.286867 19.8 
Q 203.286867 16.2 199.686867 16.2 
L 70.024369 16.2 
Q 66.424369 16.2 66.424369 19.8 
L 66.424369 93.263828 
Q 66.424369 96.863828 70.024369 96.863828 
z
" style="fill: #ffffff; opacity: 0.8; stroke: #cccccc; stroke-linejoin: miter"/>
    </g>
    <g id="line2d_32">
     <g>
      <use xlink:href="#mbc07c779c6" x="91.624369" y="29.7" style="fill: #e41a1c; stroke: #e41a1c"/>
     </g>
    </g>
    <g id="text_18">
     <!-- \boldmath{$\theta_{e}=15^{\circ}$} -->
     <g transform="translate(124.024369 36) scale(0.18 -0.18)">
      <defs>
       <path id="LMMathItalic10-Bold-12" d="M 3501 3123 
C 3501 4250 2835 4480 2445 4480 
C 1939 4480 1299 4148 819 3277 
C 493 2675 294 1805 294 1287 
C 294 359 781 -64 1357 -64 
C 1786 -64 2349 186 2790 839 
C 3328 1626 3501 2644 3501 3123 
z
M 2605 2353 
L 1267 2353 
C 1357 2727 1523 3312 1715 3647 
C 1862 3910 2125 4251 2432 4251 
C 2701 4251 2816 3969 2816 3589 
C 2816 3183 2675 2623 2605 2353 
z
M 2528 2048 
C 2131 338 1594 165 1370 165 
C 1280 165 1146 190 1056 389 
C 979 560 979 816 979 816 
C 979 1180 1120 1773 1190 2048 
L 2528 2048 
z
" transform="scale(0.015625)"/>
       <path id="LMMathItalic10-Bold-65" d="M 3270 572 
C 3270 623 3168 737 3110 737 
C 3072 737 3059 718 3014 667 
C 2669 306 2170 165 1670 165 
C 1210 165 1043 419 1043 780 
C 1043 901 1069 1111 1139 1371 
L 1421 1371 
C 1850 1371 2266 1409 2534 1500 
C 3078 1687 3168 2054 3168 2261 
C 3168 2635 2816 2880 2291 2880 
C 1133 2880 314 2079 314 1088 
C 314 352 806 -64 1651 -64 
C 1818 -64 2259 -64 2643 84 
C 3014 231 3270 495 3270 572 
z
M 2784 2255 
C 2784 1600 1818 1600 1197 1600 
C 1312 2073 1466 2248 1574 2352 
C 1798 2579 2093 2650 2291 2650 
C 2522 2650 2784 2546 2784 2255 
z
" transform="scale(0.015625)"/>
       <path id="LMRoman12-Bold-3d" d="M 5197 2261 
C 5197 2432 5024 2432 4941 2432 
L 653 2432 
C 570 2432 397 2432 397 2261 
C 397 2083 563 2083 659 2083 
L 4934 2083 
C 5030 2083 5197 2083 5197 2261 
z
M 5197 876 
C 5197 1054 5030 1054 4934 1054 
L 659 1054 
C 563 1054 397 1054 397 876 
C 397 704 570 704 653 704 
L 4941 704 
C 5024 704 5197 704 5197 876 
z
" transform="scale(0.015625)"/>
       <path id="LMRoman12-Bold-31" d="M 3091 0 
L 3091 267 
L 2214 267 
L 2214 3975 
C 2214 4160 2202 4160 1997 4160 
C 1523 3776 813 3776 672 3776 
L 550 3776 
L 550 3503 
L 672 3503 
C 896 3503 1235 3541 1491 3624 
L 1491 267 
L 602 267 
L 602 0 
L 1843 0 
L 3091 0 
z
" transform="scale(0.015625)"/>
       <path id="LMRoman12-Bold-35" d="M 3232 1293 
C 3232 2070 2701 2624 1824 2624 
C 1568 2624 1261 2573 986 2369 
L 986 3315 
C 1203 3264 1376 3264 1472 3264 
C 1626 3264 1990 3264 2419 3527 
C 2618 3647 2950 3936 2950 4083 
C 2950 4115 2950 4192 2874 4192 
C 2874 4192 2854 4192 2790 4159 
C 2496 4054 2182 3982 1824 3982 
C 1459 3982 1152 4052 851 4160 
C 806 4173 787 4186 768 4186 
C 691 4186 691 4122 691 4014 
L 691 2163 
C 691 2042 691 1972 819 1972 
C 883 1972 896 1979 947 2042 
C 1024 2132 1254 2414 1798 2414 
C 2387 2414 2387 1815 2387 1312 
C 2387 852 2387 190 1600 190 
C 1363 190 960 279 742 640 
C 1082 640 1165 895 1165 1035 
C 1165 1264 998 1435 762 1435 
C 570 1435 358 1321 358 1022 
C 358 470 864 -64 1626 -64 
C 2611 -64 3232 503 3232 1293 
z
" transform="scale(0.015625)"/>
       <path id="LMMathSymbols10-Bold-e" d="M 3264 1597 
C 3264 2470 2669 3024 1837 3024 
C 979 3024 410 2438 410 1603 
C 410 731 1005 177 1837 177 
C 2694 177 3264 763 3264 1597 
z
M 2874 1603 
C 2874 942 2445 567 1837 567 
C 1190 567 800 980 800 1597 
C 800 2259 1229 2633 1837 2633 
C 2483 2633 2874 2220 2874 1603 
z
" transform="scale(0.015625)"/>
      </defs>
      <use xlink:href="#LMMathItalic10-Bold-12" transform="scale(0.996264)"/>
      <use xlink:href="#LMMathItalic10-Bold-65" transform="translate(55.970394 -14.943915) scale(0.697382)"/>
      <use xlink:href="#LMRoman12-Bold-3d" transform="translate(126.90112 0) scale(0.996264)"/>
      <use xlink:href="#LMRoman12-Bold-31" transform="translate(245.899152 0) scale(0.996264)"/>
      <use xlink:href="#LMRoman12-Bold-35" transform="translate(301.939003 0) scale(0.996264)"/>
      <use xlink:href="#LMMathSymbols10-Bold-e" transform="translate(357.978853 36.153639) scale(0.697382)"/>
     </g>
    </g>
    <g id="line2d_33">
     <g>
      <use xlink:href="#mf1fae4f5f1" x="91.624369" y="54.787943" style="fill: #ff7f00; stroke: #ff7f00"/>
     </g>
    </g>
    <g id="text_19">
     <!-- \boldmath{$\theta_{e}=45^{\circ}$} -->
     <g transform="translate(124.024369 61.087943) scale(0.18 -0.18)">
      <defs>
       <path id="LMRoman12-Bold-34" d="M 3392 -6 
L 3392 267 
L 2771 267 
L 2771 1006 
L 3392 1006 
L 3392 1280 
L 2771 1280 
L 2771 4007 
C 2771 4166 2765 4192 2605 4192 
C 2490 4192 2477 4192 2400 4096 
L 198 1280 
L 198 1006 
L 2016 1006 
L 2016 267 
L 1318 267 
L 1318 0 
C 1504 0 2138 0 2368 0 
C 2586 0 3219 0 3392 -6 
z
M 2074 1280 
L 493 1280 
L 2074 3302 
L 2074 1280 
z
" transform="scale(0.015625)"/>
      </defs>
      <use xlink:href="#LMMathItalic10-Bold-12" transform="scale(0.996264)"/>
      <use xlink:href="#LMMathItalic10-Bold-65" transform="translate(55.970394 -14.943915) scale(0.697382)"/>
      <use xlink:href="#LMRoman12-Bold-3d" transform="translate(126.90112 0) scale(0.996264)"/>
      <use xlink:href="#LMRoman12-Bold-34" transform="translate(245.899152 0) scale(0.996264)"/>
      <use xlink:href="#LMRoman12-Bold-35" transform="translate(301.939003 0) scale(0.996264)"/>
      <use xlink:href="#LMMathSymbols10-Bold-e" transform="translate(357.978853 36.153639) scale(0.697382)"/>
     </g>
    </g>
    <g id="line2d_34">
     <g>
      <use xlink:href="#mad1680966d" x="91.624369" y="79.875885" style="fill: #999999; stroke: #999999"/>
     </g>
    </g>
    <g id="text_20">
     <!-- \boldmath{$\theta_{e}=75^{\circ}$} -->
     <g transform="translate(124.024369 86.175885) scale(0.18 -0.18)">
      <defs>
       <path id="LMRoman12-Bold-37" d="M 3488 4155 
L 2138 4155 
C 2093 4155 1139 4155 1062 4168 
C 902 4193 890 4260 877 4322 
L 608 4322 
L 397 2752 
L 666 2752 
C 672 2817 723 3280 832 3353 
C 890 3392 1421 3392 1523 3392 
L 2682 3392 
C 1939 2487 1856 2384 1658 2005 
C 1280 1259 1222 681 1222 366 
C 1222 -64 1549 -64 1600 -64 
C 1760 -64 1850 19 1894 64 
C 1978 168 1978 245 1978 528 
C 1978 1511 2067 2232 2470 2714 
L 3430 3865 
C 3488 3929 3488 3943 3488 4155 
z
" transform="scale(0.015625)"/>
      </defs>
      <use xlink:href="#LMMathItalic10-Bold-12" transform="scale(0.996264)"/>
      <use xlink:href="#LMMathItalic10-Bold-65" transform="translate(55.970394 -14.943915) scale(0.697382)"/>
      <use xlink:href="#LMRoman12-Bold-3d" transform="translate(126.90112 0) scale(0.996264)"/>
      <use xlink:href="#LMRoman12-Bold-37" transform="translate(245.899152 0) scale(0.996264)"/>
      <use xlink:href="#LMRoman12-Bold-35" transform="translate(301.939003 0) scale(0.996264)"/>
      <use xlink:href="#LMMathSymbols10-Bold-e" transform="translate(357.978853 36.153639) scale(0.697382)"/>
     </g>
    </g>
   </g>
  </g>
 </g>
 <defs>
  <clipPath id="pb9242638cd">
   <rect x="57.424369" y="7.2" width="781.2" height="443.52"/>
  </clipPath>
 </defs>
</svg>
