<?xml version="1.0" encoding="utf-8" standalone="no"?>
<!DOCTYPE svg PUBLIC "-//W3C//DTD SVG 1.1//EN"
  "http://www.w3.org/Graphics/SVG/1.1/DTD/svg11.dtd">
<svg xmlns:xlink="http://www.w3.org/1999/xlink" width="833.277745pt" height="438.393593pt" viewBox="0 0 833.277745 438.393593" xmlns="http://www.w3.org/2000/svg" version="1.1">
 <metadata>
  <rdf:RDF xmlns:dc="http://purl.org/dc/elements/1.1/" xmlns:cc="http://creativecommons.org/ns#" xmlns:rdf="http://www.w3.org/1999/02/22-rdf-syntax-ns#">
   <cc:Work>
    <dc:type rdf:resource="http://purl.org/dc/dcmitype/StillImage"/>
    <dc:date>2024-01-12T01:37:18.817922</dc:date>
    <dc:format>image/svg+xml</dc:format>
    <dc:creator>
     <cc:Agent>
      <dc:title>Matplotlib v3.7.2, https://matplotlib.org/</dc:title>
     </cc:Agent>
    </dc:creator>
   </cc:Work>
  </rdf:RDF>
 </metadata>
 <defs>
  <style type="text/css">*{stroke-linejoin: round; stroke-linecap: butt}</style>
 </defs>
 <g id="figure_1">
  <g id="patch_1">
   <path d="M 0 438.393593 
L 833.277745 438.393593 
L 833.277745 0 
L 0 0 
z
" style="fill: #ffffff"/>
  </g>
  <g id="axes_1">
   <g id="patch_2">
    <path d="M 44.877745 395.28 
L 399.968654 395.28 
L 399.968654 7.2 
L 44.877745 7.2 
z
" style="fill: #ffffff"/>
   </g>
   <g id="matplotlib.axis_1">
    <g id="xtick_1">
     <g id="line2d_1">
      <path d="M 53.956774 395.28 
L 53.956774 7.2 
" clip-path="url(#pf0c71fcfe7)" style="fill: none; stroke: #b0b0b0; stroke-width: 0.7; stroke-linecap: square"/>
     </g>
     <g id="line2d_2">
      <defs>
       <path id="ma121a74e26" d="M 0 0 
L 0 3.5 
" style="stroke: #000000; stroke-width: 0.8"/>
      </defs>
      <g>
       <use xlink:href="#ma121a74e26" x="53.956774" y="395.28" style="stroke: #000000; stroke-width: 0.8"/>
      </g>
     </g>
     <g id="text_1">
      <!-- $\mathdefault{0.0}$ -->
      <g transform="translate(47.591749 409.143012) scale(0.1 -0.1)">
       <defs>
        <path id="LMRoman17-Regular-30" d="M 2688 2025 
C 2688 2416 2682 3080 2413 3591 
C 2176 4039 1798 4198 1466 4198 
C 1158 4198 768 4058 525 3597 
C 269 3118 243 2524 243 2025 
C 243 1661 250 1106 448 619 
C 723 -39 1216 -128 1466 -128 
C 1760 -128 2208 -7 2470 600 
C 2662 1042 2688 1559 2688 2025 
z
M 2278 2096 
C 2278 1680 2278 1169 2202 792 
C 2067 95 1690 -26 1466 -26 
C 1056 -26 813 325 723 812 
C 653 1188 653 1738 653 2096 
C 653 2588 653 2997 736 3387 
C 858 3929 1216 4096 1466 4096 
C 1728 4096 2067 3923 2189 3400 
C 2272 3036 2278 2607 2278 2096 
z
" transform="scale(0.015625)"/>
        <path id="LMMathItalic12-Regular-3a" d="M 1178 307 
C 1178 492 1024 619 870 619 
C 685 619 557 466 557 313 
C 557 128 710 0 864 0 
C 1050 0 1178 153 1178 307 
z
" transform="scale(0.015625)"/>
       </defs>
       <use xlink:href="#LMRoman17-Regular-30" transform="scale(0.996264)"/>
       <use xlink:href="#LMMathItalic12-Regular-3a" transform="translate(45.690948 0) scale(0.996264)"/>
       <use xlink:href="#LMRoman17-Regular-30" transform="translate(72.788125 0) scale(0.996264)"/>
      </g>
     </g>
    </g>
    <g id="xtick_2">
     <g id="line2d_3">
      <path d="M 121.20884 395.28 
L 121.20884 7.2 
" clip-path="url(#pf0c71fcfe7)" style="fill: none; stroke: #b0b0b0; stroke-width: 0.7; stroke-linecap: square"/>
     </g>
     <g id="line2d_4">
      <g>
       <use xlink:href="#ma121a74e26" x="121.20884" y="395.28" style="stroke: #000000; stroke-width: 0.8"/>
      </g>
     </g>
     <g id="text_2">
      <!-- $\mathdefault{0.2}$ -->
      <g transform="translate(114.843815 409.143012) scale(0.1 -0.1)">
       <defs>
        <path id="LMRoman17-Regular-32" d="M 2669 989 
L 2554 989 
C 2490 536 2438 459 2413 420 
C 2381 369 1920 369 1830 369 
L 602 369 
L 1824 1597 
C 2214 1967 2669 2402 2669 3035 
C 2669 3790 2067 4224 1395 4224 
C 691 4224 262 3604 262 3030 
C 262 2780 448 2748 525 2748 
C 589 2748 781 2787 781 3010 
C 781 3207 614 3264 525 3264 
C 486 3264 448 3258 422 3245 
C 544 3790 915 4058 1306 4058 
C 1862 4058 2227 3617 2227 3035 
C 2227 2479 1901 2000 1536 1584 
L 262 146 
L 262 0 
L 2515 0 
L 2669 989 
z
" transform="scale(0.015625)"/>
       </defs>
       <use xlink:href="#LMRoman17-Regular-30" transform="scale(0.996264)"/>
       <use xlink:href="#LMMathItalic12-Regular-3a" transform="translate(45.690948 0) scale(0.996264)"/>
       <use xlink:href="#LMRoman17-Regular-32" transform="translate(72.788125 0) scale(0.996264)"/>
      </g>
     </g>
    </g>
    <g id="xtick_3">
     <g id="line2d_5">
      <path d="M 188.460906 395.28 
L 188.460906 7.2 
" clip-path="url(#pf0c71fcfe7)" style="fill: none; stroke: #b0b0b0; stroke-width: 0.7; stroke-linecap: square"/>
     </g>
     <g id="line2d_6">
      <g>
       <use xlink:href="#ma121a74e26" x="188.460906" y="395.28" style="stroke: #000000; stroke-width: 0.8"/>
      </g>
     </g>
     <g id="text_3">
      <!-- $\mathdefault{0.4}$ -->
      <g transform="translate(182.095882 409.143012) scale(0.1 -0.1)">
       <defs>
        <path id="LMRoman17-Regular-34" d="M 2803 1114 
L 2803 1280 
L 2150 1280 
L 2150 4154 
C 2150 4288 2144 4288 2029 4288 
L 128 1280 
L 128 1114 
L 1779 1114 
L 1779 487 
C 1779 255 1766 192 1318 192 
L 1197 192 
L 1197 32 
C 1402 32 1747 32 1965 32 
C 2182 32 2528 32 2733 32 
L 2733 192 
L 2611 192 
C 2163 192 2150 255 2150 487 
L 2150 1114 
L 2803 1114 
z
M 1798 1280 
L 256 1280 
L 1798 3734 
L 1798 1280 
z
" transform="scale(0.015625)"/>
       </defs>
       <use xlink:href="#LMRoman17-Regular-30" transform="scale(0.996264)"/>
       <use xlink:href="#LMMathItalic12-Regular-3a" transform="translate(45.690948 0) scale(0.996264)"/>
       <use xlink:href="#LMRoman17-Regular-34" transform="translate(72.788125 0) scale(0.996264)"/>
      </g>
     </g>
    </g>
    <g id="xtick_4">
     <g id="line2d_7">
      <path d="M 255.712972 395.28 
L 255.712972 7.2 
" clip-path="url(#pf0c71fcfe7)" style="fill: none; stroke: #b0b0b0; stroke-width: 0.7; stroke-linecap: square"/>
     </g>
     <g id="line2d_8">
      <g>
       <use xlink:href="#ma121a74e26" x="255.712972" y="395.28" style="stroke: #000000; stroke-width: 0.8"/>
      </g>
     </g>
     <g id="text_4">
      <!-- $\mathdefault{0.6}$ -->
      <g transform="translate(249.347948 409.143012) scale(0.1 -0.1)">
       <defs>
        <path id="LMRoman17-Regular-36" d="M 2688 1283 
C 2688 2081 2170 2662 1517 2662 
C 1126 2662 838 2407 678 1960 
L 678 2176 
C 678 3690 1395 4032 1811 4032 
C 1946 4032 2272 4009 2400 3776 
C 2298 3776 2106 3776 2106 3553 
C 2106 3381 2246 3323 2336 3323 
C 2394 3323 2566 3348 2566 3560 
C 2566 3954 2246 4179 1805 4179 
C 1043 4179 243 3390 243 1984 
C 243 253 966 -128 1478 -128 
C 2099 -128 2688 427 2688 1283 
z
M 2253 1289 
C 2253 944 2253 690 2118 434 
C 1978 171 1773 25 1478 25 
C 691 25 691 1200 691 1436 
C 691 1896 909 2560 1504 2560 
C 1613 2560 1926 2560 2138 2120 
C 2253 1870 2253 1609 2253 1289 
z
" transform="scale(0.015625)"/>
       </defs>
       <use xlink:href="#LMRoman17-Regular-30" transform="scale(0.996264)"/>
       <use xlink:href="#LMMathItalic12-Regular-3a" transform="translate(45.690948 0) scale(0.996264)"/>
       <use xlink:href="#LMRoman17-Regular-36" transform="translate(72.788125 0) scale(0.996264)"/>
      </g>
     </g>
    </g>
    <g id="xtick_5">
     <g id="line2d_9">
      <path d="M 322.965038 395.28 
L 322.965038 7.2 
" clip-path="url(#pf0c71fcfe7)" style="fill: none; stroke: #b0b0b0; stroke-width: 0.7; stroke-linecap: square"/>
     </g>
     <g id="line2d_10">
      <g>
       <use xlink:href="#ma121a74e26" x="322.965038" y="395.28" style="stroke: #000000; stroke-width: 0.8"/>
      </g>
     </g>
     <g id="text_5">
      <!-- $\mathdefault{0.8}$ -->
      <g transform="translate(316.600014 409.143012) scale(0.1 -0.1)">
       <defs>
        <path id="LMRoman17-Regular-38" d="M 2720 1011 
C 2720 1590 2330 1858 2074 2029 
C 1984 2092 1933 2124 1741 2264 
C 2144 2468 2554 2773 2554 3263 
C 2554 3842 1990 4179 1472 4179 
C 890 4179 378 3759 378 3180 
C 378 3021 416 2747 666 2505 
C 730 2442 998 2251 1171 2130 
C 883 1983 211 1634 211 934 
C 211 279 838 -128 1459 -128 
C 2144 -128 2720 362 2720 1011 
z
M 2336 3262 
C 2336 2669 1670 2331 1638 2331 
C 1638 2331 1626 2331 1574 2370 
L 902 2822 
C 851 2854 595 3051 595 3351 
C 595 3739 998 4032 1459 4032 
C 1965 4032 2336 3676 2336 3262 
z
M 2483 851 
C 2483 381 2010 25 1472 25 
C 890 25 448 438 448 940 
C 448 1443 838 1862 1280 2060 
L 2080 1519 
C 2176 1449 2483 1240 2483 851 
z
" transform="scale(0.015625)"/>
       </defs>
       <use xlink:href="#LMRoman17-Regular-30" transform="scale(0.996264)"/>
       <use xlink:href="#LMMathItalic12-Regular-3a" transform="translate(45.690948 0) scale(0.996264)"/>
       <use xlink:href="#LMRoman17-Regular-38" transform="translate(72.788125 0) scale(0.996264)"/>
      </g>
     </g>
    </g>
    <g id="xtick_6">
     <g id="line2d_11">
      <path d="M 390.217104 395.28 
L 390.217104 7.2 
" clip-path="url(#pf0c71fcfe7)" style="fill: none; stroke: #b0b0b0; stroke-width: 0.7; stroke-linecap: square"/>
     </g>
     <g id="line2d_12">
      <g>
       <use xlink:href="#ma121a74e26" x="390.217104" y="395.28" style="stroke: #000000; stroke-width: 0.8"/>
      </g>
     </g>
     <g id="text_6">
      <!-- $\mathdefault{1.0}$ -->
      <g transform="translate(383.85208 409.143012) scale(0.1 -0.1)">
       <defs>
        <path id="LMRoman17-Regular-31" d="M 2458 0 
L 2458 160 
L 2266 160 
C 1715 160 1702 230 1702 458 
L 1702 4058 
C 1702 4192 1696 4192 1606 4192 
C 1357 3916 979 3827 621 3827 
C 602 3827 570 3827 563 3808 
C 557 3795 557 3782 557 3648 
C 755 3648 1088 3686 1344 3839 
L 1344 461 
C 1344 236 1331 160 781 160 
L 589 160 
L 589 0 
L 1523 0 
L 2458 0 
z
" transform="scale(0.015625)"/>
       </defs>
       <use xlink:href="#LMRoman17-Regular-31" transform="scale(0.996264)"/>
       <use xlink:href="#LMMathItalic12-Regular-3a" transform="translate(45.690948 0) scale(0.996264)"/>
       <use xlink:href="#LMRoman17-Regular-30" transform="translate(72.788125 0) scale(0.996264)"/>
      </g>
     </g>
    </g>
    <g id="text_7">
     <!-- Time in $s$ -->
     <g transform="translate(193.409746 424.824943) scale(0.14 -0.14)">
      <defs>
       <path id="LMRoman17-Regular-54" d="M 4090 2918 
L 3981 4326 
L 288 4326 
L 179 2918 
L 294 2918 
C 378 3976 467 4160 1453 4160 
C 1568 4160 1754 4160 1805 4154 
C 1926 4135 1926 4058 1926 3912 
L 1926 459 
C 1926 230 1907 160 1376 160 
L 1197 160 
L 1197 0 
L 2138 0 
L 3078 0 
L 3078 160 
L 2899 160 
C 2368 160 2349 230 2349 459 
L 2349 3912 
C 2349 4052 2349 4129 2464 4154 
C 2515 4160 2701 4160 2816 4160 
C 3795 4160 3891 3976 3974 2918 
L 4090 2918 
z
" transform="scale(0.015625)"/>
       <path id="LMRoman17-Regular-69" d="M 1370 -13 
L 1370 153 
C 992 153 979 191 979 420 
L 979 2778 
L 243 2708 
L 243 2542 
C 602 2542 653 2503 653 2198 
L 653 427 
C 653 184 627 153 218 153 
L 218 -13 
C 371 0 646 0 806 0 
C 960 0 1222 0 1370 -13 
z
M 1056 3835 
C 1056 3988 934 4096 800 4096 
C 646 4096 538 3975 538 3835 
C 538 3682 659 3574 794 3574 
C 947 3574 1056 3695 1056 3835 
z
" transform="scale(0.015625)"/>
       <path id="LMRoman17-Regular-6d" d="M 4762 -13 
L 4762 153 
C 4352 153 4326 178 4326 428 
L 4326 1933 
C 4326 2252 4269 2790 3507 2790 
C 3072 2790 2771 2496 2656 2151 
L 2650 2151 
C 2573 2676 2195 2790 1837 2790 
C 1331 2790 1069 2400 973 2144 
L 966 2144 
L 966 2790 
L 211 2720 
L 211 2554 
C 589 2554 646 2515 646 2208 
L 646 428 
C 646 184 621 153 211 153 
L 211 -13 
C 365 0 646 0 813 0 
C 979 0 1267 0 1421 -13 
L 1421 153 
C 1011 153 986 178 986 428 
L 986 1658 
C 986 2247 1344 2688 1792 2688 
C 2266 2688 2317 2266 2317 1958 
L 2317 428 
C 2317 184 2291 153 1882 153 
L 1882 -13 
C 2035 0 2317 0 2483 0 
C 2650 0 2938 0 3091 -13 
L 3091 153 
C 2682 153 2656 178 2656 428 
L 2656 1658 
C 2656 2247 3014 2688 3462 2688 
C 3936 2688 3987 2266 3987 1958 
L 3987 428 
C 3987 184 3962 153 3552 153 
L 3552 -13 
C 3706 0 3987 0 4154 0 
C 4320 0 4608 0 4762 -13 
z
" transform="scale(0.015625)"/>
       <path id="LMRoman17-Regular-65" d="M 2464 1576 
C 2464 2238 2118 2816 1389 2816 
C 710 2816 173 2169 173 1383 
C 173 551 781 -64 1459 -64 
C 2176 -64 2458 606 2458 739 
C 2458 784 2406 784 2406 784 
C 2362 784 2355 771 2330 695 
C 2189 265 1837 51 1504 51 
C 1229 51 954 203 781 480 
C 582 803 582 1176 582 1472 
L 2438 1472 
C 2464 1498 2464 1511 2464 1576 
z
M 2118 1568 
L 589 1568 
C 634 2505 1126 2714 1382 2714 
C 1818 2714 2112 2297 2118 1568 
z
" transform="scale(0.015625)"/>
       <path id="LMRoman17-Regular-6e" d="M 3091 -13 
L 3091 153 
C 2682 153 2656 178 2656 428 
L 2656 1933 
C 2656 2259 2592 2790 1837 2790 
C 1331 2790 1069 2400 973 2144 
L 966 2144 
L 966 2790 
L 211 2720 
L 211 2554 
C 589 2554 646 2515 646 2208 
L 646 428 
C 646 184 621 153 211 153 
L 211 -13 
C 365 0 646 0 813 0 
C 979 0 1267 0 1421 -13 
L 1421 153 
C 1011 153 986 178 986 428 
L 986 1658 
C 986 2247 1344 2688 1792 2688 
C 2266 2688 2317 2266 2317 1958 
L 2317 428 
C 2317 184 2291 153 1882 153 
L 1882 -13 
C 2035 0 2317 0 2483 0 
C 2650 0 2938 0 3091 -13 
z
" transform="scale(0.015625)"/>
       <path id="LMMathItalic12-Regular-73" d="M 2483 984 
C 2483 1079 2483 1258 2278 1462 
C 2118 1616 1965 1648 1619 1718 
C 1446 1756 1171 1814 1171 2101 
C 1171 2229 1286 2689 1894 2689 
C 2163 2689 2426 2589 2490 2368 
C 2208 2368 2195 2119 2195 2119 
C 2195 1984 2317 1946 2374 1946 
C 2464 1946 2643 2015 2643 2281 
C 2643 2545 2400 2816 1901 2816 
C 1062 2816 838 2160 838 1899 
C 838 1414 1312 1312 1459 1280 
C 1568 1261 1741 1223 1779 1216 
C 1862 1192 2150 1090 2150 783 
C 2150 586 1971 70 1229 70 
C 1094 70 614 70 486 436 
C 742 404 870 603 870 745 
C 870 880 781 950 653 950 
C 512 950 326 841 326 552 
C 326 173 710 -64 1222 -64 
C 2195 -64 2483 651 2483 984 
z
" transform="scale(0.015625)"/>
      </defs>
      <use xlink:href="#LMRoman17-Regular-54" transform="scale(0.996264)"/>
      <use xlink:href="#LMRoman17-Regular-69" transform="translate(66.509789 0) scale(0.996264)"/>
      <use xlink:href="#LMRoman17-Regular-6d" transform="translate(91.381806 0) scale(0.996264)"/>
      <use xlink:href="#LMRoman17-Regular-65" transform="translate(168.303965 0) scale(0.996264)"/>
      <use xlink:href="#LMRoman17-Regular-69" transform="translate(238.864922 0) scale(0.996264)"/>
      <use xlink:href="#LMRoman17-Regular-6e" transform="translate(263.736939 0) scale(0.996264)"/>
      <use xlink:href="#LMMathItalic12-Regular-73" transform="translate(344.710175 0) scale(0.996264)"/>
     </g>
    </g>
    <g id="text_8">
     <!-- $\times\mathdefault{10^{−7}}\mathdefault{}$ -->
     <g transform="translate(362.987916 423.824943) scale(0.14 -0.14)">
      <defs>
       <path id="LMMathSymbols10-Regular-2" d="M 4032 192 
C 4032 243 4019 256 3949 326 
L 2675 1606 
L 3949 2886 
C 4019 2956 4032 2969 4032 3020 
C 4032 3091 3974 3148 3904 3148 
C 3853 3148 3827 3123 3770 3065 
L 2490 1785 
L 1203 3065 
C 1133 3136 1120 3148 1069 3148 
C 1005 3148 941 3091 941 3020 
C 941 2969 966 2944 1024 2886 
L 2298 1606 
L 1024 332 
C 960 268 941 230 941 192 
C 941 121 1005 64 1069 64 
C 1120 64 1133 76 1203 147 
L 2483 1427 
L 3763 147 
C 3827 83 3866 64 3904 64 
C 3981 64 4032 121 4032 192 
z
" transform="scale(0.015625)"/>
       <path id="LMMathSymbols10-Regular-0" d="M 4442 1600 
C 4442 1728 4320 1728 4230 1728 
L 742 1728 
C 653 1728 531 1728 531 1600 
C 531 1472 653 1472 742 1472 
L 4230 1472 
C 4320 1472 4442 1472 4442 1600 
z
" transform="scale(0.015625)"/>
       <path id="LMRoman17-Regular-37" d="M 2886 3941 
L 2886 4081 
L 1382 4081 
C 634 4081 621 4165 595 4288 
L 480 4288 
L 294 3094 
L 410 3094 
C 429 3215 474 3540 550 3661 
C 589 3712 1062 3712 1171 3712 
L 2579 3712 
L 1869 2661 
C 1395 1954 1069 999 1069 165 
C 1069 89 1069 -128 1299 -128 
C 1530 -128 1530 89 1530 171 
L 1530 465 
C 1530 1508 1709 2196 2003 2636 
L 2886 3941 
z
" transform="scale(0.015625)"/>
      </defs>
      <use xlink:href="#LMMathSymbols10-Regular-2" transform="scale(0.996264)"/>
      <use xlink:href="#LMRoman17-Regular-31" transform="translate(77.487468 0) scale(0.996264)"/>
      <use xlink:href="#LMRoman17-Regular-30" transform="translate(123.178416 0) scale(0.996264)"/>
      <use xlink:href="#LMMathSymbols10-Regular-0" transform="translate(168.869364 36.153639) scale(0.697382)"/>
      <use xlink:href="#LMRoman17-Regular-37" transform="translate(223.110358 36.153639) scale(0.697382)"/>
     </g>
    </g>
   </g>
   <g id="matplotlib.axis_2">
    <g id="ytick_1">
     <g id="line2d_13">
      <path d="M 44.877745 340.662339 
L 399.968654 340.662339 
" clip-path="url(#pf0c71fcfe7)" style="fill: none; stroke: #b0b0b0; stroke-width: 0.7; stroke-linecap: square"/>
     </g>
     <g id="line2d_14">
      <defs>
       <path id="m3dbf4220e5" d="M 0 0 
L -3.5 0 
" style="stroke: #000000; stroke-width: 0.8"/>
      </defs>
      <g>
       <use xlink:href="#m3dbf4220e5" x="44.877745" y="340.662339" style="stroke: #000000; stroke-width: 0.8"/>
      </g>
     </g>
     <g id="text_9">
      <!-- $\mathdefault{0.3}$ -->
      <g transform="translate(25.147696 344.093845) scale(0.1 -0.1)">
       <defs>
        <path id="LMRoman17-Regular-33" d="M 2720 1085 
C 2720 1707 2208 2157 1600 2227 
C 2086 2328 2554 2756 2554 3329 
C 2554 3820 2048 4179 1472 4179 
C 890 4179 378 3829 378 3329 
C 378 3110 544 3072 627 3072 
C 762 3072 877 3155 877 3321 
C 877 3486 762 3569 627 3569 
C 602 3569 570 3569 544 3557 
C 730 3959 1235 4032 1459 4032 
C 1683 4032 2106 3925 2106 3320 
C 2106 3143 2080 2828 1862 2550 
C 1670 2304 1453 2304 1242 2284 
C 1210 2284 1062 2269 1037 2269 
C 992 2263 966 2257 966 2208 
C 966 2163 973 2157 1101 2157 
L 1414 2157 
C 1984 2157 2234 1662 2234 1090 
C 2234 320 1824 25 1453 25 
C 1114 25 563 194 390 693 
C 422 680 454 680 486 680 
C 640 680 755 782 755 948 
C 755 1133 614 1216 486 1216 
C 378 1216 211 1165 211 926 
C 211 335 787 -128 1466 -128 
C 2176 -128 2720 430 2720 1085 
z
" transform="scale(0.015625)"/>
       </defs>
       <use xlink:href="#LMRoman17-Regular-30" transform="scale(0.996264)"/>
       <use xlink:href="#LMMathItalic12-Regular-3a" transform="translate(45.690948 0) scale(0.996264)"/>
       <use xlink:href="#LMRoman17-Regular-33" transform="translate(72.788125 0) scale(0.996264)"/>
      </g>
     </g>
    </g>
    <g id="ytick_2">
     <g id="line2d_15">
      <path d="M 44.877745 285.989417 
L 399.968654 285.989417 
" clip-path="url(#pf0c71fcfe7)" style="fill: none; stroke: #b0b0b0; stroke-width: 0.7; stroke-linecap: square"/>
     </g>
     <g id="line2d_16">
      <g>
       <use xlink:href="#m3dbf4220e5" x="44.877745" y="285.989417" style="stroke: #000000; stroke-width: 0.8"/>
      </g>
     </g>
     <g id="text_10">
      <!-- $\mathdefault{0.4}$ -->
      <g transform="translate(25.147696 289.420923) scale(0.1 -0.1)">
       <use xlink:href="#LMRoman17-Regular-30" transform="scale(0.996264)"/>
       <use xlink:href="#LMMathItalic12-Regular-3a" transform="translate(45.690948 0) scale(0.996264)"/>
       <use xlink:href="#LMRoman17-Regular-34" transform="translate(72.788125 0) scale(0.996264)"/>
      </g>
     </g>
    </g>
    <g id="ytick_3">
     <g id="line2d_17">
      <path d="M 44.877745 231.316496 
L 399.968654 231.316496 
" clip-path="url(#pf0c71fcfe7)" style="fill: none; stroke: #b0b0b0; stroke-width: 0.7; stroke-linecap: square"/>
     </g>
     <g id="line2d_18">
      <g>
       <use xlink:href="#m3dbf4220e5" x="44.877745" y="231.316496" style="stroke: #000000; stroke-width: 0.8"/>
      </g>
     </g>
     <g id="text_11">
      <!-- $\mathdefault{0.5}$ -->
      <g transform="translate(25.147696 234.748001) scale(0.1 -0.1)">
       <defs>
        <path id="LMRoman17-Regular-35" d="M 2669 1264 
C 2669 2030 2170 2624 1549 2624 
C 1222 2624 947 2503 730 2274 
L 730 3692 
C 794 3666 1056 3584 1325 3584 
C 1920 3584 2246 3911 2432 4100 
C 2432 4157 2432 4192 2394 4192 
C 2394 4192 2374 4192 2323 4163 
C 2099 4058 1837 3973 1517 3973 
C 1325 3973 1037 3999 723 4139 
C 653 4171 634 4171 634 4171 
C 602 4171 595 4164 595 4037 
L 595 2203 
C 595 2089 595 2057 659 2057 
C 691 2057 704 2070 736 2114 
C 941 2401 1222 2522 1542 2522 
C 1766 2522 2246 2382 2246 1289 
C 2246 1085 2246 715 2054 421 
C 1894 159 1645 25 1370 25 
C 947 25 518 320 403 814 
C 429 807 480 795 506 795 
C 589 795 749 840 749 1038 
C 749 1210 627 1280 506 1280 
C 358 1280 262 1190 262 1011 
C 262 454 704 -128 1382 -128 
C 2042 -128 2669 440 2669 1264 
z
" transform="scale(0.015625)"/>
       </defs>
       <use xlink:href="#LMRoman17-Regular-30" transform="scale(0.996264)"/>
       <use xlink:href="#LMMathItalic12-Regular-3a" transform="translate(45.690948 0) scale(0.996264)"/>
       <use xlink:href="#LMRoman17-Regular-35" transform="translate(72.788125 0) scale(0.996264)"/>
      </g>
     </g>
    </g>
    <g id="ytick_4">
     <g id="line2d_19">
      <path d="M 44.877745 176.643574 
L 399.968654 176.643574 
" clip-path="url(#pf0c71fcfe7)" style="fill: none; stroke: #b0b0b0; stroke-width: 0.7; stroke-linecap: square"/>
     </g>
     <g id="line2d_20">
      <g>
       <use xlink:href="#m3dbf4220e5" x="44.877745" y="176.643574" style="stroke: #000000; stroke-width: 0.8"/>
      </g>
     </g>
     <g id="text_12">
      <!-- $\mathdefault{0.6}$ -->
      <g transform="translate(25.147696 180.07508) scale(0.1 -0.1)">
       <use xlink:href="#LMRoman17-Regular-30" transform="scale(0.996264)"/>
       <use xlink:href="#LMMathItalic12-Regular-3a" transform="translate(45.690948 0) scale(0.996264)"/>
       <use xlink:href="#LMRoman17-Regular-36" transform="translate(72.788125 0) scale(0.996264)"/>
      </g>
     </g>
    </g>
    <g id="ytick_5">
     <g id="line2d_21">
      <path d="M 44.877745 121.970652 
L 399.968654 121.970652 
" clip-path="url(#pf0c71fcfe7)" style="fill: none; stroke: #b0b0b0; stroke-width: 0.7; stroke-linecap: square"/>
     </g>
     <g id="line2d_22">
      <g>
       <use xlink:href="#m3dbf4220e5" x="44.877745" y="121.970652" style="stroke: #000000; stroke-width: 0.8"/>
      </g>
     </g>
     <g id="text_13">
      <!-- $\mathdefault{0.7}$ -->
      <g transform="translate(25.147696 125.402158) scale(0.1 -0.1)">
       <use xlink:href="#LMRoman17-Regular-30" transform="scale(0.996264)"/>
       <use xlink:href="#LMMathItalic12-Regular-3a" transform="translate(45.690948 0) scale(0.996264)"/>
       <use xlink:href="#LMRoman17-Regular-37" transform="translate(72.788125 0) scale(0.996264)"/>
      </g>
     </g>
    </g>
    <g id="ytick_6">
     <g id="line2d_23">
      <path d="M 44.877745 67.29773 
L 399.968654 67.29773 
" clip-path="url(#pf0c71fcfe7)" style="fill: none; stroke: #b0b0b0; stroke-width: 0.7; stroke-linecap: square"/>
     </g>
     <g id="line2d_24">
      <g>
       <use xlink:href="#m3dbf4220e5" x="44.877745" y="67.29773" style="stroke: #000000; stroke-width: 0.8"/>
      </g>
     </g>
     <g id="text_14">
      <!-- $\mathdefault{0.8}$ -->
      <g transform="translate(25.147696 70.729236) scale(0.1 -0.1)">
       <use xlink:href="#LMRoman17-Regular-30" transform="scale(0.996264)"/>
       <use xlink:href="#LMMathItalic12-Regular-3a" transform="translate(45.690948 0) scale(0.996264)"/>
       <use xlink:href="#LMRoman17-Regular-38" transform="translate(72.788125 0) scale(0.996264)"/>
      </g>
     </g>
    </g>
    <g id="ytick_7">
     <g id="line2d_25">
      <path d="M 44.877745 12.624809 
L 399.968654 12.624809 
" clip-path="url(#pf0c71fcfe7)" style="fill: none; stroke: #b0b0b0; stroke-width: 0.7; stroke-linecap: square"/>
     </g>
     <g id="line2d_26">
      <g>
       <use xlink:href="#m3dbf4220e5" x="44.877745" y="12.624809" style="stroke: #000000; stroke-width: 0.8"/>
      </g>
     </g>
     <g id="text_15">
      <!-- $\mathdefault{0.9}$ -->
      <g transform="translate(25.147696 16.056315) scale(0.1 -0.1)">
       <defs>
        <path id="LMRoman17-Regular-39" d="M 2688 2073 
C 2688 3817 1971 4179 1485 4179 
C 851 4179 243 3628 243 2778 
C 243 1991 762 1408 1414 1408 
C 1952 1408 2189 1903 2253 2112 
L 2253 1864 
C 2253 464 1670 31 1190 31 
C 1043 31 685 31 538 294 
C 704 268 826 357 826 518 
C 826 692 685 749 595 749 
C 538 749 365 723 365 506 
C 365 71 742 -128 1203 -128 
C 1939 -128 2688 674 2688 2073 
z
M 2240 2632 
C 2240 2182 2035 1510 1427 1510 
C 1254 1510 1011 1542 813 1922 
C 678 2169 678 2461 678 2771 
C 678 3146 678 3405 858 3684 
C 947 3817 1114 4032 1485 4032 
C 2240 4032 2240 2885 2240 2632 
z
" transform="scale(0.015625)"/>
       </defs>
       <use xlink:href="#LMRoman17-Regular-30" transform="scale(0.996264)"/>
       <use xlink:href="#LMMathItalic12-Regular-3a" transform="translate(45.690948 0) scale(0.996264)"/>
       <use xlink:href="#LMRoman17-Regular-39" transform="translate(72.788125 0) scale(0.996264)"/>
      </g>
     </g>
    </g>
    <g id="text_16">
     <!-- Poseuille Forces/Total viscous forces -->
     <g transform="translate(17.660772 310.114276) rotate(-90) scale(0.14 -0.14)">
      <defs>
       <path id="LMRoman17-Regular-50" d="M 3718 3184 
C 3718 3791 3130 4352 2291 4352 
L 333 4352 
L 333 4186 
C 774 4186 845 4186 845 3899 
L 845 446 
C 845 160 774 160 333 160 
L 333 0 
C 518 0 858 0 1056 0 
C 1254 0 1594 0 1779 0 
L 1779 160 
C 1338 160 1267 160 1267 446 
L 1267 2042 
L 2291 2042 
C 3117 2042 3718 2578 3718 3184 
z
M 3232 3184 
C 3232 2604 2950 2176 2170 2176 
L 1254 2176 
L 1254 3938 
C 1254 4155 1267 4186 1523 4186 
L 2170 4186 
C 2995 4186 3232 3714 3232 3184 
z
" transform="scale(0.015625)"/>
       <path id="LMRoman17-Regular-6f" d="M 2758 1356 
C 2758 2176 2163 2816 1466 2816 
C 768 2816 173 2176 173 1356 
C 173 551 768 -64 1466 -64 
C 2163 -64 2758 551 2758 1356 
z
M 2349 1408 
C 2349 1158 2336 775 2163 467 
C 1984 173 1709 51 1466 51 
C 1165 51 909 230 762 480 
C 602 767 582 1126 582 1408 
C 582 1677 595 2010 762 2298 
C 890 2509 1139 2714 1466 2714 
C 1754 2714 1997 2554 2150 2330 
C 2349 2029 2349 1607 2349 1408 
z
" transform="scale(0.015625)"/>
       <path id="LMRoman17-Regular-73" d="M 2131 784 
C 2131 1112 1958 1285 1875 1362 
C 1683 1561 1459 1606 1190 1657 
C 838 1735 390 1825 390 2217 
C 390 2383 480 2737 1126 2737 
C 1811 2737 1850 2094 1862 1888 
C 1869 1856 1901 1849 1920 1849 
C 1978 1849 1978 1869 1978 1978 
L 1978 2697 
C 1978 2813 1971 2819 1933 2819 
C 1907 2819 1901 2813 1824 2717 
C 1805 2691 1747 2626 1728 2601 
C 1523 2819 1235 2819 1126 2819 
C 416 2819 160 2447 160 2076 
C 160 1498 813 1365 998 1325 
C 1402 1243 1542 1217 1677 1101 
C 1760 1025 1901 884 1901 654 
C 1901 384 1747 38 1158 38 
C 602 38 403 460 288 1021 
C 269 1110 269 1117 218 1117 
C 166 1117 160 1110 160 983 
L 160 63 
C 160 -51 166 -58 205 -58 
C 237 -58 243 -51 275 0 
L 448 276 
C 576 103 800 -64 1158 -64 
C 1792 -64 2131 283 2131 784 
z
" transform="scale(0.015625)"/>
       <path id="LMRoman17-Regular-75" d="M 3091 -63 
L 3091 128 
C 2714 128 2656 166 2656 473 
L 2656 2763 
L 1882 2693 
L 1882 2528 
C 2259 2528 2317 2489 2317 2186 
L 2317 1032 
C 2317 500 2029 38 1555 38 
C 1030 38 986 348 986 678 
L 986 2763 
L 211 2693 
L 211 2528 
C 467 2528 640 2528 646 2274 
L 646 1058 
C 646 633 646 361 813 183 
C 896 101 1056 -64 1517 -64 
C 2061 -64 2272 377 2323 506 
L 2330 506 
L 2330 -63 
L 3091 -63 
z
" transform="scale(0.015625)"/>
       <path id="LMRoman17-Regular-6c" d="M 1414 -13 
L 1414 153 
C 1005 153 979 178 979 426 
L 979 4396 
L 218 4326 
L 218 4160 
C 595 4160 653 4122 653 3817 
L 653 426 
C 653 184 627 153 218 153 
L 218 -13 
C 371 0 653 0 813 0 
C 979 0 1261 0 1414 -13 
z
" transform="scale(0.015625)"/>
       <path id="LMRoman17-Regular-46" d="M 3635 2916 
L 3482 4325 
L 326 4325 
L 326 4160 
C 768 4160 838 4160 838 3874 
L 838 446 
C 838 160 768 160 326 160 
L 326 0 
C 512 0 870 0 1069 0 
C 1331 0 1638 0 1901 0 
L 1901 160 
L 1760 160 
C 1274 160 1261 223 1261 452 
L 1261 2075 
L 1837 2075 
C 2432 2075 2490 1865 2490 1332 
L 2605 1332 
L 2605 2987 
L 2490 2987 
C 2490 2450 2432 2240 1837 2240 
L 1261 2240 
L 1261 3911 
C 1261 4128 1274 4160 1530 4160 
L 2355 4160 
C 3322 4160 3430 3765 3520 2916 
L 3635 2916 
z
" transform="scale(0.015625)"/>
       <path id="LMRoman17-Regular-72" d="M 2131 2458 
C 2131 2663 1926 2790 1709 2790 
C 1222 2790 1011 2317 947 2093 
L 941 2093 
L 941 2790 
L 198 2720 
L 198 2554 
C 576 2554 634 2515 634 2208 
L 634 428 
C 634 184 608 153 198 153 
L 198 -13 
C 352 0 646 0 813 0 
C 998 0 1325 0 1498 -13 
L 1498 153 
C 1037 153 960 153 960 440 
L 960 1497 
C 960 2112 1222 2688 1702 2688 
C 1747 2688 1792 2682 1837 2662 
C 1837 2662 1696 2617 1696 2452 
C 1696 2298 1818 2234 1914 2234 
C 1990 2234 2131 2279 2131 2458 
z
" transform="scale(0.015625)"/>
       <path id="LMRoman17-Regular-63" d="M 2458 748 
C 2458 774 2451 793 2406 793 
C 2362 793 2355 787 2330 703 
C 2163 180 1798 51 1523 51 
C 1114 51 621 427 621 1369 
C 621 2338 1094 2688 1472 2688 
C 1722 2688 2093 2573 2234 2240 
C 2112 2240 1933 2240 1933 2017 
C 1933 1838 2080 1787 2163 1787 
C 2208 1787 2394 1807 2394 2024 
C 2394 2467 1958 2803 1466 2803 
C 787 2803 211 2178 211 1363 
C 211 516 813 -64 1466 -64 
C 2259 -64 2458 677 2458 748 
z
" transform="scale(0.015625)"/>
       <path id="LMRoman17-Regular-2f" d="M 2637 4653 
C 2637 4729 2579 4768 2528 4768 
C 2451 4768 2426 4717 2400 4640 
L 326 -1377 
C 294 -1460 294 -1486 294 -1486 
C 294 -1562 352 -1600 403 -1600 
C 480 -1600 506 -1549 531 -1473 
L 2605 4545 
C 2637 4627 2637 4653 2637 4653 
z
" transform="scale(0.015625)"/>
       <path id="LMRoman17-Regular-74" d="M 1965 777 
L 1965 1140 
L 1850 1140 
L 1850 783 
C 1850 344 1677 51 1408 51 
C 1222 51 966 178 966 758 
L 966 2560 
L 1862 2560 
L 1862 2725 
L 966 2725 
L 966 3904 
L 851 3904 
C 838 3245 614 2668 70 2668 
L 70 2560 
L 627 2560 
L 627 771 
C 627 650 627 -64 1370 -64 
C 1747 -64 1965 306 1965 777 
z
" transform="scale(0.015625)"/>
       <path id="LMRoman17-Regular-61" d="M 2874 567 
L 2874 920 
L 2758 920 
L 2758 562 
C 2758 178 2586 128 2502 128 
C 2240 128 2240 458 2240 738 
L 2240 1653 
C 2240 2072 2240 2294 1971 2543 
C 1734 2752 1459 2816 1242 2816 
C 736 2816 371 2407 371 1971 
C 371 1728 563 1728 602 1728 
C 685 1728 832 1778 832 1954 
C 832 2112 710 2181 602 2181 
C 576 2181 544 2174 525 2168 
C 659 2592 1005 2714 1229 2714 
C 1549 2714 1901 2429 1901 1885 
L 1901 1600 
C 1523 1600 1069 1549 710 1357 
C 307 1133 192 813 192 570 
C 192 77 768 -64 1107 -64 
C 1459 -64 1786 139 1926 511 
C 1939 233 2118 -18 2400 -18 
C 2534 -18 2874 70 2874 567 
z
M 1901 870 
C 1901 317 1504 38 1152 38 
C 832 38 582 275 582 570 
C 582 761 666 1100 1037 1305 
C 1344 1478 1696 1504 1901 1504 
L 1901 870 
z
" transform="scale(0.015625)"/>
       <path id="LMRoman17-Regular-76" d="M 3034 2560 
L 3034 2719 
L 2630 2719 
C 2496 2719 2285 2719 2157 2725 
L 2157 2560 
C 2317 2547 2406 2471 2406 2305 
C 2406 2248 2406 2235 2368 2146 
L 1664 375 
L 902 2286 
C 864 2369 864 2381 864 2407 
C 864 2560 1075 2560 1171 2560 
L 1171 2725 
C 1018 2719 736 2719 576 2719 
C 403 2719 205 2719 64 2725 
L 64 2560 
C 307 2560 442 2560 518 2362 
L 1446 44 
C 1485 -51 1491 -64 1549 -64 
C 1606 -64 1613 -51 1651 44 
L 2502 2163 
C 2560 2304 2662 2560 3034 2560 
z
" transform="scale(0.015625)"/>
       <path id="LMRoman17-Regular-66" d="M 2003 4067 
C 2003 4308 1773 4454 1517 4454 
C 1152 4454 653 4156 653 3481 
L 653 2725 
L 141 2725 
L 141 2560 
L 653 2560 
L 653 427 
C 653 184 627 153 218 153 
L 218 -13 
C 371 0 666 0 832 0 
C 1018 0 1344 0 1517 -13 
L 1517 153 
C 1056 153 979 153 979 439 
L 979 2560 
L 1709 2560 
L 1709 2725 
L 966 2725 
L 966 3494 
C 966 4022 1235 4352 1510 4352 
C 1594 4352 1690 4327 1754 4282 
C 1702 4269 1568 4225 1568 4067 
C 1568 3901 1696 3850 1786 3850 
C 1875 3850 2003 3901 2003 4067 
z
" transform="scale(0.015625)"/>
      </defs>
      <use xlink:href="#LMRoman17-Regular-50" transform="scale(0.996264)"/>
      <use xlink:href="#LMRoman17-Regular-6f" transform="translate(59.981095 0) scale(0.996264)"/>
      <use xlink:href="#LMRoman17-Regular-73" transform="translate(105.672043 0) scale(0.996264)"/>
      <use xlink:href="#LMRoman17-Regular-65" transform="translate(141.475281 0) scale(0.996264)"/>
      <use xlink:href="#LMRoman17-Regular-75" transform="translate(181.96009 0) scale(0.996264)"/>
      <use xlink:href="#LMRoman17-Regular-69" transform="translate(232.857178 0) scale(0.996264)"/>
      <use xlink:href="#LMRoman17-Regular-6c" transform="translate(257.729194 0) scale(0.996264)"/>
      <use xlink:href="#LMRoman17-Regular-6c" transform="translate(282.60121 0) scale(0.996264)"/>
      <use xlink:href="#LMRoman17-Regular-65" transform="translate(307.473227 0) scale(0.996264)"/>
      <use xlink:href="#LMRoman17-Regular-46" transform="translate(378.034185 0) scale(0.996264)"/>
      <use xlink:href="#LMRoman17-Regular-6f" transform="translate(430.210578 0) scale(0.996264)"/>
      <use xlink:href="#LMRoman17-Regular-72" transform="translate(475.901527 0) scale(0.996264)"/>
      <use xlink:href="#LMRoman17-Regular-63" transform="translate(511.183054 0) scale(0.996264)"/>
      <use xlink:href="#LMRoman17-Regular-65" transform="translate(551.667864 0) scale(0.996264)"/>
      <use xlink:href="#LMRoman17-Regular-73" transform="translate(592.152673 0) scale(0.996264)"/>
      <use xlink:href="#LMRoman17-Regular-2f" transform="translate(627.955911 0) scale(0.996264)"/>
      <use xlink:href="#LMRoman17-Regular-54" transform="translate(673.646859 0) scale(0.996264)"/>
      <use xlink:href="#LMRoman17-Regular-6f" transform="translate(732.349575 0) scale(0.996264)"/>
      <use xlink:href="#LMRoman17-Regular-74" transform="translate(778.040524 0) scale(0.996264)"/>
      <use xlink:href="#LMRoman17-Regular-61" transform="translate(813.322052 0) scale(0.996264)"/>
      <use xlink:href="#LMRoman17-Regular-6c" transform="translate(859.013 0) scale(0.996264)"/>
      <use xlink:href="#LMRoman17-Regular-76" transform="translate(913.961165 0) scale(0.996264)"/>
      <use xlink:href="#LMRoman17-Regular-69" transform="translate(962.252378 0) scale(0.996264)"/>
      <use xlink:href="#LMRoman17-Regular-73" transform="translate(987.124394 0) scale(0.996264)"/>
      <use xlink:href="#LMRoman17-Regular-63" transform="translate(1022.927632 0) scale(0.996264)"/>
      <use xlink:href="#LMRoman17-Regular-6f" transform="translate(1063.412441 0) scale(0.996264)"/>
      <use xlink:href="#LMRoman17-Regular-75" transform="translate(1109.10339 0) scale(0.996264)"/>
      <use xlink:href="#LMRoman17-Regular-73" transform="translate(1160.000477 0) scale(0.996264)"/>
      <use xlink:href="#LMRoman17-Regular-66" transform="translate(1225.879864 0) scale(0.996264)"/>
      <use xlink:href="#LMRoman17-Regular-6f" transform="translate(1253.352039 0) scale(0.996264)"/>
      <use xlink:href="#LMRoman17-Regular-72" transform="translate(1299.042987 0) scale(0.996264)"/>
      <use xlink:href="#LMRoman17-Regular-63" transform="translate(1334.324515 0) scale(0.996264)"/>
      <use xlink:href="#LMRoman17-Regular-65" transform="translate(1374.809324 0) scale(0.996264)"/>
      <use xlink:href="#LMRoman17-Regular-73" transform="translate(1415.294133 0) scale(0.996264)"/>
     </g>
    </g>
   </g>
   <g id="line2d_27">
    <defs>
     <path id="m6f26c1e460" d="M 0 1.5 
C 0.397805 1.5 0.77937 1.341951 1.06066 1.06066 
C 1.341951 0.77937 1.5 0.397805 1.5 0 
C 1.5 -0.397805 1.341951 -0.77937 1.06066 -1.06066 
C 0.77937 -1.341951 0.397805 -1.5 0 -1.5 
C -0.397805 -1.5 -0.77937 -1.341951 -1.06066 -1.06066 
C -1.341951 -0.77937 -1.5 -0.397805 -1.5 0 
C -1.5 0.397805 -1.341951 0.77937 -1.06066 1.06066 
C -0.77937 1.341951 -0.397805 1.5 0 1.5 
z
" style="stroke: #e41a1c"/>
    </defs>
    <g clip-path="url(#pf0c71fcfe7)">
     <use xlink:href="#m6f26c1e460" x="61.018241" y="376.311208" style="fill: #e41a1c; stroke: #e41a1c"/>
     <use xlink:href="#m6f26c1e460" x="67.743447" y="311.940178" style="fill: #e41a1c; stroke: #e41a1c"/>
     <use xlink:href="#m6f26c1e460" x="74.468654" y="272.675273" style="fill: #e41a1c; stroke: #e41a1c"/>
     <use xlink:href="#m6f26c1e460" x="81.19386" y="242.721355" style="fill: #e41a1c; stroke: #e41a1c"/>
     <use xlink:href="#m6f26c1e460" x="87.919067" y="219.171765" style="fill: #e41a1c; stroke: #e41a1c"/>
     <use xlink:href="#m6f26c1e460" x="94.644274" y="205.567052" style="fill: #e41a1c; stroke: #e41a1c"/>
     <use xlink:href="#m6f26c1e460" x="101.36948" y="190.490693" style="fill: #e41a1c; stroke: #e41a1c"/>
     <use xlink:href="#m6f26c1e460" x="108.094687" y="178.292123" style="fill: #e41a1c; stroke: #e41a1c"/>
     <use xlink:href="#m6f26c1e460" x="114.819893" y="164.894039" style="fill: #e41a1c; stroke: #e41a1c"/>
     <use xlink:href="#m6f26c1e460" x="121.5451" y="158.116185" style="fill: #e41a1c; stroke: #e41a1c"/>
     <use xlink:href="#m6f26c1e460" x="128.270307" y="151.448706" style="fill: #e41a1c; stroke: #e41a1c"/>
     <use xlink:href="#m6f26c1e460" x="134.995513" y="143.835917" style="fill: #e41a1c; stroke: #e41a1c"/>
     <use xlink:href="#m6f26c1e460" x="141.72072" y="134.704409" style="fill: #e41a1c; stroke: #e41a1c"/>
     <use xlink:href="#m6f26c1e460" x="148.445927" y="131.349459" style="fill: #e41a1c; stroke: #e41a1c"/>
     <use xlink:href="#m6f26c1e460" x="155.171133" y="126.137181" style="fill: #e41a1c; stroke: #e41a1c"/>
     <use xlink:href="#m6f26c1e460" x="161.89634" y="122.364328" style="fill: #e41a1c; stroke: #e41a1c"/>
     <use xlink:href="#m6f26c1e460" x="168.621546" y="115.266884" style="fill: #e41a1c; stroke: #e41a1c"/>
     <use xlink:href="#m6f26c1e460" x="175.346753" y="118.775579" style="fill: #e41a1c; stroke: #e41a1c"/>
     <use xlink:href="#m6f26c1e460" x="182.07196" y="114.221697" style="fill: #e41a1c; stroke: #e41a1c"/>
     <use xlink:href="#m6f26c1e460" x="188.797166" y="105.703935" style="fill: #e41a1c; stroke: #e41a1c"/>
     <use xlink:href="#m6f26c1e460" x="195.522373" y="97.918412" style="fill: #e41a1c; stroke: #e41a1c"/>
     <use xlink:href="#m6f26c1e460" x="202.247579" y="95.810622" style="fill: #e41a1c; stroke: #e41a1c"/>
     <use xlink:href="#m6f26c1e460" x="208.972786" y="94.545666" style="fill: #e41a1c; stroke: #e41a1c"/>
     <use xlink:href="#m6f26c1e460" x="215.697993" y="94.207155" style="fill: #e41a1c; stroke: #e41a1c"/>
     <use xlink:href="#m6f26c1e460" x="222.423199" y="94.591921" style="fill: #e41a1c; stroke: #e41a1c"/>
     <use xlink:href="#m6f26c1e460" x="229.148406" y="90.402001" style="fill: #e41a1c; stroke: #e41a1c"/>
     <use xlink:href="#m6f26c1e460" x="235.873612" y="86.777289" style="fill: #e41a1c; stroke: #e41a1c"/>
     <use xlink:href="#m6f26c1e460" x="242.598819" y="87.899614" style="fill: #e41a1c; stroke: #e41a1c"/>
     <use xlink:href="#m6f26c1e460" x="249.324026" y="82.135455" style="fill: #e41a1c; stroke: #e41a1c"/>
     <use xlink:href="#m6f26c1e460" x="256.049232" y="84.330526" style="fill: #e41a1c; stroke: #e41a1c"/>
     <use xlink:href="#m6f26c1e460" x="262.774439" y="82.010168" style="fill: #e41a1c; stroke: #e41a1c"/>
     <use xlink:href="#m6f26c1e460" x="269.499646" y="73.349887" style="fill: #e41a1c; stroke: #e41a1c"/>
     <use xlink:href="#m6f26c1e460" x="276.224852" y="78.367533" style="fill: #e41a1c; stroke: #e41a1c"/>
     <use xlink:href="#m6f26c1e460" x="282.950059" y="77.880504" style="fill: #e41a1c; stroke: #e41a1c"/>
     <use xlink:href="#m6f26c1e460" x="289.675265" y="74.945718" style="fill: #e41a1c; stroke: #e41a1c"/>
     <use xlink:href="#m6f26c1e460" x="296.400472" y="72.240087" style="fill: #e41a1c; stroke: #e41a1c"/>
     <use xlink:href="#m6f26c1e460" x="303.125679" y="69.083421" style="fill: #e41a1c; stroke: #e41a1c"/>
     <use xlink:href="#m6f26c1e460" x="309.850885" y="66.18353" style="fill: #e41a1c; stroke: #e41a1c"/>
     <use xlink:href="#m6f26c1e460" x="316.576092" y="64.268811" style="fill: #e41a1c; stroke: #e41a1c"/>
     <use xlink:href="#m6f26c1e460" x="323.301298" y="63.366107" style="fill: #e41a1c; stroke: #e41a1c"/>
     <use xlink:href="#m6f26c1e460" x="330.026505" y="64.249043" style="fill: #e41a1c; stroke: #e41a1c"/>
     <use xlink:href="#m6f26c1e460" x="336.751712" y="64.665851" style="fill: #e41a1c; stroke: #e41a1c"/>
     <use xlink:href="#m6f26c1e460" x="343.476918" y="64.554143" style="fill: #e41a1c; stroke: #e41a1c"/>
     <use xlink:href="#m6f26c1e460" x="350.202125" y="64.645166" style="fill: #e41a1c; stroke: #e41a1c"/>
     <use xlink:href="#m6f26c1e460" x="356.927331" y="62.494103" style="fill: #e41a1c; stroke: #e41a1c"/>
     <use xlink:href="#m6f26c1e460" x="363.652538" y="54.145914" style="fill: #e41a1c; stroke: #e41a1c"/>
     <use xlink:href="#m6f26c1e460" x="370.377745" y="59.035379" style="fill: #e41a1c; stroke: #e41a1c"/>
     <use xlink:href="#m6f26c1e460" x="377.102951" y="59.963065" style="fill: #e41a1c; stroke: #e41a1c"/>
     <use xlink:href="#m6f26c1e460" x="383.828158" y="50.868732" style="fill: #e41a1c; stroke: #e41a1c"/>
    </g>
   </g>
   <g id="line2d_28">
    <defs>
     <path id="med6e28eb00" d="M 0 1.5 
C 0.397805 1.5 0.77937 1.341951 1.06066 1.06066 
C 1.341951 0.77937 1.5 0.397805 1.5 0 
C 1.5 -0.397805 1.341951 -0.77937 1.06066 -1.06066 
C 0.77937 -1.341951 0.397805 -1.5 0 -1.5 
C -0.397805 -1.5 -0.77937 -1.341951 -1.06066 -1.06066 
C -1.341951 -0.77937 -1.5 -0.397805 -1.5 0 
C -1.5 0.397805 -1.341951 0.77937 -1.06066 1.06066 
C -0.77937 1.341951 -0.397805 1.5 0 1.5 
z
" style="stroke: #999999"/>
    </defs>
    <g clip-path="url(#pf0c71fcfe7)">
     <use xlink:href="#med6e28eb00" x="61.018241" y="377.64" style="fill: #999999; stroke: #999999"/>
     <use xlink:href="#med6e28eb00" x="67.743447" y="315.292399" style="fill: #999999; stroke: #999999"/>
     <use xlink:href="#med6e28eb00" x="74.468654" y="275.504547" style="fill: #999999; stroke: #999999"/>
     <use xlink:href="#med6e28eb00" x="81.19386" y="248.703806" style="fill: #999999; stroke: #999999"/>
     <use xlink:href="#med6e28eb00" x="87.919067" y="221.630954" style="fill: #999999; stroke: #999999"/>
     <use xlink:href="#med6e28eb00" x="94.644274" y="202.728386" style="fill: #999999; stroke: #999999"/>
     <use xlink:href="#med6e28eb00" x="101.36948" y="190.555018" style="fill: #999999; stroke: #999999"/>
     <use xlink:href="#med6e28eb00" x="108.094687" y="172.988601" style="fill: #999999; stroke: #999999"/>
     <use xlink:href="#med6e28eb00" x="114.819893" y="162.121105" style="fill: #999999; stroke: #999999"/>
     <use xlink:href="#med6e28eb00" x="121.5451" y="155.280845" style="fill: #999999; stroke: #999999"/>
     <use xlink:href="#med6e28eb00" x="128.270307" y="144.79037" style="fill: #999999; stroke: #999999"/>
     <use xlink:href="#med6e28eb00" x="134.995513" y="140.651161" style="fill: #999999; stroke: #999999"/>
     <use xlink:href="#med6e28eb00" x="141.72072" y="131.457428" style="fill: #999999; stroke: #999999"/>
     <use xlink:href="#med6e28eb00" x="148.445927" y="123.974264" style="fill: #999999; stroke: #999999"/>
     <use xlink:href="#med6e28eb00" x="155.171133" y="113.743983" style="fill: #999999; stroke: #999999"/>
     <use xlink:href="#med6e28eb00" x="161.89634" y="109.309423" style="fill: #999999; stroke: #999999"/>
     <use xlink:href="#med6e28eb00" x="168.621546" y="106.164677" style="fill: #999999; stroke: #999999"/>
     <use xlink:href="#med6e28eb00" x="175.346753" y="104.627115" style="fill: #999999; stroke: #999999"/>
     <use xlink:href="#med6e28eb00" x="182.07196" y="94.484257" style="fill: #999999; stroke: #999999"/>
     <use xlink:href="#med6e28eb00" x="188.797166" y="84.980772" style="fill: #999999; stroke: #999999"/>
     <use xlink:href="#med6e28eb00" x="195.522373" y="81.588466" style="fill: #999999; stroke: #999999"/>
     <use xlink:href="#med6e28eb00" x="202.247579" y="73.792238" style="fill: #999999; stroke: #999999"/>
     <use xlink:href="#med6e28eb00" x="208.972786" y="77.898807" style="fill: #999999; stroke: #999999"/>
     <use xlink:href="#med6e28eb00" x="215.697993" y="77.63775" style="fill: #999999; stroke: #999999"/>
     <use xlink:href="#med6e28eb00" x="222.423199" y="72.260502" style="fill: #999999; stroke: #999999"/>
     <use xlink:href="#med6e28eb00" x="229.148406" y="67.233005" style="fill: #999999; stroke: #999999"/>
     <use xlink:href="#med6e28eb00" x="235.873612" y="69.251065" style="fill: #999999; stroke: #999999"/>
     <use xlink:href="#med6e28eb00" x="242.598819" y="66.741755" style="fill: #999999; stroke: #999999"/>
     <use xlink:href="#med6e28eb00" x="249.324026" y="64.255119" style="fill: #999999; stroke: #999999"/>
     <use xlink:href="#med6e28eb00" x="256.049232" y="58.696049" style="fill: #999999; stroke: #999999"/>
     <use xlink:href="#med6e28eb00" x="262.774439" y="61.863947" style="fill: #999999; stroke: #999999"/>
     <use xlink:href="#med6e28eb00" x="269.499646" y="55.857313" style="fill: #999999; stroke: #999999"/>
     <use xlink:href="#med6e28eb00" x="276.224852" y="49.931832" style="fill: #999999; stroke: #999999"/>
     <use xlink:href="#med6e28eb00" x="282.950059" y="55.943023" style="fill: #999999; stroke: #999999"/>
     <use xlink:href="#med6e28eb00" x="289.675265" y="54.567881" style="fill: #999999; stroke: #999999"/>
     <use xlink:href="#med6e28eb00" x="296.400472" y="52.011578" style="fill: #999999; stroke: #999999"/>
     <use xlink:href="#med6e28eb00" x="303.125679" y="49.70133" style="fill: #999999; stroke: #999999"/>
     <use xlink:href="#med6e28eb00" x="309.850885" y="46.89208" style="fill: #999999; stroke: #999999"/>
     <use xlink:href="#med6e28eb00" x="316.576092" y="45.850425" style="fill: #999999; stroke: #999999"/>
     <use xlink:href="#med6e28eb00" x="323.301298" y="45.08348" style="fill: #999999; stroke: #999999"/>
     <use xlink:href="#med6e28eb00" x="330.026505" y="43.79934" style="fill: #999999; stroke: #999999"/>
     <use xlink:href="#med6e28eb00" x="336.751712" y="44.343055" style="fill: #999999; stroke: #999999"/>
     <use xlink:href="#med6e28eb00" x="343.476918" y="43.502369" style="fill: #999999; stroke: #999999"/>
     <use xlink:href="#med6e28eb00" x="350.202125" y="42.008209" style="fill: #999999; stroke: #999999"/>
     <use xlink:href="#med6e28eb00" x="356.927331" y="31.581167" style="fill: #999999; stroke: #999999"/>
     <use xlink:href="#med6e28eb00" x="363.652538" y="34.000142" style="fill: #999999; stroke: #999999"/>
     <use xlink:href="#med6e28eb00" x="370.377745" y="37.455037" style="fill: #999999; stroke: #999999"/>
     <use xlink:href="#med6e28eb00" x="377.102951" y="38.456555" style="fill: #999999; stroke: #999999"/>
     <use xlink:href="#med6e28eb00" x="383.828158" y="24.84" style="fill: #999999; stroke: #999999"/>
    </g>
   </g>
   <g id="patch_3">
    <path d="M 44.877745 395.28 
L 44.877745 7.2 
" style="fill: none; stroke: #000000; stroke-width: 0.8; stroke-linejoin: miter; stroke-linecap: square"/>
   </g>
   <g id="patch_4">
    <path d="M 399.968654 395.28 
L 399.968654 7.2 
" style="fill: none; stroke: #000000; stroke-width: 0.8; stroke-linejoin: miter; stroke-linecap: square"/>
   </g>
   <g id="patch_5">
    <path d="M 44.877745 395.28 
L 399.968654 395.28 
" style="fill: none; stroke: #000000; stroke-width: 0.8; stroke-linejoin: miter; stroke-linecap: square"/>
   </g>
   <g id="patch_6">
    <path d="M 44.877745 7.2 
L 399.968654 7.2 
" style="fill: none; stroke: #000000; stroke-width: 0.8; stroke-linejoin: miter; stroke-linecap: square"/>
   </g>
   <g id="legend_1">
    <g id="patch_7">
     <path d="M 54.677745 57.45424 
L 223.756359 57.45424 
Q 226.556359 57.45424 226.556359 54.65424 
L 226.556359 17 
Q 226.556359 14.2 223.756359 14.2 
L 54.677745 14.2 
Q 51.877745 14.2 51.877745 17 
L 51.877745 54.65424 
Q 51.877745 57.45424 54.677745 57.45424 
z
" style="fill: #ffffff; opacity: 0.8; stroke: #cccccc; stroke-linejoin: miter"/>
    </g>
    <g id="line2d_29">
     <g>
      <use xlink:href="#m6f26c1e460" x="71.477745" y="24.715092" style="fill: #e41a1c; stroke: #e41a1c"/>
     </g>
    </g>
    <g id="text_17">
     <!-- \textbf{equilibrium} -->
     <g transform="translate(96.677745 29.615092) scale(0.14 -0.14)">
      <defs>
       <path id="LMRoman12-Bold-65" d="M 3078 748 
C 3078 843 2982 843 2944 843 
C 2842 843 2835 824 2797 742 
C 2630 330 2208 197 1901 197 
C 973 197 966 1053 966 1408 
L 2893 1408 
C 3040 1408 3078 1408 3078 1567 
C 3078 1758 3034 2233 2739 2532 
C 2470 2798 2112 2880 1741 2880 
C 742 2880 198 2233 198 1434 
C 198 545 858 -32 1824 -32 
C 2790 -32 3078 640 3078 748 
z
M 2490 1593 
L 966 1593 
C 979 1852 986 2100 1120 2328 
C 1242 2531 1466 2670 1741 2670 
C 2426 2670 2483 1909 2490 1593 
z
" transform="scale(0.015625)"/>
       <path id="LMRoman12-Bold-71" d="M 3770 -1228 
L 3770 -955 
L 3328 -955 
L 3328 2853 
L 3091 2853 
L 2752 2327 
C 2528 2651 2214 2853 1792 2853 
C 909 2853 243 2309 243 1410 
C 243 505 883 -32 1728 -32 
C 1971 -32 2298 19 2630 330 
L 2630 -955 
L 2189 -955 
L 2189 -1228 
C 2336 -1216 2797 -1216 2976 -1216 
C 3155 -1216 3622 -1216 3770 -1228 
z
M 2662 759 
C 2394 259 2016 178 1805 178 
C 1395 178 1011 551 1011 1404 
C 1011 2327 1498 2624 1875 2624 
C 2374 2624 2662 2112 2662 1821 
L 2662 759 
z
" transform="scale(0.015625)"/>
       <path id="LMRoman12-Bold-75" d="M 3840 0 
L 3840 292 
C 3443 292 3398 292 3398 540 
L 3398 2859 
L 2259 2859 
L 2259 2560 
C 2656 2560 2701 2560 2701 2312 
L 2701 1056 
C 2701 569 2413 178 1914 178 
C 1434 178 1408 337 1408 684 
L 1408 2859 
L 269 2859 
L 269 2560 
C 666 2560 710 2560 710 2312 
L 710 794 
C 710 153 1139 -32 1824 -32 
C 1978 -32 2451 -32 2726 496 
L 2733 496 
L 2733 0 
L 3840 0 
z
" transform="scale(0.015625)"/>
       <path id="LMRoman12-Bold-69" d="M 1786 -13 
L 1786 260 
L 1389 260 
L 1389 2816 
L 301 2816 
L 301 2517 
C 678 2517 723 2517 723 2270 
L 723 260 
L 282 260 
L 282 -13 
C 429 0 870 0 1043 0 
C 1222 0 1632 0 1786 -13 
z
M 1466 3850 
C 1466 4110 1248 4307 1005 4307 
C 742 4307 538 4098 538 3850 
C 538 3589 755 3392 998 3392 
C 1261 3392 1466 3602 1466 3850 
z
" transform="scale(0.015625)"/>
       <path id="LMRoman12-Bold-6c" d="M 1830 -13 
L 1830 260 
L 1389 260 
L 1389 4352 
L 282 4352 
L 282 4053 
C 678 4053 723 4053 723 3806 
L 723 260 
L 282 260 
L 282 -13 
C 429 0 883 0 1056 0 
C 1229 0 1683 0 1830 -13 
z
" transform="scale(0.015625)"/>
       <path id="LMRoman12-Bold-62" d="M 3750 1431 
C 3750 2305 3149 2880 2272 2880 
C 1894 2880 1594 2759 1331 2555 
L 1331 4352 
L 224 4352 
L 224 4053 
C 621 4053 666 4053 666 3816 
L 666 0 
L 934 0 
C 1043 123 1152 247 1254 376 
C 1581 38 1933 -32 2189 -32 
C 3072 -32 3750 504 3750 1431 
z
M 2982 1437 
C 2982 1149 2982 785 2829 548 
C 2630 241 2330 178 2125 178 
C 1690 178 1453 484 1363 625 
L 1363 2248 
C 1587 2555 1920 2670 2189 2670 
C 2982 2670 2982 1859 2982 1437 
z
" transform="scale(0.015625)"/>
       <path id="LMRoman12-Bold-72" d="M 2733 2337 
C 2733 2658 2400 2834 2093 2834 
C 1587 2834 1370 2401 1280 2137 
L 1274 2137 
L 1274 2816 
L 224 2816 
L 224 2517 
C 621 2517 666 2517 666 2270 
L 666 260 
L 224 260 
L 224 -13 
C 371 0 851 0 1030 0 
C 1216 0 1734 0 1888 -13 
L 1888 260 
L 1331 260 
L 1331 1411 
C 1331 1619 1376 2624 2125 2624 
C 2035 2555 1990 2448 1990 2336 
C 1990 2079 2202 1972 2362 1972 
C 2522 1972 2733 2079 2733 2337 
z
" transform="scale(0.015625)"/>
       <path id="LMRoman12-Bold-6d" d="M 5843 -13 
L 5843 260 
L 5402 260 
L 5402 1924 
C 5402 2506 5152 2834 4435 2834 
C 3789 2834 3488 2407 3386 2206 
C 3283 2740 2848 2834 2438 2834 
C 1824 2834 1491 2445 1357 2143 
L 1350 2143 
L 1350 2816 
L 269 2816 
L 269 2517 
C 666 2517 710 2517 710 2270 
L 710 260 
L 269 260 
L 269 -13 
C 416 0 877 0 1056 0 
C 1235 0 1702 0 1850 -13 
L 1850 260 
L 1408 260 
L 1408 1607 
C 1408 2296 1926 2624 2330 2624 
C 2566 2624 2707 2485 2707 1993 
L 2707 260 
L 2266 260 
L 2266 -13 
C 2413 0 2874 0 3053 0 
C 3232 0 3699 0 3846 -13 
L 3846 260 
L 3405 260 
L 3405 1607 
C 3405 2296 3923 2624 4326 2624 
C 4563 2624 4704 2485 4704 1993 
L 4704 260 
L 4262 260 
L 4262 -13 
C 4410 0 4870 0 5050 0 
C 5229 0 5696 0 5843 -13 
z
" transform="scale(0.015625)"/>
      </defs>
      <use xlink:href="#LMRoman12-Bold-65" transform="scale(0.996264)"/>
      <use xlink:href="#LMRoman12-Bold-71" transform="translate(51.141547 0) scale(0.996264)"/>
      <use xlink:href="#LMRoman12-Bold-75" transform="translate(110.294723 0) scale(0.996264)"/>
      <use xlink:href="#LMRoman12-Bold-69" transform="translate(172.561224 0) scale(0.996264)"/>
      <use xlink:href="#LMRoman12-Bold-6c" transform="translate(203.694474 0) scale(0.996264)"/>
      <use xlink:href="#LMRoman12-Bold-69" transform="translate(234.827724 0) scale(0.996264)"/>
      <use xlink:href="#LMRoman12-Bold-62" transform="translate(265.960975 0) scale(0.996264)"/>
      <use xlink:href="#LMRoman12-Bold-72" transform="translate(328.227475 0) scale(0.996264)"/>
      <use xlink:href="#LMRoman12-Bold-69" transform="translate(374.005834 0) scale(0.996264)"/>
      <use xlink:href="#LMRoman12-Bold-75" transform="translate(405.139084 0) scale(0.996264)"/>
      <use xlink:href="#LMRoman12-Bold-6d" transform="translate(467.405585 0) scale(0.996264)"/>
     </g>
    </g>
    <g id="line2d_30">
     <g>
      <use xlink:href="#med6e28eb00" x="71.477745" y="44.242212" style="fill: #999999; stroke: #999999"/>
     </g>
    </g>
    <g id="text_18">
     <!-- \textbf{out of equilibrium} -->
     <g transform="translate(96.677745 49.142212) scale(0.14 -0.14)">
      <defs>
       <path id="LMRoman12-Bold-6f" d="M 3392 1395 
C 3392 2252 2803 2880 1798 2880 
C 755 2880 198 2220 198 1395 
C 198 565 787 -32 1792 -32 
C 2835 -32 3392 596 3392 1395 
z
M 2624 1459 
C 2624 932 2624 197 1798 197 
C 966 197 966 939 966 1459 
C 966 1757 966 2074 1088 2303 
C 1229 2556 1517 2670 1792 2670 
C 2157 2670 2387 2499 2496 2322 
C 2624 2093 2624 1763 2624 1459 
z
" transform="scale(0.015625)"/>
       <path id="LMRoman12-Bold-74" d="M 2394 795 
L 2394 1133 
L 2125 1133 
L 2125 802 
C 2125 381 1933 197 1734 197 
C 1350 197 1350 624 1350 770 
L 1350 2560 
L 2272 2560 
L 2272 2833 
L 1350 2833 
L 1350 4032 
L 1082 4032 
C 1075 3405 768 2776 134 2776 
L 134 2560 
L 653 2560 
L 653 789 
C 653 114 1178 -32 1638 -32 
C 2112 -32 2394 325 2394 795 
z
" transform="scale(0.015625)"/>
       <path id="LMRoman12-Bold-66" d="M 2701 3909 
C 2701 4168 2470 4434 2016 4434 
C 1434 4434 723 4193 723 3460 
L 723 2816 
L 250 2816 
L 250 2543 
L 723 2543 
L 723 260 
L 282 260 
L 282 -13 
C 429 0 909 0 1088 0 
C 1274 0 1792 0 1946 -13 
L 1946 260 
L 1389 260 
L 1389 2543 
L 2118 2543 
L 2118 2816 
L 1357 2816 
L 1357 3466 
C 1357 4123 1779 4224 1990 4224 
C 2061 4224 2074 4217 2112 4205 
C 2016 4141 1958 4034 1958 3902 
C 1958 3649 2163 3536 2330 3536 
C 2470 3536 2701 3630 2701 3909 
z
" transform="scale(0.015625)"/>
      </defs>
      <use xlink:href="#LMRoman12-Bold-6f" transform="scale(0.996264)"/>
      <use xlink:href="#LMRoman12-Bold-75" transform="translate(56.039851 0) scale(0.996264)"/>
      <use xlink:href="#LMRoman12-Bold-74" transform="translate(118.306351 0) scale(0.996264)"/>
      <use xlink:href="#LMRoman12-Bold-6f" transform="translate(199.252802 0) scale(0.996264)"/>
      <use xlink:href="#LMRoman12-Bold-66" transform="translate(255.292653 0) scale(0.996264)"/>
      <use xlink:href="#LMRoman12-Bold-65" transform="translate(326.899128 0) scale(0.996264)"/>
      <use xlink:href="#LMRoman12-Bold-71" transform="translate(378.040676 0) scale(0.996264)"/>
      <use xlink:href="#LMRoman12-Bold-75" transform="translate(437.193851 0) scale(0.996264)"/>
      <use xlink:href="#LMRoman12-Bold-69" transform="translate(499.460352 0) scale(0.996264)"/>
      <use xlink:href="#LMRoman12-Bold-6c" transform="translate(530.593602 0) scale(0.996264)"/>
      <use xlink:href="#LMRoman12-Bold-69" transform="translate(561.726853 0) scale(0.996264)"/>
      <use xlink:href="#LMRoman12-Bold-62" transform="translate(592.860103 0) scale(0.996264)"/>
      <use xlink:href="#LMRoman12-Bold-72" transform="translate(655.126603 0) scale(0.996264)"/>
      <use xlink:href="#LMRoman12-Bold-69" transform="translate(700.904962 0) scale(0.996264)"/>
      <use xlink:href="#LMRoman12-Bold-75" transform="translate(732.038212 0) scale(0.996264)"/>
      <use xlink:href="#LMRoman12-Bold-6d" transform="translate(794.304713 0) scale(0.996264)"/>
     </g>
    </g>
   </g>
  </g>
  <g id="axes_2">
   <g id="patch_8">
    <path d="M 470.986836 395.28 
L 826.077745 395.28 
L 826.077745 7.2 
L 470.986836 7.2 
z
" style="fill: #ffffff"/>
   </g>
   <g id="matplotlib.axis_3">
    <g id="xtick_7">
     <g id="line2d_31">
      <path d="M 544.600183 395.28 
L 544.600183 7.2 
" clip-path="url(#p9f52d6fd05)" style="fill: none; stroke: #b0b0b0; stroke-width: 0.7; stroke-linecap: square"/>
     </g>
     <g id="line2d_32">
      <g>
       <use xlink:href="#ma121a74e26" x="544.600183" y="395.28" style="stroke: #000000; stroke-width: 0.8"/>
      </g>
     </g>
     <g id="text_19">
      <!-- $\mathdefault{2}$ -->
      <g transform="translate(541.185909 412.024768) scale(0.14 -0.14)">
       <use xlink:href="#LMRoman17-Regular-32" transform="scale(0.996264)"/>
      </g>
     </g>
    </g>
    <g id="xtick_8">
     <g id="line2d_33">
      <path d="M 620.824125 395.28 
L 620.824125 7.2 
" clip-path="url(#p9f52d6fd05)" style="fill: none; stroke: #b0b0b0; stroke-width: 0.7; stroke-linecap: square"/>
     </g>
     <g id="line2d_34">
      <g>
       <use xlink:href="#ma121a74e26" x="620.824125" y="395.28" style="stroke: #000000; stroke-width: 0.8"/>
      </g>
     </g>
     <g id="text_20">
      <!-- $\mathdefault{4}$ -->
      <g transform="translate(617.40985 412.024768) scale(0.14 -0.14)">
       <use xlink:href="#LMRoman17-Regular-34" transform="scale(0.996264)"/>
      </g>
     </g>
    </g>
    <g id="xtick_9">
     <g id="line2d_35">
      <path d="M 697.048067 395.28 
L 697.048067 7.2 
" clip-path="url(#p9f52d6fd05)" style="fill: none; stroke: #b0b0b0; stroke-width: 0.7; stroke-linecap: square"/>
     </g>
     <g id="line2d_36">
      <g>
       <use xlink:href="#ma121a74e26" x="697.048067" y="395.28" style="stroke: #000000; stroke-width: 0.8"/>
      </g>
     </g>
     <g id="text_21">
      <!-- $\mathdefault{6}$ -->
      <g transform="translate(693.633792 412.024768) scale(0.14 -0.14)">
       <use xlink:href="#LMRoman17-Regular-36" transform="scale(0.996264)"/>
      </g>
     </g>
    </g>
    <g id="xtick_10">
     <g id="line2d_37">
      <path d="M 773.272008 395.28 
L 773.272008 7.2 
" clip-path="url(#p9f52d6fd05)" style="fill: none; stroke: #b0b0b0; stroke-width: 0.7; stroke-linecap: square"/>
     </g>
     <g id="line2d_38">
      <g>
       <use xlink:href="#ma121a74e26" x="773.272008" y="395.28" style="stroke: #000000; stroke-width: 0.8"/>
      </g>
     </g>
     <g id="text_22">
      <!-- $\mathdefault{8}$ -->
      <g transform="translate(769.857734 412.024768) scale(0.14 -0.14)">
       <use xlink:href="#LMRoman17-Regular-38" transform="scale(0.996264)"/>
      </g>
     </g>
    </g>
    <g id="text_23">
     <!-- imbibition height in $m$ -->
     <g transform="translate(581.101432 428.481565) scale(0.14 -0.14)">
      <defs>
       <path id="LMRoman17-Regular-62" d="M 3053 1370 
C 3053 2188 2477 2790 1830 2790 
C 1434 2790 1152 2579 960 2330 
L 960 4396 
L 198 4326 
L 198 4160 
C 576 4160 634 4122 634 3817 
L 634 -13 
L 749 -13 
L 934 441 
C 1120 141 1395 -64 1766 -64 
C 2406 -64 3053 500 3053 1370 
z
M 2643 1376 
C 2643 108 1888 38 1734 38 
C 1536 38 1248 114 1043 486 
C 973 608 973 621 973 735 
L 973 2004 
C 973 2118 973 2138 1062 2272 
C 1312 2657 1670 2688 1792 2688 
C 1984 2688 2643 2585 2643 1376 
z
" transform="scale(0.015625)"/>
       <path id="LMRoman17-Regular-68" d="M 3091 -13 
L 3091 153 
C 2682 153 2656 178 2656 428 
L 2656 1933 
C 2656 2259 2592 2790 1837 2790 
C 1312 2790 1056 2368 979 2157 
L 973 2157 
L 973 4396 
L 211 4326 
L 211 4160 
C 589 4160 646 4122 646 3817 
L 646 426 
C 646 184 621 153 211 153 
L 211 -13 
C 365 0 646 0 813 0 
C 979 0 1267 0 1421 -13 
L 1421 153 
C 1011 153 986 178 986 428 
L 986 1658 
C 986 2247 1344 2688 1792 2688 
C 2266 2688 2317 2266 2317 1958 
L 2317 428 
C 2317 184 2291 153 1882 153 
L 1882 -13 
C 2035 0 2317 0 2483 0 
C 2650 0 2938 0 3091 -13 
z
" transform="scale(0.015625)"/>
       <path id="LMRoman17-Regular-67" d="M 2886 2614 
C 2886 2731 2790 2854 2586 2854 
C 2330 2854 2106 2738 1926 2580 
C 1734 2753 1504 2816 1299 2816 
C 794 2816 358 2419 358 1888 
C 358 1522 570 1292 634 1228 
C 442 1004 442 743 442 711 
C 442 545 506 302 723 168 
C 390 85 128 -169 128 -486 
C 128 -943 736 -1280 1466 -1280 
C 2170 -1280 2803 -956 2803 -479 
C 2803 384 1856 384 1363 384 
C 1216 384 954 384 922 391 
C 723 423 589 602 589 825 
C 589 882 589 1024 710 1164 
C 832 1068 1043 960 1299 960 
C 1805 960 2240 1357 2240 1888 
C 2240 2054 2189 2310 1997 2509 
C 2176 2692 2438 2752 2586 2752 
C 2611 2752 2650 2752 2682 2734 
C 2656 2728 2598 2703 2598 2605 
C 2598 2527 2656 2471 2739 2471 
C 2835 2471 2886 2533 2886 2614 
z
M 1862 1889 
C 1862 1760 1862 1068 1299 1068 
C 736 1068 736 1760 736 1889 
C 736 2016 736 2708 1299 2708 
C 1862 2708 1862 2016 1862 1889 
z
M 2547 -486 
C 2547 -835 2106 -1171 1466 -1171 
C 826 -1171 384 -835 384 -486 
C 384 -289 493 -105 634 -4 
C 794 104 858 104 1293 104 
C 1818 104 2547 104 2547 -486 
z
" transform="scale(0.015625)"/>
       <path id="LMMathItalic12-Regular-6d" d="M 5293 913 
C 5293 945 5267 971 5229 971 
C 5171 971 5165 952 5133 843 
C 4986 332 4749 64 4493 64 
C 4429 64 4326 64 4326 269 
C 4326 436 4403 640 4429 710 
C 4544 1018 4832 1773 4832 2145 
C 4832 2528 4608 2816 4122 2816 
C 3693 2816 3347 2574 3091 2197 
C 3072 2542 2861 2816 2381 2816 
C 1811 2816 1510 2415 1395 2255 
C 1376 2618 1114 2816 832 2816 
C 646 2816 499 2727 378 2484 
C 262 2254 173 1865 173 1839 
C 173 1814 198 1782 243 1782 
C 294 1782 301 1788 339 1935 
C 435 2312 557 2689 813 2689 
C 960 2689 1011 2586 1011 2395 
C 1011 2254 947 2005 902 1807 
L 723 1118 
L 595 594 
C 550 428 480 128 480 96 
C 480 6 550 -64 646 -64 
C 723 -64 813 -26 864 70 
C 877 102 934 326 966 453 
L 1107 1028 
L 1318 1871 
C 1331 1910 1491 2229 1728 2433 
C 1894 2586 2112 2689 2362 2689 
C 2618 2689 2707 2497 2707 2242 
C 2707 2203 2707 2076 2630 1775 
C 2547 1443 2547 1424 2470 1118 
L 2285 383 
C 2259 287 2221 121 2221 96 
C 2221 6 2291 -64 2387 -64 
C 2579 -64 2611 83 2669 313 
L 3053 1839 
C 3066 1890 3398 2689 4102 2689 
C 4358 2689 4448 2497 4448 2242 
C 4448 1884 4198 1188 4058 805 
C 4000 651 3968 568 3968 453 
C 3968 166 4166 -64 4474 -64 
C 5069 -64 5293 875 5293 913 
z
" transform="scale(0.015625)"/>
      </defs>
      <use xlink:href="#LMRoman17-Regular-69" transform="scale(0.996264)"/>
      <use xlink:href="#LMRoman17-Regular-6d" transform="translate(24.872016 0) scale(0.996264)"/>
      <use xlink:href="#LMRoman17-Regular-62" transform="translate(99.191721 0) scale(0.996264)"/>
      <use xlink:href="#LMRoman17-Regular-69" transform="translate(150.088809 0) scale(0.996264)"/>
      <use xlink:href="#LMRoman17-Regular-62" transform="translate(174.960825 0) scale(0.996264)"/>
      <use xlink:href="#LMRoman17-Regular-69" transform="translate(225.857913 0) scale(0.996264)"/>
      <use xlink:href="#LMRoman17-Regular-74" transform="translate(250.729929 0) scale(0.996264)"/>
      <use xlink:href="#LMRoman17-Regular-69" transform="translate(286.011457 0) scale(0.996264)"/>
      <use xlink:href="#LMRoman17-Regular-6f" transform="translate(310.883473 0) scale(0.996264)"/>
      <use xlink:href="#LMRoman17-Regular-6e" transform="translate(356.574421 0) scale(0.996264)"/>
      <use xlink:href="#LMRoman17-Regular-68" transform="translate(437.547658 0) scale(0.996264)"/>
      <use xlink:href="#LMRoman17-Regular-65" transform="translate(488.444745 0) scale(0.996264)"/>
      <use xlink:href="#LMRoman17-Regular-69" transform="translate(528.929554 0) scale(0.996264)"/>
      <use xlink:href="#LMRoman17-Regular-67" transform="translate(553.801571 0) scale(0.996264)"/>
      <use xlink:href="#LMRoman17-Regular-68" transform="translate(599.492519 0) scale(0.996264)"/>
      <use xlink:href="#LMRoman17-Regular-74" transform="translate(647.787153 0) scale(0.996264)"/>
      <use xlink:href="#LMRoman17-Regular-69" transform="translate(713.144829 0) scale(0.996264)"/>
      <use xlink:href="#LMRoman17-Regular-6e" transform="translate(738.016845 0) scale(0.996264)"/>
      <use xlink:href="#LMMathItalic12-Regular-6d" transform="translate(818.990082 0) scale(0.996264)"/>
     </g>
    </g>
    <g id="text_24">
     <!-- $\times\mathdefault{10^{−8}}\mathdefault{}$ -->
     <g transform="translate(789.097007 427.481565) scale(0.14 -0.14)">
      <use xlink:href="#LMMathSymbols10-Regular-2" transform="scale(0.996264)"/>
      <use xlink:href="#LMRoman17-Regular-31" transform="translate(77.487468 0) scale(0.996264)"/>
      <use xlink:href="#LMRoman17-Regular-30" transform="translate(123.178416 0) scale(0.996264)"/>
      <use xlink:href="#LMMathSymbols10-Regular-0" transform="translate(168.869364 36.153639) scale(0.697382)"/>
      <use xlink:href="#LMRoman17-Regular-38" transform="translate(223.110358 36.153639) scale(0.697382)"/>
     </g>
    </g>
   </g>
   <g id="matplotlib.axis_4">
    <g id="ytick_8">
     <g id="line2d_39">
      <path d="M 470.986836 340.662339 
L 826.077745 340.662339 
" clip-path="url(#p9f52d6fd05)" style="fill: none; stroke: #b0b0b0; stroke-width: 0.7; stroke-linecap: square"/>
     </g>
     <g id="line2d_40">
      <g>
       <use xlink:href="#m3dbf4220e5" x="470.986836" y="340.662339" style="stroke: #000000; stroke-width: 0.8"/>
      </g>
     </g>
     <g id="text_25">
      <!-- $\mathdefault{0.3}$ -->
      <g transform="translate(446.536132 345.534723) scale(0.14 -0.14)">
       <use xlink:href="#LMRoman17-Regular-30" transform="scale(0.996264)"/>
       <use xlink:href="#LMMathItalic12-Regular-3a" transform="translate(45.690948 0) scale(0.996264)"/>
       <use xlink:href="#LMRoman17-Regular-33" transform="translate(72.788125 0) scale(0.996264)"/>
      </g>
     </g>
    </g>
    <g id="ytick_9">
     <g id="line2d_41">
      <path d="M 470.986836 285.989417 
L 826.077745 285.989417 
" clip-path="url(#p9f52d6fd05)" style="fill: none; stroke: #b0b0b0; stroke-width: 0.7; stroke-linecap: square"/>
     </g>
     <g id="line2d_42">
      <g>
       <use xlink:href="#m3dbf4220e5" x="470.986836" y="285.989417" style="stroke: #000000; stroke-width: 0.8"/>
      </g>
     </g>
     <g id="text_26">
      <!-- $\mathdefault{0.4}$ -->
      <g transform="translate(446.536132 290.861801) scale(0.14 -0.14)">
       <use xlink:href="#LMRoman17-Regular-30" transform="scale(0.996264)"/>
       <use xlink:href="#LMMathItalic12-Regular-3a" transform="translate(45.690948 0) scale(0.996264)"/>
       <use xlink:href="#LMRoman17-Regular-34" transform="translate(72.788125 0) scale(0.996264)"/>
      </g>
     </g>
    </g>
    <g id="ytick_10">
     <g id="line2d_43">
      <path d="M 470.986836 231.316496 
L 826.077745 231.316496 
" clip-path="url(#p9f52d6fd05)" style="fill: none; stroke: #b0b0b0; stroke-width: 0.7; stroke-linecap: square"/>
     </g>
     <g id="line2d_44">
      <g>
       <use xlink:href="#m3dbf4220e5" x="470.986836" y="231.316496" style="stroke: #000000; stroke-width: 0.8"/>
      </g>
     </g>
     <g id="text_27">
      <!-- $\mathdefault{0.5}$ -->
      <g transform="translate(446.536132 236.18888) scale(0.14 -0.14)">
       <use xlink:href="#LMRoman17-Regular-30" transform="scale(0.996264)"/>
       <use xlink:href="#LMMathItalic12-Regular-3a" transform="translate(45.690948 0) scale(0.996264)"/>
       <use xlink:href="#LMRoman17-Regular-35" transform="translate(72.788125 0) scale(0.996264)"/>
      </g>
     </g>
    </g>
    <g id="ytick_11">
     <g id="line2d_45">
      <path d="M 470.986836 176.643574 
L 826.077745 176.643574 
" clip-path="url(#p9f52d6fd05)" style="fill: none; stroke: #b0b0b0; stroke-width: 0.7; stroke-linecap: square"/>
     </g>
     <g id="line2d_46">
      <g>
       <use xlink:href="#m3dbf4220e5" x="470.986836" y="176.643574" style="stroke: #000000; stroke-width: 0.8"/>
      </g>
     </g>
     <g id="text_28">
      <!-- $\mathdefault{0.6}$ -->
      <g transform="translate(446.536132 181.515958) scale(0.14 -0.14)">
       <use xlink:href="#LMRoman17-Regular-30" transform="scale(0.996264)"/>
       <use xlink:href="#LMMathItalic12-Regular-3a" transform="translate(45.690948 0) scale(0.996264)"/>
       <use xlink:href="#LMRoman17-Regular-36" transform="translate(72.788125 0) scale(0.996264)"/>
      </g>
     </g>
    </g>
    <g id="ytick_12">
     <g id="line2d_47">
      <path d="M 470.986836 121.970652 
L 826.077745 121.970652 
" clip-path="url(#p9f52d6fd05)" style="fill: none; stroke: #b0b0b0; stroke-width: 0.7; stroke-linecap: square"/>
     </g>
     <g id="line2d_48">
      <g>
       <use xlink:href="#m3dbf4220e5" x="470.986836" y="121.970652" style="stroke: #000000; stroke-width: 0.8"/>
      </g>
     </g>
     <g id="text_29">
      <!-- $\mathdefault{0.7}$ -->
      <g transform="translate(446.536132 126.843036) scale(0.14 -0.14)">
       <use xlink:href="#LMRoman17-Regular-30" transform="scale(0.996264)"/>
       <use xlink:href="#LMMathItalic12-Regular-3a" transform="translate(45.690948 0) scale(0.996264)"/>
       <use xlink:href="#LMRoman17-Regular-37" transform="translate(72.788125 0) scale(0.996264)"/>
      </g>
     </g>
    </g>
    <g id="ytick_13">
     <g id="line2d_49">
      <path d="M 470.986836 67.29773 
L 826.077745 67.29773 
" clip-path="url(#p9f52d6fd05)" style="fill: none; stroke: #b0b0b0; stroke-width: 0.7; stroke-linecap: square"/>
     </g>
     <g id="line2d_50">
      <g>
       <use xlink:href="#m3dbf4220e5" x="470.986836" y="67.29773" style="stroke: #000000; stroke-width: 0.8"/>
      </g>
     </g>
     <g id="text_30">
      <!-- $\mathdefault{0.8}$ -->
      <g transform="translate(446.536132 72.170115) scale(0.14 -0.14)">
       <use xlink:href="#LMRoman17-Regular-30" transform="scale(0.996264)"/>
       <use xlink:href="#LMMathItalic12-Regular-3a" transform="translate(45.690948 0) scale(0.996264)"/>
       <use xlink:href="#LMRoman17-Regular-38" transform="translate(72.788125 0) scale(0.996264)"/>
      </g>
     </g>
    </g>
    <g id="ytick_14">
     <g id="line2d_51">
      <path d="M 470.986836 12.624809 
L 826.077745 12.624809 
" clip-path="url(#p9f52d6fd05)" style="fill: none; stroke: #b0b0b0; stroke-width: 0.7; stroke-linecap: square"/>
     </g>
     <g id="line2d_52">
      <g>
       <use xlink:href="#m3dbf4220e5" x="470.986836" y="12.624809" style="stroke: #000000; stroke-width: 0.8"/>
      </g>
     </g>
     <g id="text_31">
      <!-- $\mathdefault{0.9}$ -->
      <g transform="translate(446.536132 17.497193) scale(0.14 -0.14)">
       <use xlink:href="#LMRoman17-Regular-30" transform="scale(0.996264)"/>
       <use xlink:href="#LMMathItalic12-Regular-3a" transform="translate(45.690948 0) scale(0.996264)"/>
       <use xlink:href="#LMRoman17-Regular-39" transform="translate(72.788125 0) scale(0.996264)"/>
      </g>
     </g>
    </g>
    <g id="text_32">
     <!-- Poseuille Forces/Total viscous forces -->
     <g transform="translate(439.049208 310.114276) rotate(-90) scale(0.14 -0.14)">
      <use xlink:href="#LMRoman17-Regular-50" transform="scale(0.996264)"/>
      <use xlink:href="#LMRoman17-Regular-6f" transform="translate(59.981095 0) scale(0.996264)"/>
      <use xlink:href="#LMRoman17-Regular-73" transform="translate(105.672043 0) scale(0.996264)"/>
      <use xlink:href="#LMRoman17-Regular-65" transform="translate(141.475281 0) scale(0.996264)"/>
      <use xlink:href="#LMRoman17-Regular-75" transform="translate(181.96009 0) scale(0.996264)"/>
      <use xlink:href="#LMRoman17-Regular-69" transform="translate(232.857178 0) scale(0.996264)"/>
      <use xlink:href="#LMRoman17-Regular-6c" transform="translate(257.729194 0) scale(0.996264)"/>
      <use xlink:href="#LMRoman17-Regular-6c" transform="translate(282.60121 0) scale(0.996264)"/>
      <use xlink:href="#LMRoman17-Regular-65" transform="translate(307.473227 0) scale(0.996264)"/>
      <use xlink:href="#LMRoman17-Regular-46" transform="translate(378.034185 0) scale(0.996264)"/>
      <use xlink:href="#LMRoman17-Regular-6f" transform="translate(430.210578 0) scale(0.996264)"/>
      <use xlink:href="#LMRoman17-Regular-72" transform="translate(475.901527 0) scale(0.996264)"/>
      <use xlink:href="#LMRoman17-Regular-63" transform="translate(511.183054 0) scale(0.996264)"/>
      <use xlink:href="#LMRoman17-Regular-65" transform="translate(551.667864 0) scale(0.996264)"/>
      <use xlink:href="#LMRoman17-Regular-73" transform="translate(592.152673 0) scale(0.996264)"/>
      <use xlink:href="#LMRoman17-Regular-2f" transform="translate(627.955911 0) scale(0.996264)"/>
      <use xlink:href="#LMRoman17-Regular-54" transform="translate(673.646859 0) scale(0.996264)"/>
      <use xlink:href="#LMRoman17-Regular-6f" transform="translate(732.349575 0) scale(0.996264)"/>
      <use xlink:href="#LMRoman17-Regular-74" transform="translate(778.040524 0) scale(0.996264)"/>
      <use xlink:href="#LMRoman17-Regular-61" transform="translate(813.322052 0) scale(0.996264)"/>
      <use xlink:href="#LMRoman17-Regular-6c" transform="translate(859.013 0) scale(0.996264)"/>
      <use xlink:href="#LMRoman17-Regular-76" transform="translate(913.961165 0) scale(0.996264)"/>
      <use xlink:href="#LMRoman17-Regular-69" transform="translate(962.252378 0) scale(0.996264)"/>
      <use xlink:href="#LMRoman17-Regular-73" transform="translate(987.124394 0) scale(0.996264)"/>
      <use xlink:href="#LMRoman17-Regular-63" transform="translate(1022.927632 0) scale(0.996264)"/>
      <use xlink:href="#LMRoman17-Regular-6f" transform="translate(1063.412441 0) scale(0.996264)"/>
      <use xlink:href="#LMRoman17-Regular-75" transform="translate(1109.10339 0) scale(0.996264)"/>
      <use xlink:href="#LMRoman17-Regular-73" transform="translate(1160.000477 0) scale(0.996264)"/>
      <use xlink:href="#LMRoman17-Regular-66" transform="translate(1225.879864 0) scale(0.996264)"/>
      <use xlink:href="#LMRoman17-Regular-6f" transform="translate(1253.352039 0) scale(0.996264)"/>
      <use xlink:href="#LMRoman17-Regular-72" transform="translate(1299.042987 0) scale(0.996264)"/>
      <use xlink:href="#LMRoman17-Regular-63" transform="translate(1334.324515 0) scale(0.996264)"/>
      <use xlink:href="#LMRoman17-Regular-65" transform="translate(1374.809324 0) scale(0.996264)"/>
      <use xlink:href="#LMRoman17-Regular-73" transform="translate(1415.294133 0) scale(0.996264)"/>
     </g>
    </g>
   </g>
   <g id="line2d_53">
    <g clip-path="url(#p9f52d6fd05)">
     <use xlink:href="#m6f26c1e460" x="487.561808" y="376.311208" style="fill: #e41a1c; stroke: #e41a1c"/>
     <use xlink:href="#m6f26c1e460" x="504.148138" y="311.940178" style="fill: #e41a1c; stroke: #e41a1c"/>
     <use xlink:href="#m6f26c1e460" x="518.676421" y="272.675273" style="fill: #e41a1c; stroke: #e41a1c"/>
     <use xlink:href="#m6f26c1e460" x="531.752638" y="242.721355" style="fill: #e41a1c; stroke: #e41a1c"/>
     <use xlink:href="#m6f26c1e460" x="543.731231" y="219.171765" style="fill: #e41a1c; stroke: #e41a1c"/>
     <use xlink:href="#m6f26c1e460" x="554.837059" y="205.567052" style="fill: #e41a1c; stroke: #e41a1c"/>
     <use xlink:href="#m6f26c1e460" x="565.241627" y="190.490693" style="fill: #e41a1c; stroke: #e41a1c"/>
     <use xlink:href="#m6f26c1e460" x="575.051648" y="178.292123" style="fill: #e41a1c; stroke: #e41a1c"/>
     <use xlink:href="#m6f26c1e460" x="584.362403" y="164.894039" style="fill: #e41a1c; stroke: #e41a1c"/>
     <use xlink:href="#m6f26c1e460" x="593.234869" y="158.116185" style="fill: #e41a1c; stroke: #e41a1c"/>
     <use xlink:href="#m6f26c1e460" x="601.733839" y="151.448706" style="fill: #e41a1c; stroke: #e41a1c"/>
     <use xlink:href="#m6f26c1e460" x="609.893612" y="143.835917" style="fill: #e41a1c; stroke: #e41a1c"/>
     <use xlink:href="#m6f26c1e460" x="617.763734" y="134.704409" style="fill: #e41a1c; stroke: #e41a1c"/>
     <use xlink:href="#m6f26c1e460" x="625.355638" y="131.349459" style="fill: #e41a1c; stroke: #e41a1c"/>
     <use xlink:href="#m6f26c1e460" x="632.703626" y="126.137181" style="fill: #e41a1c; stroke: #e41a1c"/>
     <use xlink:href="#m6f26c1e460" x="639.826754" y="122.364328" style="fill: #e41a1c; stroke: #e41a1c"/>
     <use xlink:href="#m6f26c1e460" x="646.744076" y="115.266884" style="fill: #e41a1c; stroke: #e41a1c"/>
     <use xlink:href="#m6f26c1e460" x="653.470839" y="118.775579" style="fill: #e41a1c; stroke: #e41a1c"/>
     <use xlink:href="#m6f26c1e460" x="660.022287" y="114.221697" style="fill: #e41a1c; stroke: #e41a1c"/>
     <use xlink:href="#m6f26c1e460" x="666.413665" y="105.703935" style="fill: #e41a1c; stroke: #e41a1c"/>
     <use xlink:href="#m6f26c1e460" x="672.656405" y="97.918412" style="fill: #e41a1c; stroke: #e41a1c"/>
     <use xlink:href="#m6f26c1e460" x="678.75051" y="95.810622" style="fill: #e41a1c; stroke: #e41a1c"/>
     <use xlink:href="#m6f26c1e460" x="684.715033" y="94.545666" style="fill: #e41a1c; stroke: #e41a1c"/>
     <use xlink:href="#m6f26c1e460" x="690.553787" y="94.207155" style="fill: #e41a1c; stroke: #e41a1c"/>
     <use xlink:href="#m6f26c1e460" x="696.274394" y="94.591921" style="fill: #e41a1c; stroke: #e41a1c"/>
     <use xlink:href="#m6f26c1e460" x="701.88943" y="90.402001" style="fill: #e41a1c; stroke: #e41a1c"/>
     <use xlink:href="#m6f26c1e460" x="707.39318" y="86.777289" style="fill: #e41a1c; stroke: #e41a1c"/>
     <use xlink:href="#m6f26c1e460" x="712.802793" y="87.899614" style="fill: #e41a1c; stroke: #e41a1c"/>
     <use xlink:href="#m6f26c1e460" x="718.115221" y="82.135455" style="fill: #e41a1c; stroke: #e41a1c"/>
     <use xlink:href="#m6f26c1e460" x="723.341897" y="84.330526" style="fill: #e41a1c; stroke: #e41a1c"/>
     <use xlink:href="#m6f26c1e460" x="728.478628" y="82.010168" style="fill: #e41a1c; stroke: #e41a1c"/>
     <use xlink:href="#m6f26c1e460" x="733.54066" y="73.349887" style="fill: #e41a1c; stroke: #e41a1c"/>
     <use xlink:href="#m6f26c1e460" x="738.522657" y="78.367533" style="fill: #e41a1c; stroke: #e41a1c"/>
     <use xlink:href="#m6f26c1e460" x="743.428049" y="77.880504" style="fill: #e41a1c; stroke: #e41a1c"/>
     <use xlink:href="#m6f26c1e460" x="748.264077" y="74.945718" style="fill: #e41a1c; stroke: #e41a1c"/>
     <use xlink:href="#m6f26c1e460" x="753.033409" y="72.240087" style="fill: #e41a1c; stroke: #e41a1c"/>
     <use xlink:href="#m6f26c1e460" x="757.738712" y="69.083421" style="fill: #e41a1c; stroke: #e41a1c"/>
     <use xlink:href="#m6f26c1e460" x="762.381894" y="66.18353" style="fill: #e41a1c; stroke: #e41a1c"/>
     <use xlink:href="#m6f26c1e460" x="766.964477" y="64.268811" style="fill: #e41a1c; stroke: #e41a1c"/>
     <use xlink:href="#m6f26c1e460" x="771.488749" y="63.366107" style="fill: #e41a1c; stroke: #e41a1c"/>
     <use xlink:href="#m6f26c1e460" x="775.956997" y="64.249043" style="fill: #e41a1c; stroke: #e41a1c"/>
     <use xlink:href="#m6f26c1e460" x="780.37265" y="64.665851" style="fill: #e41a1c; stroke: #e41a1c"/>
     <use xlink:href="#m6f26c1e460" x="784.737233" y="64.554143" style="fill: #e41a1c; stroke: #e41a1c"/>
     <use xlink:href="#m6f26c1e460" x="789.053032" y="64.645166" style="fill: #e41a1c; stroke: #e41a1c"/>
     <use xlink:href="#m6f26c1e460" x="793.321573" y="62.494103" style="fill: #e41a1c; stroke: #e41a1c"/>
     <use xlink:href="#m6f26c1e460" x="797.540187" y="54.145914" style="fill: #e41a1c; stroke: #e41a1c"/>
     <use xlink:href="#m6f26c1e460" x="801.711923" y="59.035379" style="fill: #e41a1c; stroke: #e41a1c"/>
     <use xlink:href="#m6f26c1e460" x="805.844785" y="59.963065" style="fill: #e41a1c; stroke: #e41a1c"/>
     <use xlink:href="#m6f26c1e460" x="809.937249" y="50.868732" style="fill: #e41a1c; stroke: #e41a1c"/>
    </g>
   </g>
   <g id="line2d_54">
    <g clip-path="url(#p9f52d6fd05)">
     <use xlink:href="#med6e28eb00" x="487.127331" y="377.64" style="fill: #999999; stroke: #999999"/>
     <use xlink:href="#med6e28eb00" x="502.840897" y="315.292399" style="fill: #999999; stroke: #999999"/>
     <use xlink:href="#med6e28eb00" x="516.553584" y="275.504547" style="fill: #999999; stroke: #999999"/>
     <use xlink:href="#med6e28eb00" x="528.966653" y="248.703806" style="fill: #999999; stroke: #999999"/>
     <use xlink:href="#med6e28eb00" x="540.434545" y="221.630954" style="fill: #999999; stroke: #999999"/>
     <use xlink:href="#med6e28eb00" x="551.140198" y="202.728386" style="fill: #999999; stroke: #999999"/>
     <use xlink:href="#med6e28eb00" x="561.213192" y="190.555018" style="fill: #999999; stroke: #999999"/>
     <use xlink:href="#med6e28eb00" x="570.76024" y="172.988601" style="fill: #999999; stroke: #999999"/>
     <use xlink:href="#med6e28eb00" x="579.838512" y="162.121105" style="fill: #999999; stroke: #999999"/>
     <use xlink:href="#med6e28eb00" x="588.505174" y="155.280845" style="fill: #999999; stroke: #999999"/>
     <use xlink:href="#med6e28eb00" x="596.817395" y="144.79037" style="fill: #999999; stroke: #999999"/>
     <use xlink:href="#med6e28eb00" x="604.786608" y="140.651161" style="fill: #999999; stroke: #999999"/>
     <use xlink:href="#med6e28eb00" x="612.469981" y="131.457428" style="fill: #999999; stroke: #999999"/>
     <use xlink:href="#med6e28eb00" x="619.91706" y="123.974264" style="fill: #999999; stroke: #999999"/>
     <use xlink:href="#med6e28eb00" x="627.146901" y="113.743983" style="fill: #999999; stroke: #999999"/>
     <use xlink:href="#med6e28eb00" x="634.170937" y="109.309423" style="fill: #999999; stroke: #999999"/>
     <use xlink:href="#med6e28eb00" x="641.004414" y="106.164677" style="fill: #999999; stroke: #999999"/>
     <use xlink:href="#med6e28eb00" x="647.654953" y="104.627115" style="fill: #999999; stroke: #999999"/>
     <use xlink:href="#med6e28eb00" x="654.14161" y="94.484257" style="fill: #999999; stroke: #999999"/>
     <use xlink:href="#med6e28eb00" x="660.47582" y="84.980772" style="fill: #999999; stroke: #999999"/>
     <use xlink:href="#med6e28eb00" x="666.657581" y="81.588466" style="fill: #999999; stroke: #999999"/>
     <use xlink:href="#med6e28eb00" x="672.705951" y="73.792238" style="fill: #999999; stroke: #999999"/>
     <use xlink:href="#med6e28eb00" x="678.620929" y="77.898807" style="fill: #999999; stroke: #999999"/>
     <use xlink:href="#med6e28eb00" x="684.413948" y="77.63775" style="fill: #999999; stroke: #999999"/>
     <use xlink:href="#med6e28eb00" x="690.100255" y="72.260502" style="fill: #999999; stroke: #999999"/>
     <use xlink:href="#med6e28eb00" x="695.676036" y="67.233005" style="fill: #999999; stroke: #999999"/>
     <use xlink:href="#med6e28eb00" x="701.145866" y="69.251065" style="fill: #999999; stroke: #999999"/>
     <use xlink:href="#med6e28eb00" x="706.529563" y="66.741755" style="fill: #999999; stroke: #999999"/>
     <use xlink:href="#med6e28eb00" x="711.81798" y="64.255119" style="fill: #999999; stroke: #999999"/>
     <use xlink:href="#med6e28eb00" x="717.027505" y="58.696049" style="fill: #999999; stroke: #999999"/>
     <use xlink:href="#med6e28eb00" x="722.149373" y="61.863947" style="fill: #999999; stroke: #999999"/>
     <use xlink:href="#med6e28eb00" x="727.19616" y="55.857313" style="fill: #999999; stroke: #999999"/>
     <use xlink:href="#med6e28eb00" x="732.172821" y="49.931832" style="fill: #999999; stroke: #999999"/>
     <use xlink:href="#med6e28eb00" x="737.073259" y="55.943023" style="fill: #999999; stroke: #999999"/>
     <use xlink:href="#med6e28eb00" x="741.905856" y="54.567881" style="fill: #999999; stroke: #999999"/>
     <use xlink:href="#med6e28eb00" x="746.674045" y="52.011578" style="fill: #999999; stroke: #999999"/>
     <use xlink:href="#med6e28eb00" x="751.380111" y="49.70133" style="fill: #999999; stroke: #999999"/>
     <use xlink:href="#med6e28eb00" x="756.026723" y="46.89208" style="fill: #999999; stroke: #999999"/>
     <use xlink:href="#med6e28eb00" x="760.615023" y="45.850425" style="fill: #999999; stroke: #999999"/>
     <use xlink:href="#med6e28eb00" x="765.147298" y="45.08348" style="fill: #999999; stroke: #999999"/>
     <use xlink:href="#med6e28eb00" x="769.625836" y="43.79934" style="fill: #999999; stroke: #999999"/>
     <use xlink:href="#med6e28eb00" x="774.052542" y="44.343055" style="fill: #999999; stroke: #999999"/>
     <use xlink:href="#med6e28eb00" x="778.429701" y="43.502369" style="fill: #999999; stroke: #999999"/>
     <use xlink:href="#med6e28eb00" x="782.759602" y="42.008209" style="fill: #999999; stroke: #999999"/>
     <use xlink:href="#med6e28eb00" x="787.042245" y="31.581167" style="fill: #999999; stroke: #999999"/>
     <use xlink:href="#med6e28eb00" x="791.273436" y="34.000142" style="fill: #999999; stroke: #999999"/>
     <use xlink:href="#med6e28eb00" x="795.463847" y="37.455037" style="fill: #999999; stroke: #999999"/>
     <use xlink:href="#med6e28eb00" x="799.615384" y="38.456555" style="fill: #999999; stroke: #999999"/>
     <use xlink:href="#med6e28eb00" x="803.726141" y="24.84" style="fill: #999999; stroke: #999999"/>
    </g>
   </g>
   <g id="patch_9">
    <path d="M 470.986836 395.28 
L 470.986836 7.2 
" style="fill: none; stroke: #000000; stroke-width: 0.8; stroke-linejoin: miter; stroke-linecap: square"/>
   </g>
   <g id="patch_10">
    <path d="M 826.077745 395.28 
L 826.077745 7.2 
" style="fill: none; stroke: #000000; stroke-width: 0.8; stroke-linejoin: miter; stroke-linecap: square"/>
   </g>
   <g id="patch_11">
    <path d="M 470.986836 395.28 
L 826.077745 395.28 
" style="fill: none; stroke: #000000; stroke-width: 0.8; stroke-linejoin: miter; stroke-linecap: square"/>
   </g>
   <g id="patch_12">
    <path d="M 470.986836 7.2 
L 826.077745 7.2 
" style="fill: none; stroke: #000000; stroke-width: 0.8; stroke-linejoin: miter; stroke-linecap: square"/>
   </g>
   <g id="legend_2">
    <g id="patch_13">
     <path d="M 480.786836 57.45424 
L 649.86545 57.45424 
Q 652.66545 57.45424 652.66545 54.65424 
L 652.66545 17 
Q 652.66545 14.2 649.86545 14.2 
L 480.786836 14.2 
Q 477.986836 14.2 477.986836 17 
L 477.986836 54.65424 
Q 477.986836 57.45424 480.786836 57.45424 
z
" style="fill: #ffffff; opacity: 0.8; stroke: #cccccc; stroke-linejoin: miter"/>
    </g>
    <g id="line2d_55">
     <g>
      <use xlink:href="#m6f26c1e460" x="497.586836" y="24.715092" style="fill: #e41a1c; stroke: #e41a1c"/>
     </g>
    </g>
    <g id="text_33">
     <!-- \textbf{equilibrium} -->
     <g transform="translate(522.786836 29.615092) scale(0.14 -0.14)">
      <use xlink:href="#LMRoman12-Bold-65" transform="scale(0.996264)"/>
      <use xlink:href="#LMRoman12-Bold-71" transform="translate(51.141547 0) scale(0.996264)"/>
      <use xlink:href="#LMRoman12-Bold-75" transform="translate(110.294723 0) scale(0.996264)"/>
      <use xlink:href="#LMRoman12-Bold-69" transform="translate(172.561224 0) scale(0.996264)"/>
      <use xlink:href="#LMRoman12-Bold-6c" transform="translate(203.694474 0) scale(0.996264)"/>
      <use xlink:href="#LMRoman12-Bold-69" transform="translate(234.827724 0) scale(0.996264)"/>
      <use xlink:href="#LMRoman12-Bold-62" transform="translate(265.960975 0) scale(0.996264)"/>
      <use xlink:href="#LMRoman12-Bold-72" transform="translate(328.227475 0) scale(0.996264)"/>
      <use xlink:href="#LMRoman12-Bold-69" transform="translate(374.005834 0) scale(0.996264)"/>
      <use xlink:href="#LMRoman12-Bold-75" transform="translate(405.139084 0) scale(0.996264)"/>
      <use xlink:href="#LMRoman12-Bold-6d" transform="translate(467.405585 0) scale(0.996264)"/>
     </g>
    </g>
    <g id="line2d_56">
     <g>
      <use xlink:href="#med6e28eb00" x="497.586836" y="44.242212" style="fill: #999999; stroke: #999999"/>
     </g>
    </g>
    <g id="text_34">
     <!-- \textbf{out of equilibrium} -->
     <g transform="translate(522.786836 49.142212) scale(0.14 -0.14)">
      <use xlink:href="#LMRoman12-Bold-6f" transform="scale(0.996264)"/>
      <use xlink:href="#LMRoman12-Bold-75" transform="translate(56.039851 0) scale(0.996264)"/>
      <use xlink:href="#LMRoman12-Bold-74" transform="translate(118.306351 0) scale(0.996264)"/>
      <use xlink:href="#LMRoman12-Bold-6f" transform="translate(199.252802 0) scale(0.996264)"/>
      <use xlink:href="#LMRoman12-Bold-66" transform="translate(255.292653 0) scale(0.996264)"/>
      <use xlink:href="#LMRoman12-Bold-65" transform="translate(326.899128 0) scale(0.996264)"/>
      <use xlink:href="#LMRoman12-Bold-71" transform="translate(378.040676 0) scale(0.996264)"/>
      <use xlink:href="#LMRoman12-Bold-75" transform="translate(437.193851 0) scale(0.996264)"/>
      <use xlink:href="#LMRoman12-Bold-69" transform="translate(499.460352 0) scale(0.996264)"/>
      <use xlink:href="#LMRoman12-Bold-6c" transform="translate(530.593602 0) scale(0.996264)"/>
      <use xlink:href="#LMRoman12-Bold-69" transform="translate(561.726853 0) scale(0.996264)"/>
      <use xlink:href="#LMRoman12-Bold-62" transform="translate(592.860103 0) scale(0.996264)"/>
      <use xlink:href="#LMRoman12-Bold-72" transform="translate(655.126603 0) scale(0.996264)"/>
      <use xlink:href="#LMRoman12-Bold-69" transform="translate(700.904962 0) scale(0.996264)"/>
      <use xlink:href="#LMRoman12-Bold-75" transform="translate(732.038212 0) scale(0.996264)"/>
      <use xlink:href="#LMRoman12-Bold-6d" transform="translate(794.304713 0) scale(0.996264)"/>
     </g>
    </g>
   </g>
  </g>
 </g>
 <defs>
  <clipPath id="pf0c71fcfe7">
   <rect x="44.877745" y="7.2" width="355.090909" height="388.08"/>
  </clipPath>
  <clipPath id="p9f52d6fd05">
   <rect x="470.986836" y="7.2" width="355.090909" height="388.08"/>
  </clipPath>
 </defs>
</svg>
